<?xml version="1.0" encoding="UTF-8"?>
<!DOCTYPE svg PUBLIC "-//W3C//DTD SVG 1.1//EN" "http://www.w3.org/Graphics/SVG/1.1/DTD/svg11.dtd">
<!-- Creator: CorelDRAW 2021.5 -->
<svg xmlns="http://www.w3.org/2000/svg" xml:space="preserve" width="198.9mm" height="107.101mm" version="1.1" style="shape-rendering:geometricPrecision; text-rendering:geometricPrecision; image-rendering:optimizeQuality; fill-rule:evenodd; clip-rule:evenodd"
viewBox="0 0 17074.56 9194.02"
 xmlns:xlink="http://www.w3.org/1999/xlink"
 xmlns:xodm="http://www.corel.com/coreldraw/odm/2003">
 <defs>
  <style type="text/css">
   <![CDATA[
    .str43 {stroke:#353535;stroke-width:11.36;stroke-miterlimit:22.9256}
    .str41 {stroke:black;stroke-width:3.18;stroke-miterlimit:22.9256}
    .str40 {stroke:#010101;stroke-width:3.18;stroke-miterlimit:22.9256}
    .str39 {stroke:#020202;stroke-width:3.18;stroke-miterlimit:22.9256}
    .str38 {stroke:#030303;stroke-width:3.18;stroke-miterlimit:22.9256}
    .str37 {stroke:#040404;stroke-width:3.18;stroke-miterlimit:22.9256}
    .str36 {stroke:#050505;stroke-width:3.18;stroke-miterlimit:22.9256}
    .str35 {stroke:#060606;stroke-width:3.18;stroke-miterlimit:22.9256}
    .str34 {stroke:#070707;stroke-width:3.18;stroke-miterlimit:22.9256}
    .str33 {stroke:#080808;stroke-width:3.18;stroke-miterlimit:22.9256}
    .str32 {stroke:#090909;stroke-width:3.18;stroke-miterlimit:22.9256}
    .str31 {stroke:#0A0A0A;stroke-width:3.18;stroke-miterlimit:22.9256}
    .str42 {stroke:#2D2D2D;stroke-width:5.45;stroke-miterlimit:22.9256}
    .str30 {stroke:#0B0B0B;stroke-width:3.41;stroke-miterlimit:22.9256}
    .str29 {stroke:#0C0C0C;stroke-width:3.41;stroke-miterlimit:22.9256}
    .str28 {stroke:#0D0D0D;stroke-width:3.41;stroke-miterlimit:22.9256}
    .str27 {stroke:#0E0E0E;stroke-width:3.41;stroke-miterlimit:22.9256}
    .str26 {stroke:#0F0F0F;stroke-width:3.41;stroke-miterlimit:22.9256}
    .str25 {stroke:#101010;stroke-width:3.41;stroke-miterlimit:22.9256}
    .str24 {stroke:#111111;stroke-width:3.41;stroke-miterlimit:22.9256}
    .str23 {stroke:#121212;stroke-width:3.41;stroke-miterlimit:22.9256}
    .str22 {stroke:#131313;stroke-width:3.41;stroke-miterlimit:22.9256}
    .str21 {stroke:#141414;stroke-width:3.41;stroke-miterlimit:22.9256}
    .str20 {stroke:#151515;stroke-width:3.41;stroke-miterlimit:22.9256}
    .str19 {stroke:#161616;stroke-width:3.41;stroke-miterlimit:22.9256}
    .str18 {stroke:#171717;stroke-width:3.41;stroke-miterlimit:22.9256}
    .str17 {stroke:#181818;stroke-width:3.41;stroke-miterlimit:22.9256}
    .str16 {stroke:#191919;stroke-width:3.41;stroke-miterlimit:22.9256}
    .str15 {stroke:#1A1A1A;stroke-width:3.63;stroke-miterlimit:22.9256}
    .str14 {stroke:#1B1B1B;stroke-width:3.63;stroke-miterlimit:22.9256}
    .str13 {stroke:#1C1C1C;stroke-width:3.63;stroke-miterlimit:22.9256}
    .str12 {stroke:#1D1D1D;stroke-width:3.63;stroke-miterlimit:22.9256}
    .str11 {stroke:#1E1E1E;stroke-width:3.63;stroke-miterlimit:22.9256}
    .str10 {stroke:#1F1F1F;stroke-width:3.63;stroke-miterlimit:22.9256}
    .str9 {stroke:#202020;stroke-width:3.63;stroke-miterlimit:22.9256}
    .str8 {stroke:#212121;stroke-width:3.63;stroke-miterlimit:22.9256}
    .str7 {stroke:#222222;stroke-width:3.63;stroke-miterlimit:22.9256}
    .str6 {stroke:#232323;stroke-width:3.63;stroke-miterlimit:22.9256}
    .str5 {stroke:#242424;stroke-width:3.63;stroke-miterlimit:22.9256}
    .str4 {stroke:#252525;stroke-width:3.63;stroke-miterlimit:22.9256}
    .str3 {stroke:#262626;stroke-width:3.63;stroke-miterlimit:22.9256}
    .str2 {stroke:#272727;stroke-width:3.63;stroke-miterlimit:22.9256}
    .str1 {stroke:#282828;stroke-width:3.63;stroke-miterlimit:22.9256}
    .str0 {stroke:#292929;stroke-width:3.63;stroke-miterlimit:22.9256}
    .fil4 {fill:none}
    .fil1 {fill:none;fill-rule:nonzero}
    .fil3 {fill:#353535;fill-rule:nonzero}
    .fil2 {fill:#AEB0B2;fill-rule:nonzero}
    .fil0 {fill:#F2F2F2;fill-rule:nonzero}
   ]]>
  </style>
   <clipPath id="id0">
    <path d="M-0 9194.02l17074.56 0 0 -9194.02 -17074.56 0 0 9194.02z"/>
   </clipPath>
 </defs>
 <g id="Layer_x0020_1">
  <metadata id="CorelCorpID_0Corel-Layer"/>
  <g>
  </g>
  <g style="clip-path:url(#id0)">
   <g id="_2254615169200">
    <path class="fil0" d="M9028.58 -77.9c-235.47,517.47 -71.5,875.58 1175.04,590.53 3011.53,-688.66 3411.28,-461.53 3443.99,490.15 35.66,1030.04 578.04,964.17 1780.03,144.91 958.7,-653.57 493.13,712.28 1618.98,1068.39l0 -2293.98 -8018.04 0z"/>
    <path class="fil0" d="M9074.88 -77.9c-818.23,758.77 -1739.22,1285.71 -1986.58,135.14 -10.42,-48.5 -21.22,-92.77 -32.21,-135.14l2018.79 0zm-3036.35 0c-607.73,644.14 -1468.78,1597.13 -2684.93,942.82 -1531.58,-823.96 -2652.59,810.45 -3341.78,1221.3l0 -2164.11 6026.71 0z"/>
    <path class="fil1 str0" d="M1239.19 -77.9c212.7,65.63 386.62,57.16 533.19,0"/>
    <path class="fil1 str1" d="M1069.83 -77.9c370.1,167.95 637.65,134.44 847.46,0"/>
    <path class="fil1 str2" d="M941.96 -77.9c501.14,274.39 831.8,206.27 1082.2,0"/>
    <path class="fil1 str3" d="M833.3 -77.9c620.01,383.72 999.33,273.67 1282.09,0"/>
    <path class="fil1 str4" d="M735.25 -77.9c732.68,497.06 1151.46,337.52 1463.22,0"/>
    <path class="fil1 str5" d="M645.16 -77.9c840.64,613.37 1292.5,397.95 1631.87,0"/>
    <path class="fil1 str6" d="M561.79 -77.9c944.34,731.86 1424.13,454.72 1790.9,0"/>
    <path class="fil1 str7" d="M483.25 -77.9c1045.28,853.16 1548.94,508.18 1943.72,0"/>
    <path class="fil1 str8" d="M408.52 -77.9c1143.86,977.45 1667.89,558.42 2091.86,0"/>
    <path class="fil1 str9" d="M337.01 -77.9c1240.7,1104.62 1782.27,605.41 2237.01,0"/>
    <path class="fil1 str10" d="M265.27 -77.9c26.17,22.37 52.24,44.4 78.83,68.13 1281.18,1143.59 1826,568.45 2304.11,-68.13"/>
    <path class="fil1 str11" d="M189.33 -77.9c56.3,45.45 113.26,92.97 171.58,144.91 1313.42,1169.6 1859.99,517.94 2362.46,-144.91"/>
    <path class="fil1 str12" d="M107.22 -77.9c87.84,66.25 177.85,139.4 270.72,221.9 1344.8,1194.68 1893.23,464.14 2422.44,-221.9m2585.88 0c138.27,26.69 271.66,24.88 401.49,0"/>
    <path class="fil1 str13" d="M17.32 -77.9c121.09,84.18 246.73,182.66 377.66,298.67 1375.28,1218.68 1925.82,407.18 2484.12,-298.67m2440.63 0c242.21,77.87 468.52,69.25 685.2,0"/>
    <path class="fil1 str14" d="M11.81 -15.52c128,87.13 261.05,190.25 399.97,313.06 1405,1242.06 1957.94,347.01 2547.86,-375.44m2332.76 0c320.5,130.16 612.21,112.04 888.24,0"/>
    <path class="fil1 str15" d="M11.81 50.75c133.26,89.15 272.02,195.91 417.01,323.78 1434.43,1265.04 1990.09,283.16 2614.43,-452.44m2236.97 0c389.92,184.05 736.38,154.31 1060.77,0"/>
    <path class="fil1 str16" d="M11.81 117.07c138.4,90.99 282.87,201.45 433.82,334.24 1463.56,1287.47 2022.34,215.87 2683.82,-529.21m2148.39 0c453.35,237.88 847.36,195.19 1212.45,0"/>
    <path class="fil1 str17" d="M11.81 183.81c143.65,92.74 293.8,206.47 450.85,344.26 1492.54,1309.73 2054.85,144.55 2756.65,-605.98m2061.54 0c514.08,292.52 951.6,235.59 1352.72,0"/>
    <path class="fil1 str18" d="M11.81 251.51c148.88,94.36 304.53,210.79 467.66,353.57 1521.8,1331.94 2088.02,68.72 2833.46,-682.98m1973.31 0c573.21,348.34 1051.03,275.17 1484.5,0"/>
    <path class="fil1 str19" d="M11.81 318.87c154.14,95.87 315.45,215.21 484.7,362.98 1551.03,1354.08 2121.67,-11.68 2914.32,-759.75m1882.46 0c631.61,405.46 1147.35,314.2 1610.26,0"/>
    <path class="fil1 str19" d="M11.81 386.46c159.31,97.2 326.23,219.54 501.5,372.15 1580.98,1376.55 2156.53,-97.62 3000.51,-836.51m1790.45 0c688.78,461.6 1240.73,352.68 1730.2,0"/>
    <path class="fil1 str20" d="M11.81 454.17c164.54,98.45 337.2,223.97 518.54,381.43 1611.93,1399.72 2192.67,-190.22 3092.81,-913.51m1689.66 0c7.26,4.87 14.28,9.08 21.58,14.07 736.84,503.85 1317.45,373.11 1826.94,-14.07"/>
    <path class="fil1 str21" d="M11.81 521.94c169.68,99.54 348.03,228.22 535.35,390.44 1643.94,1423.73 2230.32,-290.34 3192.16,-990.28m1579.03 0c29.29,18.05 58.72,36.48 88.73,56.55 764.7,511.47 1361.1,357.25 1879.52,-56.55"/>
    <path class="fil1 str22" d="M11.81 590.63c174.98,100.55 358.91,231.44 552.38,398.53 1678.1,1449.27 2270.37,-400.11 3300.72,-1067.06m1450.69 0c53.72,29.9 108.26,62.07 164.38,98.8 791.74,518 1402.93,340.33 1929.05,-98.8"/>
    <path class="fil1 str23" d="M11.81 659.55c180.25,101.44 369.83,234.72 569.41,406.6 1715.2,1477.28 2313.34,-523.21 3421.21,-1144.05m1299.36 0c81.02,39.77 164.38,86.14 250.86,141.5 818.98,524.19 1444.82,322.93 1977.89,-141.5"/>
    <path class="fil1 str24" d="M11.81 728.38c185.46,102.22 380.64,237.99 586.23,414.54 1756.4,1508.43 2359.88,-663.38 3556.72,-1220.82m1118.52 0c112.28,46.71 229.27,106.86 352.08,183.74 845.31,529.28 1484.84,304.69 2023.71,-183.74"/>
    <path class="fil1 str25" d="M11.81 797.21c190.7,102.85 391.62,241.29 603.25,422.48 1806.56,1547.15 2413.83,-835.1 3720.52,-1297.59m882.9 0c150.67,48.8 309.93,122.2 479.77,226.22 871.87,533.97 1525.04,286.09 2068.98,-226.22"/>
    <path class="fil1 str26" d="M11.81 866.31c195.87,103.42 402.52,244.61 620.07,430.37 1876.9,1602.64 2481.69,-1075.39 3941.64,-1374.59m532.57 0c204.21,39.46 424.43,124.66 664.85,268.69 897.96,537.91 1563.94,266.6 2111.93,-268.69"/>
    <path class="fil1 str27" d="M11.81 936.21c201.21,103.89 413.45,246.86 637.1,437.25 2303.78,1961.28 2725.57,-2587.25 5194.94,-1140.2 924.21,541.51 1603,246.97 2154.31,-311.16"/>
    <path class="fil1 str28" d="M11.81 1006.26c206.47,104.22 424.3,249.09 653.91,443.96 2289.7,1943.56 2755.78,-2604.51 5250.58,-1174.73 949.92,544.49 1640.68,226.7 2194.39,-353.41"/>
    <path class="fil1 str29" d="M11.81 1076.19c211.79,104.51 435.33,251.46 670.94,450.81 2275.86,1925.62 2785.99,-2622 5306.46,-1209.02 975.83,547.05 1678.57,206.04 2233.93,-395.88"/>
    <path class="fil1 str30" d="M11.81 1146.38c217.04,104.7 446.27,253.89 687.75,457.62 2261.77,1907.9 2816.2,-2639.49 5362.34,-1243.54 1001.66,549.17 1715.96,184.94 2272.18,-438.37"/>
    <path class="fil1 str31" d="M11.81 1216.76c222.37,104.81 457.36,256.16 704.78,464.22 2247.91,1890.18 2846.41,-2656.98 5418.21,-1277.84 1027.46,550.88 1752.88,163.29 2309.16,-481.05"/>
    <path class="fil1 str32" d="M11.81 1287.67c227.72,104.83 468.29,257.53 721.59,469.86 2233.83,1872.47 2876.61,-2674.24 5474.08,-1312.36 1053.01,552.24 1789.43,141.83 2344.99,-523.08"/>
    <path class="fil1 str33" d="M11.81 1358.89c233.14,104.78 479.41,259.08 738.63,475.65 2219.98,1854.75 2906.82,-2691.73 5529.73,-1346.66 1078.71,553.17 1825.63,119.44 2379.7,-565.79"/>
    <path class="fil1 str34" d="M11.81 1430.09c238.49,104.7 490.44,260.74 755.43,481.44 2205.89,1837.03 2937.03,-2709.22 5585.6,-1381.18 1104.38,553.75 1861.65,96.92 2413.5,-608.25"/>
    <path class="fil1 str35" d="M11.81 1500.9c243.91,104.52 501.68,262.42 772.47,487.17 2192.04,1819.32 2967.24,-2726.7 5641.48,-1415.48 1130.02,553.97 1897.48,74.32 2446.32,-650.5"/>
    <path class="fil1 str36" d="M11.81 1572.64c249.4,104.32 512.91,263.65 789.51,492.42 2178.18,1801.61 2997.45,-2743.97 5697.35,-1450 1155.54,553.95 1932.55,51.19 2477.66,-692.96"/>
    <path class="fil1 str37" d="M11.81 1644.85c254.87,104.07 524.02,264.52 806.31,497.21 2164.1,1783.89 3027.66,-2761.45 5753.23,-1484.3 1181.36,553.61 1967.99,27.73 2508.59,-735.67"/>
    <path class="fil1 str38" d="M11.81 1716.42c260.5,103.78 535.48,265.57 823.57,502.19 2150.25,1766.17 3057.87,-2778.95 5808.87,-1518.83 1206.9,552.83 2002.88,4.37 2538.26,-777.69"/>
    <path class="fil1 str39" d="M11.81 1788.55c266,103.47 546.74,266.71 840.38,507.06 2136.17,1748.45 3088.3,-2796.44 5864.75,-1553.12 1232.67,551.85 2037.53,-19.7 2566.92,-820.39"/>
    <path class="fil1 str40" d="M11.81 1860.68c271.59,103.13 558.19,267.91 857.42,511.94 2122.31,1730.74 3118.51,-2813.7 5920.62,-1587.65 1258.35,550.58 2072.01,-43.78 2594.69,-862.87"/>
    <path class="fil1 str41" d="M11.81 1933.28c277.21,102.76 569.49,268.29 874.22,515.87 2108.23,1713.02 3148.72,-2831.19 5976.49,-1621.94 1284.14,549.14 2106.48,-67.88 2621.68,-905.11"/>
    <path class="fil0" d="M11.81 6401.94c262.78,-31.82 543.44,82.72 831.06,429.93 1301.46,1571.06 1906.77,-1363.7 2639.49,469.93 667.77,1671.23 2000.35,488.1 1413.89,3078.08 -80.68,356.32 -137.44,652.37 -185.66,898.76l-4698.78 0 0 -4876.69z"/>
    <path class="fil0" d="M17046.62 7819.51c-361.4,-80.65 -758.71,-334.01 -1185.4,-849.09 -2009.65,-2425.76 -1639.66,2765.55 -3961.16,1056.16 -2321.51,-1709.62 -2141.39,2815.06 -3925.73,1169.72 -1097.59,-1012.08 -1255.08,808.54 -1639.37,2082.34l10711.66 0 0 -3459.12z"/>
    <path class="fil1 str42" d="M7654.12 11278.64c-218.59,-871.38 -319.34,-2369.48 1628.48,-2241.11 2732.84,180.11 865.82,-4250.3 4340.24,-2182.04 3033.8,1805.97 2045.32,-947.09 3423.77,-300.43"/>
    <path class="fil1 str42" d="M7678.63 11278.64c-206.38,-876.41 -276.91,-2350.87 1645.32,-2209.08 2718.75,200.56 896.03,-4211.69 4319.8,-2125.95 2979.1,1817.69 2053.23,-944.64 3402.87,-333.15"/>
    <path class="fil1 str42" d="M7704 11278.64c-194.02,-880.87 -235.58,-2332.27 1661.28,-2177.28 2704.68,221 926.24,-4173.3 4299.36,-2070.07 2924.63,1829.33 2059.86,-942.03 3381.97,-365.59"/>
    <path class="fil1 str42" d="M7729.9 11278.64c-181.59,-884.87 -195.33,-2313.4 1676.72,-2145.25 2690.59,241.67 956.45,-4134.7 4278.92,-2013.97 2870.44,1840.65 2065.87,-938.98 3361.08,-398.23"/>
    <path class="fil1 str42" d="M7756.31 11278.64c-168.98,-888.34 -155.73,-2294.39 1691.87,-2113.45 2676.51,262.11 986.66,-4096.08 4258.71,-1958.09 2816.04,1851.6 2070.85,-934.97 3339.73,-430.73"/>
    <path class="fil1 str42" d="M7783.24 11278.64c-156.27,-891.33 -116.96,-2274.94 1706.28,-2081.43 2662.2,282.55 1016.87,-4057.47 4238.27,-1901.99 2761.83,1862.14 2076.14,-928.77 3318.84,-461.79"/>
    <path class="fil1 str42" d="M7810.74 11278.64c-143.62,-893.93 -79.51,-2255.69 1720.12,-2049.63 2648.12,302.99 1051.85,-4025.67 4217.82,-1846.12 2711.54,1866.71 2081.5,-923.49 3297.94,-493.2"/>
    <path class="fil1 str42" d="M7838.65 11278.64c-130.77,-896.06 -42.28,-2235.91 1733.78,-2017.83 2634.03,323.44 1082.73,-3987.96 4197.38,-1790.02 2658,1875.9 2085.02,-916.33 3276.81,-524.07"/>
    <path class="fil1 str42" d="M7867.12 11278.64c-118.01,-897.76 -6.35,-2216.13 1746.65,-1986.04 2619.96,344.1 1113.85,-3950.26 4176.94,-1734.14 2605.16,1885.02 2087.34,-909.56 3255.91,-554.75"/>
    <path class="fil1 str42" d="M7896.15 11278.64c-105.17,-899.12 28.94,-2196.05 1758.96,-1954.01 2605.65,364.55 1144.74,-3912.55 4156.5,-1678.04 2552.16,1893.61 2089.69,-900.12 3235.02,-584.16"/>
    <path class="fil1 str42" d="M7925.55 11278.64c-92.36,-900.02 63.47,-2175.86 1771.12,-1922.2 2591.57,384.99 1175.63,-3874.85 4136.05,-1622.17 2499.22,1901.76 2091.08,-889.76 3213.9,-613.14"/>
    <path class="fil1 str42" d="M7955.51 11278.64c-79.49,-900.55 97.32,-2155.26 1782.5,-1890.19 2577.48,405.43 1206.75,-3836.93 4115.84,-1566.07 2446.55,1909.87 2091.56,-879.12 3192.78,-641.9"/>
    <path class="fil1 str42" d="M7986.06 11278.64c-66.71,-900.8 130.17,-2134.86 1793.51,-1858.38 2563.4,425.87 1237.63,-3799.22 4095.4,-1510.19 2394.3,1917.81 2090.82,-868.36 3171.65,-670.32"/>
    <path class="fil1 str42" d="M8016.9 11278.64c-53.95,-900.61 162.49,-2113.89 1804,-1826.36 2549.31,446.54 1268.53,-3761.06 4074.96,-1454.09 2342.09,1925.28 2090.03,-855.26 3150.76,-697.02"/>
    <path class="fil1 str42" d="M8048.31 11278.64c-41.23,-900.1 194,-2092.97 1813.93,-1794.56 2535.24,466.98 1299.65,-3723.13 4054.52,-1398.22 2290.05,1932.73 2087.94,-841.82 3129.87,-723.42"/>
    <path class="fil1 str42" d="M8080.03 11278.64c-28.59,-899.33 224.68,-2071.88 1823.56,-1762.76 2520.93,487.43 1330.53,-3684.97 4034.07,-1342.11 2238.59,1939.98 2084.89,-828.54 3108.97,-749.52"/>
    <path class="fil1 str42" d="M8112.39 11278.64c-15.98,-898.17 254.74,-2050.61 1832.54,-1730.96 2506.85,507.87 1361.42,-3646.81 4013.63,-1286.25 2187.42,1946.95 2081.15,-814.51 3088.07,-774.85"/>
    <path class="fil1 str42" d="M8145.1 11278.64c-3.43,-896.66 284.22,-2028.91 1841.16,-1698.94 2492.76,528.54 1392.32,-3608.66 3993.19,-1230.14 2136.14,1953.42 2076.65,-798.31 3067.17,-798.57"/>
    <path class="fil1 str42" d="M8178.54 11278.64c9,-894.94 312.73,-2007.45 1849.28,-1667.14 2478.68,548.98 1423.2,-3570.5 3972.75,-1174.27 2085.25,1959.69 2071.33,-781.69 3046.05,-822.03"/>
    <path class="fil1 str42" d="M8212.35 11278.64c21.4,-892.84 340.78,-1985.42 1856.81,-1635.12 2464.59,569.42 1453.87,-3532.12 3952.53,-1118.16 2034.74,1965.87 2064.75,-765.31 3024.93,-845.18"/>
    <path class="fil1 str42" d="M8246.45 11278.64c33.63,-890.45 368.09,-1963.43 1864.05,-1603.31 2450.29,589.86 1484.75,-3493.73 3932.09,-1062.29 1984.54,1971.74 2057.73,-747.55 3004.03,-866.65"/>
    <path class="fil1 str42" d="M8281.25 11278.64c45.84,-887.82 394.77,-1941.2 1870.82,-1571.29 2436.21,610.3 1515.42,-3455.35 3911.64,-1006.19 1934.55,1977.2 2049.68,-728.74 2982.91,-887.2"/>
    <path class="fil1 str42" d="M8316.39 11278.64c57.85,-884.89 420.58,-1918.9 1877.01,-1539.49 2422.13,630.97 1546.08,-3416.73 3891.21,-950.32 1885.17,1982.79 2040.77,-710.55 2962.01,-907.47"/>
    <path class="fil1 str42" d="M8351.99 11278.64c69.87,-881.62 446.14,-1896.15 1882.98,-1507.46 2408.04,651.42 1576.74,-3378.34 3870.77,-894.21 1835.99,1988.13 2030.83,-691.78 2940.89,-926.84"/>
    <path class="fil1 str42" d="M8387.96 11278.64c81.63,-878.21 470.73,-1873.74 1888.34,-1475.89 2393.96,671.86 1607.41,-3339.73 3850.33,-838.34 1787.27,1993.09 2020.44,-671.37 2919.99,-944.48"/>
    <path class="fil1 str42" d="M8424.6 11278.64c93.37,-874.41 494.75,-1850.67 1893.05,-1443.87 2379.65,692.29 1638.07,-3300.89 3829.88,-782.24 1738.99,1998.04 2008.92,-651.73 2899.1,-962.01"/>
    <path class="fil1 str42" d="M8461.51 11278.64c104.92,-870.41 518.15,-1827.69 1897.69,-1412.07 2365.57,712.73 1668.5,-3262.28 3809.67,-726.37 1690.88,2002.64 1996.52,-631.21 2877.75,-978.78"/>
    <path class="fil1 str42" d="M8498.84 11278.64c116.38,-866.12 541.11,-1804.39 1901.7,-1380.04 2351.49,733.41 1698.94,-3223.44 3789.22,-670.27 1643.32,2007.37 1983.48,-610.31 2856.85,-993.87"/>
    <path class="fil1 str42" d="M8536.6 11278.64c127.67,-861.61 563.16,-1781.07 1905.06,-1348.25 2337.17,753.85 1729.38,-3184.6 3768.78,-614.39 1596.45,2011.99 1969.84,-589.63 2836.18,-1008.45"/>
    <path class="fil1 str42" d="M8574.94 11278.64c138.84,-856.76 584.76,-1757.31 1908.29,-1316.22 2323.32,774.29 1759.81,-3145.76 3748.34,-558.29 1549.76,2016.44 1955.08,-568.58 2815.06,-1022.43"/>
    <path class="fil1 str42" d="M8613.62 11278.64c149.82,-851.8 605.74,-1733.79 1910.94,-1284.43 2309.01,794.73 1790.02,-3106.7 3727.9,-502.41 1503.65,2020.72 1939.87,-547.64 2794.16,-1035.59"/>
    <path class="fil1 str42" d="M8652.77 11278.64c160.67,-846.46 626.13,-1709.68 1913.13,-1252.4 2294.93,815.4 1820.23,-3067.86 3707.45,-446.32 1457.84,2025.01 1923.8,-525.88 2773.27,-1047.29"/>
    <path class="fil1 str42" d="M8692.55 11278.64c171.37,-840.98 645.82,-1685.78 1914.91,-1220.83 2280.85,835.84 1850.44,-3028.79 3687.01,-390.44 1412.4,2028.98 1907.03,-504.13 2752.14,-1058.57"/>
    <path class="fil1 str42" d="M8732.59 11278.64c181.88,-835.21 664.98,-1661.47 1916.21,-1188.8 2266.76,856.28 1880.42,-2989.72 3666.8,-334.34 1367.56,2033 1889.49,-483.13 2731.02,-1069.61"/>
    <path class="fil1 str42" d="M8773.02 11278.64c192.25,-829.22 683.74,-1637.11 1917.34,-1157.01 2252.69,876.72 1910.4,-2950.66 3646.36,-278.46 1323.19,2037.01 1871.5,-460.69 2709.9,-1078.65"/>
    <path class="fil1 str42" d="M8814.18 11278.64c202.47,-822.9 701.66,-1612.31 1917.52,-1124.98 2238.38,897.16 1940.38,-2911.59 3625.92,-222.59 1279.23,2040.91 1852.94,-439.14 2689,-1087.65"/>
    <path class="fil1 str42" d="M8855.56 11278.64c212.44,-816.49 718.94,-1587.75 1917.48,-1093.18 2224.29,917.83 1970.36,-2872.3 3605.48,-166.49 1235.86,2045.02 1833.74,-418.13 2668.1,-1096.25"/>
    <path class="fil1 str42" d="M8897.46 11278.64c222.32,-809.71 735.94,-1562.61 1917.15,-1061.15 2210.21,938.27 2000.11,-2833.23 3585.03,-110.61 1192.69,2048.86 1813.93,-396.65 2646.99,-1103.92"/>
    <path class="fil1 str42" d="M8939.63 11278.64c231.94,-802.78 752.19,-1537.56 1916.31,-1029.36 2196.13,958.72 2029.64,-2793.94 3564.59,-54.51 1150.19,2052.75 1793.72,-375.43 2626.09,-1110.69"/>
    <path class="fil1 str42" d="M8982.59 11278.64c241.42,-795.57 767.75,-1512.17 1914.7,-997.33 2182.04,979.16 2059.4,-2754.65 3544.15,1.36 1108.12,2056.67 1773.06,-354.41 2605.18,-1117.12"/>
    <path class="fil1 str42" d="M9025.75 11278.64c250.69,-788.22 782.88,-1486.88 1913.1,-965.76 2167.97,999.6 2088.92,-2715.58 3523.71,57.46 1066.36,2060.53 1751.71,-333.79 2584.06,-1123.26"/>
    <path class="fil1 str42" d="M9069.37 11278.64c259.79,-780.51 797.53,-1461.03 1910.82,-933.73 2153.66,1020.27 2118.22,-2676.29 3503.5,113.34 288.16,580.36 550.95,808.72 798.48,820.39m42.36 0c614.51,-31.97 1136.73,-1375.74 1722.1,-1948.75"/>
    <path class="fil1 str42" d="M9113.3 11278.64c268.67,-772.7 811.4,-1435.38 1907.99,-901.94 2139.58,1040.71 2147.53,-2636.99 3483.06,169.44 183.49,385.64 357.87,616.24 525.65,732.5m560.59 0c498.67,-318.84 957.66,-1363.58 1456.03,-1865.79"/>
    <path class="fil1 str42" d="M9158 11278.64c277.37,-764.5 824.78,-1409.14 1904.86,-869.91 2125.49,1061.15 2176.83,-2597.7 3462.61,225.32 138.61,304.36 272.81,512.1 403.63,644.59m782.49 0c449.21,-393.62 878.1,-1308.81 1335.02,-1781.98"/>
    <path class="fil1 str42" d="M9202.98 11278.64c285.85,-756.18 837.64,-1383.01 1901.22,-838.11 2111.41,1081.6 2205.89,-2558.41 3442.17,281.42 105.81,243.07 209.62,424.98 311.81,556.69m948.09 0c412.66,-429.78 816.44,-1248.5 1240.36,-1698.45"/>
    <path class="fil1 str42" d="M9248.36 11278.64c294.14,-747.61 850.04,-1356.54 1897.41,-806.09 2097.1,1102.04 2234.97,-2519.34 3421.73,337.29 79.95,192.44 159.12,346.97 237.67,468.8m1083.29 0c382.47,-446.01 763.23,-1184.86 1158.17,-1613.95"/>
    <path class="fil1 str42" d="M9294.49 11278.64c302.21,-738.8 861.57,-1330 1892.61,-774.29 2083.01,1122.71 2264.04,-2480.05 3401.29,393.39 58.91,148.82 117.64,274.66 176.23,380.9m1198.01 0c356.31,-449.69 715.27,-1119.78 1084,-1529.02"/>
    <path class="fil1 str42" d="M9340.96 11278.64c310.04,-729.65 872.65,-1302.99 1887.49,-742.27 2068.94,1143.15 2292.89,-2440.75 3380.84,449.27 41.39,109.94 82.84,206.45 124.34,293m1298.25 0c332.67,-444.69 670.5,-1054.2 1014.75,-1443.95"/>
    <path class="fil1 str42" d="M9387.72 11278.64c317.68,-720.5 883.36,-1276.24 1882.28,-710.47 2054.86,1163.59 2316.96,-2399.87 3360.63,505.37 26.42,74.33 52.97,141.51 79.59,205.1m1386.2 0c311,-433.71 628.64,-989.04 950.2,-1359.21"/>
    <path class="fil1 str42" d="M9435.16 11278.64c325.07,-710.92 893.26,-1248.96 1876.18,-678.67 2040.55,1184.03 2347.17,-2361.48 3340.18,561.24 13.86,41.1 27.8,79.62 41.76,117.43m1466.8 0c290.23,-417.66 587.33,-923.23 886.53,-1273.79"/>
    <path class="fil1 str42" d="M9483.13 11278.64c332.24,-701.16 902.56,-1221.62 1869.54,-646.87 2026.46,1204.47 2377.38,-2322.86 3319.75,617.34 3.3,10.34 6.64,19.4 9.96,29.53m1539.69 0c270.21,-397.8 546.99,-856.83 824.56,-1187.37"/>
    <path class="fil1 str42" d="M9531.54 11278.64c339.22,-691.16 911.5,-1193.95 1862.71,-614.85 1998.68,1216.8 2402.44,-2235.53 3281.24,614.85m1607.82 0c250.55,-374.93 506.98,-790.3 763.31,-1100.34"/>
    <path class="fil2" d="M14026.46 98.34c0,-25.02 -20.41,-45.42 -45.42,-45.42 -25.02,0 -45.42,20.41 -45.42,45.42 0,25.02 20.41,45.42 45.42,45.42 25.02,0 45.42,-20.41 45.42,-45.42z"/>
    <path class="fil2" d="M14026.46 451.08c0,-25.02 -20.41,-45.42 -45.42,-45.42 -25.02,0 -45.42,20.41 -45.42,45.42 0,25.02 20.41,45.42 45.42,45.42 25.02,0 45.42,-20.41 45.42,-45.42z"/>
    <path class="fil2" d="M3767.88 -27.26c0,-25.14 -20.51,-45.65 -45.65,-45.65 -25.14,0 -45.65,20.51 -45.65,45.65 0,25.14 20.51,45.65 45.65,45.65 25.14,0 45.65,-20.51 45.65,-45.65z"/>
    <path class="fil2" d="M3767.88 325.47c0,-25.14 -20.51,-45.65 -45.65,-45.65 -25.14,0 -45.65,20.51 -45.65,45.65 0,25.14 20.51,45.65 45.65,45.65 25.14,0 45.65,-20.51 45.65,-45.65z"/>
    <path class="fil2" d="M3767.88 677.98c0,-25.14 -20.51,-45.65 -45.65,-45.65 -25.14,0 -45.65,20.51 -45.65,45.65 0,25.14 20.51,45.65 45.65,45.65 25.14,0 45.65,-20.51 45.65,-45.65z"/>
    <path class="fil2" d="M15010.62 8345.69c0,-25.02 -20.41,-45.42 -45.42,-45.42 -25.02,0 -45.42,20.41 -45.42,45.42 0,25.02 20.41,45.42 45.42,45.42 25.02,0 45.42,-20.41 45.42,-45.42z"/>
    <path class="fil2" d="M15010.62 8698.19c0,-25.02 -20.41,-45.42 -45.42,-45.42 -25.02,0 -45.42,20.41 -45.42,45.42 0,25.02 20.41,45.42 45.42,45.42 25.02,0 45.42,-20.41 45.42,-45.42z"/>
    <path class="fil2" d="M15010.62 9050.93c0,-25.02 -20.41,-45.42 -45.42,-45.42 -25.02,0 -45.42,20.41 -45.42,45.42 0,25.02 20.41,45.42 45.42,45.42 25.02,0 45.42,-20.41 45.42,-45.42z"/>
    <path class="fil2" d="M15010.62 9403.43c0,-25.02 -20.41,-45.42 -45.42,-45.42 -25.02,0 -45.42,20.41 -45.42,45.42 0,25.02 20.41,45.42 45.42,45.42 25.02,0 45.42,-20.41 45.42,-45.42z"/>
    <path class="fil2" d="M934.19 6318.77c0,-25.14 -20.51,-45.65 -45.65,-45.65 -25.14,0 -45.65,20.51 -45.65,45.65 0,25.14 20.51,45.65 45.65,45.65 25.14,0 45.65,-20.51 45.65,-45.65z"/>
    <path class="fil2" d="M933.96 6671.5c0,-25.02 -20.41,-45.42 -45.42,-45.42 -25.02,0 -45.42,20.41 -45.42,45.42 0,25.02 20.41,45.42 45.42,45.42 25.02,0 45.42,-20.41 45.42,-45.42z"/>
    <path class="fil2" d="M933.96 7024.01c0,-25.02 -20.41,-45.42 -45.42,-45.42 -25.02,0 -45.42,20.41 -45.42,45.42 0,25.02 20.41,45.42 45.42,45.42 25.02,0 45.42,-20.41 45.42,-45.42z"/>
    <path class="fil2" d="M934.19 7376.74c0,-25.14 -20.51,-45.65 -45.65,-45.65 -25.14,0 -45.65,20.51 -45.65,45.65 0,25.14 20.51,45.65 45.65,45.65 25.14,0 45.65,-20.51 45.65,-45.65z"/>
    <path class="fil3" d="M137.64 899.88c0,-25.02 -20.41,-45.42 -45.42,-45.42 -25.02,0 -45.42,20.41 -45.42,45.42 0,25.02 20.41,45.42 45.42,45.42 25.02,0 45.42,-20.41 45.42,-45.42z"/>
    <path class="fil3" d="M490.37 899.88c0,-25.02 -20.41,-45.42 -45.42,-45.42 -25.02,0 -45.42,20.41 -45.42,45.42 0,25.02 20.41,45.42 45.42,45.42 25.02,0 45.42,-20.41 45.42,-45.42z"/>
    <path class="fil3" d="M843.12 899.88c0,-25.14 -20.51,-45.65 -45.65,-45.65 -25.14,0 -45.65,20.51 -45.65,45.65 0,25.14 20.51,45.65 45.65,45.65 25.14,0 45.65,-20.51 45.65,-45.65z"/>
    <path class="fil3" d="M16321.62 6530.68c0,-25.02 -20.41,-45.42 -45.42,-45.42 -25.02,0 -45.42,20.41 -45.42,45.42 0,25.02 20.41,45.42 45.42,45.42 25.02,0 45.42,-20.41 45.42,-45.42z"/>
    <path class="fil3" d="M16674.35 6530.68c0,-25.02 -20.41,-45.42 -45.42,-45.42 -25.02,0 -45.42,20.41 -45.42,45.42 0,25.02 20.41,45.42 45.42,45.42 25.02,0 45.42,-20.41 45.42,-45.42z"/>
    <path class="fil3" d="M17026.86 6530.68c0,-25.02 -20.41,-45.42 -45.42,-45.42 -25.02,0 -45.42,20.41 -45.42,45.42 0,25.02 20.41,45.42 45.42,45.42 25.02,0 45.42,-20.41 45.42,-45.42z"/>
    <path class="fil3" d="M16452.45 275.06c0,-25.02 -20.41,-45.42 -45.42,-45.42 -25.02,0 -45.42,20.41 -45.42,45.42 0,25.02 20.41,45.42 45.42,45.42 25.02,0 45.42,-20.41 45.42,-45.42z"/>
    <path class="fil3" d="M16805.18 275.06c0,-25.14 -20.51,-45.65 -45.65,-45.65 -25.14,0 -45.65,20.51 -45.65,45.65 0,25.14 20.51,45.65 45.65,45.65 25.14,0 45.65,-20.51 45.65,-45.65z"/>
    <path class="fil3" d="M223.04 4622.79c25.21,0 45.43,20.44 45.43,45.43 0,24.99 -20.44,45.43 -45.43,45.43 -24.99,0 -45.65,-20.44 -45.65,-45.43 0,-24.99 20.44,-45.43 45.65,-45.43z"/>
    <path class="fil3" d="M359.54 8743.85c0,-25.02 -20.41,-45.42 -45.42,-45.42 -25.02,0 -45.42,20.41 -45.42,45.42 0,25.02 20.41,45.42 45.42,45.42 25.02,0 45.42,-20.41 45.42,-45.42z"/>
    <path class="fil3" d="M712.28 8743.85c0,-25.02 -20.41,-45.42 -45.42,-45.42 -25.02,0 -45.42,20.41 -45.42,45.42 0,25.02 20.41,45.42 45.42,45.42 25.02,0 45.42,-20.41 45.42,-45.42z"/>
    <path class="fil3" d="M6480.27 8391.11c0,-25.02 -20.41,-45.42 -45.42,-45.42 -25.02,0 -45.42,20.41 -45.42,45.42 0,25.02 20.41,45.42 45.42,45.42 25.02,0 45.42,-20.41 45.42,-45.42z"/>
    <path class="fil3" d="M6832.78 8391.11c0,-25.02 -20.41,-45.42 -45.42,-45.42 -25.02,0 -45.42,20.41 -45.42,45.42 0,25.02 20.41,45.42 45.42,45.42 25.02,0 45.42,-20.41 45.42,-45.42z"/>
    <path class="fil3" d="M7185.51 8391.11c0,-25.02 -20.41,-45.42 -45.42,-45.42 -25.02,0 -45.42,20.41 -45.42,45.42 0,25.02 20.41,45.42 45.42,45.42 25.02,0 45.42,-20.41 45.42,-45.42z"/>
    <path class="fil3" d="M7538.25 8391.11c0,-25.14 -20.51,-45.65 -45.65,-45.65 -25.14,0 -45.65,20.51 -45.65,45.65 0,25.14 20.51,45.65 45.65,45.65 25.14,0 45.65,-20.51 45.65,-45.65z"/>
    <path class="fil2" d="M16498.1 3279.77c0,-25.02 -20.41,-45.42 -45.42,-45.42 -25.02,0 -45.42,20.41 -45.42,45.42 0,25.02 20.41,45.42 45.42,45.42 25.02,0 45.42,-20.41 45.42,-45.42z"/>
    <path class="fil2" d="M16498.1 3632.5c0,-25.02 -20.41,-45.42 -45.42,-45.42 -25.02,0 -45.42,20.41 -45.42,45.42 0,25.02 20.41,45.42 45.42,45.42 25.02,0 45.42,-20.41 45.42,-45.42z"/>
    <path class="fil2" d="M16498.1 3985.01c0,-25.02 -20.41,-45.42 -45.42,-45.42 -25.02,0 -45.42,20.41 -45.42,45.42 0,25.02 20.41,45.42 45.42,45.42 25.02,0 45.42,-20.41 45.42,-45.42z"/>
    <path class="fil2" d="M16498.1 4337.74c0,-25.02 -20.41,-45.42 -45.42,-45.42 -25.02,0 -45.42,20.41 -45.42,45.42 0,25.02 20.41,45.42 45.42,45.42 25.02,0 45.42,-20.41 45.42,-45.42z"/>
    <line class="fil1 str43" x1="10946.79" y1="370.9" x2="11261.15" y2= "370.9" />
    <line class="fil1 str43" x1="11103.98" y1="528.07" x2="11103.98" y2= "213.95" />
    <line class="fil1 str43" x1="3110.78" y1="8300.04" x2="3425.13" y2= "8300.04" />
    <line class="fil1 str43" x1="3267.96" y1="8457.22" x2="3267.96" y2= "8143.1" />
    <line class="fil1 str43" x1="14446.66" y1="7802.63" x2="14760.78" y2= "7802.63" />
    <line class="fil1 str43" x1="14603.6" y1="7959.8" x2="14603.6" y2= "7645.45" />
    <line class="fil1 str43" x1="3110.78" y1="723.64" x2="3425.13" y2= "723.64" />
    <line class="fil1 str43" x1="3267.96" y1="880.58" x2="3267.96" y2= "566.46" />
    <line class="fil1 str43" x1="15693.83" y1="4316.16" x2="16008.18" y2= "4316.16" />
    <line class="fil1 str43" x1="15851.01" y1="4473.34" x2="15851.01" y2= "4158.99" />
    <line class="fil1 str43" x1="640.5" y1="1847.94" x2="954.63" y2= "1847.94" />
    <line class="fil1 str43" x1="797.45" y1="2005.11" x2="797.45" y2= "1690.99" />
    <polygon class="fil3" points="629.83,3770.83 511.72,3975.24 747.71,3975.24 "/>
    <polygon class="fil3" points="17046.62,4747.49 16928.52,4951.9 17046.62,4951.9 "/>
    <polygon class="fil3" points="11.81,1864.44 79.95,1903.8 79.95,1667.82 11.81,1707.11 "/>
    <polygon class="fil3" points="15830.11,8177.16 15625.69,8059.05 15625.69,8295.04 "/>
    <polygon class="fil3" points="14961.33,1366.18 15165.75,1484.3 15165.75,1248.31 "/>
    <polygon class="fil3" points="5071.83,-10.22 5276.25,107.66 5276.25,-77.9 5188.97,-77.9 "/>
    <polygon class="fil3" points="7094.43,9198.12 7212.54,8993.7 6976.32,8993.7 "/>
    <polygon class="fil3" points="1870.42,9061.84 1666,8943.96 1666,9179.95 "/>
   </g>
  </g>
  <polygon class="fil4" points="-0,9194.02 17074.56,9194.02 17074.56,0 -0,0 "/>
 </g>
</svg>
