<?xml version="1.0" encoding="UTF-8"?>
<!DOCTYPE svg PUBLIC "-//W3C//DTD SVG 1.1//EN" "http://www.w3.org/Graphics/SVG/1.1/DTD/svg11.dtd">
<!-- Creator: CorelDRAW 2021.5 -->
<svg xmlns="http://www.w3.org/2000/svg" xml:space="preserve" width="408.44mm" height="94.0724mm" version="1.1" style="shape-rendering:geometricPrecision; text-rendering:geometricPrecision; image-rendering:optimizeQuality; fill-rule:evenodd; clip-rule:evenodd"
viewBox="0 0 10345.69 2382.83"
 xmlns:xlink="http://www.w3.org/1999/xlink"
 xmlns:xodm="http://www.corel.com/coreldraw/odm/2003">
 <defs>
  <style type="text/css">
   <![CDATA[
    .fil0 {fill:#E6E7E8}
   ]]>
  </style>
 </defs>
 <g id="Layer_x0020_1">
  <metadata id="CorelCorpID_0Corel-Layer"/>
  <g id="_2254617028848">
   <g>
    <g>
     <g>
      <path class="fil0" d="M9674.84 1831.74c25.63,39.31 57.29,80.75 84.42,119.01 4.52,6.38 7.54,10.63 15.07,13.81 12.06,4.25 101,4.25 113.06,1.06 15.08,-4.25 25.63,-21.25 15.08,-37.19 -18.09,-28.69 -99.5,-139.2 -122.11,-171.07l-72.36 -102.01c-7.54,-11.69 -13.57,-24.44 -36.18,-23.38 -22.61,0 -40.7,32.94 -57.29,58.44l-170.35 239.08c-10.55,17 1.51,31.88 15.07,36.13 12.06,3.19 102.51,3.19 113.07,-1.06 15.07,-6.38 63.31,-80.75 76.88,-98.82l25.63 -34z"/>
      <path class="fil0" d="M10319.94 2173.89l-70.85 -99.88c-7.54,-11.69 -16.58,-26.56 -28.64,-32.94 -10.55,-5.31 -97.99,-5.31 -111.56,-2.13 -16.58,3.19 -28.64,17 -19.6,35.06l171.86 240.14c22.61,31.87 33.17,58.44 58.8,59.5 13.21,0 20.25,-5.31 25.75,-12.35l0 -222.65 -0.12 0.17c-7.54,10.63 -16.58,25.5 -25.63,35.07z"/>
      <path class="fil0" d="M10338.03 1840.24c2.24,1.58 4.89,4.48 7.66,7.97l0 -207.1c-2.34,-0.41 -4.88,-0.63 -7.66,-0.63 -21.11,0 -25.63,12.75 -33.17,24.44l-122.11 170.01c-16.58,22.31 -33.17,45.69 -48.24,69.07 -12.06,17 -49.75,54.19 -12.06,69.07 10.55,4.25 102.51,4.25 114.57,1.06 13.57,-4.25 42.21,-49.94 52.76,-64.82 16.58,-24.44 34.67,-45.69 48.24,-69.07z"/>
      <path class="fil0" d="M9655.24 2172.83c-21.1,-18.06 -81.4,-125.38 -101,-132.82 -10.55,-4.25 -102.51,-4.25 -114.57,-1.06 -12.06,4.25 -24.12,19.13 -15.07,35.06l195.98 275.21c7.54,11.69 15.07,23.38 34.67,23.38 19.6,0 24.12,-10.63 33.17,-22.32l195.98 -274.14c7.54,-14.88 1.51,-30.81 -13.57,-36.13 -9.05,-3.19 -102.51,-3.19 -113.06,0 -16.58,5.31 -63.32,78.63 -76.89,97.76 -9.05,11.69 -16.58,23.38 -25.63,35.06z"/>
      <path class="fil0" d="M9988.22 2247.21c22.61,22.31 79.9,125.38 101,132.82 10.55,3.19 102.51,4.25 113.06,0 13.57,-4.25 24.12,-18.06 15.08,-34 -6.03,-10.62 -16.58,-24.44 -24.12,-35.06l-170.35 -240.14c-21.11,-31.88 -46.73,-34 -69.35,-1.06l-72.36 103.07c-33.16,45.69 -64.82,91.38 -97.99,137.07 -7.54,11.69 -18.09,23.38 -24.12,34 -9.05,14.88 -1.51,30.82 13.57,36.13 9.05,3.19 101,3.19 111.56,0 15.07,-4.25 19.6,-17 28.64,-29.75 9.05,-12.75 16.58,-22.31 25.63,-34 7.54,-12.75 15.08,-23.38 24.12,-34 7.54,-11.69 16.58,-26.56 25.63,-35.06z"/>
      <path class="fil0" d="M10010.11 1766.92c-7.54,-9.56 -15.07,-22.31 -24.12,-32.94l-48.24 -68c-6.03,-10.63 -16.58,-27.63 -27.14,-31.88 -12.06,-4.25 -101,-4.25 -113.07,-1.06 -13.57,4.25 -25.63,18.07 -16.58,34l194.47 274.14c9.05,12.75 13.57,25.5 34.67,25.5 21.11,1.06 27.14,-11.69 34.67,-23.38l73.87 -103.07c16.58,-22.32 31.66,-44.63 48.24,-66.94l72.36 -103.07c12.06,-15.94 1.51,-30.82 -12.06,-36.13 -10.55,-4.25 -102.51,-4.25 -114.57,0 -13.57,4.25 -42.21,49.94 -52.76,64.82 -7.54,11.69 -15.08,22.31 -24.12,34 -4.52,6.38 -19.6,29.75 -25.63,34z"/>
      <path class="fil0" d="M9322.31 2247.21c22.61,22.31 79.9,125.38 101,132.82 10.55,3.19 102.51,4.25 113.06,0 13.57,-4.25 24.12,-18.06 15.08,-34 -6.03,-10.62 -16.58,-24.44 -24.12,-35.06l-170.35 -240.14c-21.11,-31.88 -46.73,-34 -69.35,-1.06l-72.36 103.07c-33.16,45.69 -64.82,91.38 -97.99,137.07 -7.54,11.69 -18.09,23.38 -24.12,34 -9.05,14.88 -1.51,30.82 13.57,36.13 9.05,3.19 101,3.19 111.56,0 15.07,-4.25 19.6,-17 28.64,-29.75 9.05,-12.75 16.58,-22.31 25.63,-34 7.54,-12.75 15.08,-23.38 24.12,-34 7.54,-11.69 16.58,-26.56 25.63,-35.06z"/>
      <path class="fil0" d="M9339.13 1766.92c-7.54,-9.56 -15.07,-22.31 -24.12,-32.94l-48.24 -68c-6.03,-10.63 -16.58,-27.63 -27.14,-31.88 -12.06,-4.25 -101,-4.25 -113.07,-1.06 -13.57,4.25 -25.63,18.07 -16.58,34l194.47 274.14c9.05,12.75 13.57,25.5 34.67,25.5 21.11,1.06 27.14,-11.69 34.67,-23.38l73.87 -103.07c16.58,-22.32 31.66,-44.63 48.24,-66.94l72.36 -103.07c12.06,-15.94 1.51,-30.82 -12.06,-36.13 -10.55,-4.25 -102.51,-4.25 -114.57,0 -13.57,4.25 -42.21,49.94 -52.76,64.82 -7.54,11.69 -15.08,22.31 -24.12,34 -4.52,6.38 -19.6,29.75 -25.63,34z"/>
     </g>
     <g>
      <path class="fil0" d="M8344.04 1831.74c25.63,39.31 57.29,80.75 84.42,119.01 4.52,6.38 7.54,10.63 15.07,13.81 12.06,4.25 101,4.25 113.06,1.06 15.08,-4.25 25.63,-21.25 15.08,-37.19 -18.09,-28.69 -99.5,-139.2 -122.11,-171.07l-72.36 -102.01c-7.54,-11.69 -13.57,-24.44 -36.18,-23.38 -22.61,0 -40.7,32.94 -57.29,58.44l-170.35 239.08c-10.55,17 1.51,31.88 15.07,36.13 12.06,3.19 102.51,3.19 113.07,-1.06 15.07,-6.38 63.31,-80.75 76.88,-98.82l25.63 -34z"/>
      <path class="fil0" d="M8989.14 2173.89l-70.85 -99.88c-7.54,-11.69 -16.58,-26.56 -28.64,-32.94 -10.55,-5.31 -97.99,-5.31 -111.56,-2.13 -16.58,3.19 -28.64,17 -19.6,35.06l171.86 240.14c22.61,31.87 33.17,58.44 58.8,59.5 19.6,0 25.63,-11.69 33.16,-23.38 9.05,-10.62 16.58,-21.25 24.12,-32.94 16.58,-24.44 33.16,-46.75 49.75,-69.07 36.18,-54.19 88.95,-122.2 122.11,-172.14 10.55,-17 1.51,-30.81 -13.57,-36.13 -10.55,-4.25 -102.51,-4.25 -113.06,0 -13.57,4.25 -19.6,18.07 -28.64,29.75 -7.54,11.69 -16.58,24.44 -24.12,35.06 -9.05,11.69 -15.08,21.25 -24.12,34 -7.54,10.63 -16.58,25.5 -25.63,35.07z"/>
      <path class="fil0" d="M9007.23 1840.24c7.54,5.31 19.6,25.5 25.63,32.94 13.57,20.19 63.32,94.57 75.38,99.88 10.55,4.25 99.5,4.25 113.06,1.06 15.07,-3.19 25.63,-17 16.58,-34 -4.52,-9.56 -18.09,-26.56 -24.12,-35.06 -16.58,-22.32 -31.66,-44.63 -48.24,-68.01l-122.11 -172.14c-7.54,-11.69 -15.08,-24.44 -36.18,-24.44 -21.11,0 -25.63,12.75 -33.17,24.44l-122.11 170.01c-16.58,22.31 -33.17,45.69 -48.24,69.07 -12.06,17 -49.75,54.19 -12.06,69.07 10.55,4.25 102.51,4.25 114.57,1.06 13.57,-4.25 42.21,-49.94 52.76,-64.82 16.58,-24.44 34.67,-45.69 48.24,-69.07z"/>
      <path class="fil0" d="M8324.44 2172.83c-21.1,-18.06 -81.4,-125.38 -101,-132.82 -10.55,-4.25 -102.51,-4.25 -114.57,-1.06 -12.06,4.25 -24.12,19.13 -15.07,35.06l195.98 275.21c7.54,11.69 15.07,23.38 34.67,23.38 19.6,0 24.12,-10.63 33.17,-22.32l195.98 -274.14c7.54,-14.88 1.51,-30.81 -13.57,-36.13 -9.05,-3.19 -102.51,-3.19 -113.06,0 -16.58,5.31 -63.32,78.63 -76.89,97.76 -9.05,11.69 -16.58,23.38 -25.63,35.06z"/>
      <path class="fil0" d="M8657.42 2247.21c22.61,22.31 79.9,125.38 101,132.82 10.55,3.19 102.51,4.25 113.06,0 13.57,-4.25 24.12,-18.06 15.08,-34 -6.03,-10.62 -16.58,-24.44 -24.12,-35.06l-170.35 -240.14c-21.11,-31.88 -46.73,-34 -69.35,-1.06l-72.36 103.07c-33.16,45.69 -64.82,91.38 -97.99,137.07 -7.54,11.69 -18.09,23.38 -24.12,34 -9.05,14.88 -1.51,30.82 13.57,36.13 9.05,3.19 101,3.19 111.56,0 15.07,-4.25 19.6,-17 28.64,-29.75 9.05,-12.75 16.58,-22.31 25.63,-34 7.54,-12.75 15.08,-23.38 24.12,-34 7.54,-11.69 16.58,-26.56 25.63,-35.06z"/>
      <path class="fil0" d="M8679.31 1766.92c-7.54,-9.56 -15.07,-22.31 -24.12,-32.94l-48.24 -68c-6.03,-10.63 -16.58,-27.63 -27.14,-31.88 -12.06,-4.25 -101,-4.25 -113.07,-1.06 -13.57,4.25 -25.63,18.07 -16.58,34l194.47 274.14c9.05,12.75 13.57,25.5 34.67,25.5 21.11,1.06 27.14,-11.69 34.67,-23.38l73.87 -103.07c16.58,-22.32 31.66,-44.63 48.24,-66.94l72.36 -103.07c12.06,-15.94 1.51,-30.82 -12.06,-36.13 -10.55,-4.25 -102.51,-4.25 -114.57,0 -13.57,4.25 -42.21,49.94 -52.76,64.82 -7.54,11.69 -15.08,22.31 -24.12,34 -4.52,6.38 -19.6,29.75 -25.63,34z"/>
      <path class="fil0" d="M7991.51 2247.21c22.61,22.31 79.9,125.38 101,132.82 10.55,3.19 102.51,4.25 113.06,0 13.57,-4.25 24.12,-18.06 15.08,-34 -6.03,-10.62 -16.58,-24.44 -24.12,-35.06l-170.35 -240.14c-21.11,-31.88 -46.73,-34 -69.35,-1.06l-72.36 103.07c-33.16,45.69 -64.82,91.38 -97.99,137.07 -7.54,11.69 -18.09,23.38 -24.12,34 -9.05,14.88 -1.51,30.82 13.57,36.13 9.05,3.19 101,3.19 111.56,0 15.07,-4.25 19.6,-17 28.64,-29.75 9.05,-12.75 16.58,-22.31 25.63,-34 7.54,-12.75 15.08,-23.38 24.12,-34 7.54,-11.69 16.58,-26.56 25.63,-35.06z"/>
      <path class="fil0" d="M8008.33 1766.92c-7.54,-9.56 -15.07,-22.31 -24.12,-32.94l-48.24 -68c-6.03,-10.63 -16.58,-27.63 -27.14,-31.88 -12.06,-4.25 -101,-4.25 -113.07,-1.06 -13.57,4.25 -25.63,18.07 -16.58,34l194.47 274.14c9.05,12.75 13.57,25.5 34.67,25.5 21.11,1.06 27.14,-11.69 34.67,-23.38l73.87 -103.07c16.58,-22.32 31.66,-44.63 48.24,-66.94l72.36 -103.07c12.06,-15.94 1.51,-30.82 -12.06,-36.13 -10.55,-4.25 -102.51,-4.25 -114.57,0 -13.57,4.25 -42.21,49.94 -52.76,64.82 -7.54,11.69 -15.08,22.31 -24.12,34 -4.52,6.38 -19.6,29.75 -25.63,34z"/>
     </g>
     <g>
      <path class="fil0" d="M7013.24 1831.74c25.63,39.31 57.29,80.75 84.42,119.01 4.52,6.38 7.54,10.63 15.07,13.81 12.06,4.25 101,4.25 113.06,1.06 15.08,-4.25 25.63,-21.25 15.08,-37.19 -18.09,-28.69 -99.5,-139.2 -122.11,-171.07l-72.36 -102.01c-7.54,-11.69 -13.57,-24.44 -36.18,-23.38 -22.61,0 -40.7,32.94 -57.29,58.44l-170.35 239.08c-10.55,17 1.51,31.88 15.07,36.13 12.06,3.19 102.51,3.19 113.07,-1.06 15.07,-6.38 63.31,-80.75 76.88,-98.82l25.63 -34z"/>
      <path class="fil0" d="M7658.34 2173.89l-70.85 -99.88c-7.54,-11.69 -16.58,-26.56 -28.64,-32.94 -10.55,-5.31 -97.99,-5.31 -111.56,-2.13 -16.58,3.19 -28.64,17 -19.6,35.06l171.86 240.14c22.61,31.87 33.17,58.44 58.8,59.5 19.6,0 25.63,-11.69 33.16,-23.38 9.05,-10.62 16.58,-21.25 24.12,-32.94 16.58,-24.44 33.16,-46.75 49.75,-69.07 36.18,-54.19 88.95,-122.2 122.11,-172.14 10.55,-17 1.51,-30.81 -13.57,-36.13 -10.55,-4.25 -102.51,-4.25 -113.06,0 -13.57,4.25 -19.6,18.07 -28.64,29.75 -7.54,11.69 -16.58,24.44 -24.12,35.06 -9.05,11.69 -15.08,21.25 -24.12,34 -7.54,10.63 -16.58,25.5 -25.63,35.07z"/>
      <path class="fil0" d="M7676.43 1840.24c7.54,5.31 19.6,25.5 25.63,32.94 13.57,20.19 63.32,94.57 75.38,99.88 10.55,4.25 99.5,4.25 113.06,1.06 15.07,-3.19 25.63,-17 16.58,-34 -4.52,-9.56 -18.09,-26.56 -24.12,-35.06 -16.58,-22.32 -31.66,-44.63 -48.24,-68.01l-122.11 -172.14c-7.54,-11.69 -15.08,-24.44 -36.18,-24.44 -21.11,0 -25.63,12.75 -33.17,24.44l-122.11 170.01c-16.58,22.31 -33.17,45.69 -48.24,69.07 -12.06,17 -49.75,54.19 -12.06,69.07 10.55,4.25 102.51,4.25 114.57,1.06 13.57,-4.25 42.21,-49.94 52.76,-64.82 16.58,-24.44 34.67,-45.69 48.24,-69.07z"/>
      <path class="fil0" d="M6993.64 2172.83c-21.1,-18.06 -81.4,-125.38 -101,-132.82 -10.55,-4.25 -102.51,-4.25 -114.57,-1.06 -12.06,4.25 -24.12,19.13 -15.07,35.06l195.98 275.21c7.54,11.69 15.07,23.38 34.67,23.38 19.6,0 24.12,-10.63 33.17,-22.32l195.98 -274.14c7.54,-14.88 1.51,-30.81 -13.57,-36.13 -9.05,-3.19 -102.51,-3.19 -113.06,0 -16.58,5.31 -63.32,78.63 -76.89,97.76 -9.05,11.69 -16.58,23.38 -25.63,35.06z"/>
      <path class="fil0" d="M7326.62 2247.21c22.61,22.31 79.9,125.38 101,132.82 10.55,3.19 102.51,4.25 113.06,0 13.57,-4.25 24.12,-18.06 15.08,-34 -6.03,-10.62 -16.58,-24.44 -24.12,-35.06l-170.35 -240.14c-21.11,-31.88 -46.73,-34 -69.35,-1.06l-72.36 103.07c-33.16,45.69 -64.82,91.38 -97.99,137.07 -7.54,11.69 -18.09,23.38 -24.12,34 -9.05,14.88 -1.51,30.82 13.57,36.13 9.05,3.19 101,3.19 111.56,0 15.07,-4.25 19.6,-17 28.64,-29.75 9.05,-12.75 16.58,-22.31 25.63,-34 7.54,-12.75 15.08,-23.38 24.12,-34 7.54,-11.69 16.58,-26.56 25.63,-35.06z"/>
      <path class="fil0" d="M7348.52 1766.92c-7.54,-9.56 -15.07,-22.31 -24.12,-32.94l-48.24 -68c-6.03,-10.63 -16.58,-27.63 -27.14,-31.88 -12.06,-4.25 -101,-4.25 -113.07,-1.06 -13.57,4.25 -25.63,18.07 -16.58,34l194.47 274.14c9.05,12.75 13.57,25.5 34.67,25.5 21.11,1.06 27.14,-11.69 34.67,-23.38l73.87 -103.07c16.58,-22.32 31.66,-44.63 48.24,-66.94l72.36 -103.07c12.06,-15.94 1.51,-30.82 -12.06,-36.13 -10.55,-4.25 -102.51,-4.25 -114.57,0 -13.57,4.25 -42.21,49.94 -52.76,64.82 -7.54,11.69 -15.08,22.31 -24.12,34 -4.52,6.38 -19.6,29.75 -25.63,34z"/>
      <path class="fil0" d="M6660.71 2247.21c22.61,22.31 79.9,125.38 101,132.82 10.55,3.19 102.51,4.25 113.06,0 13.57,-4.25 24.12,-18.06 15.08,-34 -6.03,-10.62 -16.58,-24.44 -24.12,-35.06l-170.35 -240.14c-21.11,-31.88 -46.73,-34 -69.35,-1.06l-72.36 103.07c-33.16,45.69 -64.82,91.38 -97.99,137.07 -7.54,11.69 -18.09,23.38 -24.12,34 -9.05,14.88 -1.51,30.82 13.57,36.13 9.05,3.19 101,3.19 111.56,0 15.07,-4.25 19.6,-17 28.64,-29.75 9.05,-12.75 16.58,-22.31 25.63,-34 7.54,-12.75 15.08,-23.38 24.12,-34 7.54,-11.69 16.58,-26.56 25.63,-35.06z"/>
      <path class="fil0" d="M6677.54 1766.92c-7.54,-9.56 -15.07,-22.31 -24.12,-32.94l-48.24 -68c-6.03,-10.63 -16.58,-27.63 -27.14,-31.88 -12.06,-4.25 -101,-4.25 -113.07,-1.06 -13.57,4.25 -25.63,18.07 -16.58,34l194.47 274.14c9.05,12.75 13.57,25.5 34.67,25.5 21.11,1.06 27.14,-11.69 34.67,-23.38l73.87 -103.07c16.58,-22.32 31.66,-44.63 48.24,-66.94l72.36 -103.07c12.06,-15.94 1.51,-30.82 -12.06,-36.13 -10.55,-4.25 -102.51,-4.25 -114.57,0 -13.57,4.25 -42.21,49.94 -52.76,64.82 -7.54,11.69 -15.08,22.31 -24.12,34 -4.52,6.38 -19.6,29.75 -25.63,34z"/>
     </g>
     <g>
      <path class="fil0" d="M5682.44 1831.74c25.63,39.31 57.29,80.75 84.42,119.01 4.52,6.38 7.54,10.63 15.07,13.81 12.06,4.25 101,4.25 113.06,1.06 15.08,-4.25 25.63,-21.25 15.08,-37.19 -18.09,-28.69 -99.5,-139.2 -122.11,-171.07l-72.36 -102.01c-7.54,-11.69 -13.57,-24.44 -36.18,-23.38 -22.61,0 -40.7,32.94 -57.29,58.44l-170.35 239.08c-10.55,17 1.51,31.88 15.07,36.13 12.06,3.19 102.51,3.19 113.07,-1.06 15.07,-6.38 63.31,-80.75 76.88,-98.82l25.63 -34z"/>
      <path class="fil0" d="M6327.54 2173.89l-70.85 -99.88c-7.54,-11.69 -16.58,-26.56 -28.64,-32.94 -10.55,-5.31 -97.99,-5.31 -111.56,-2.13 -16.58,3.19 -28.64,17 -19.6,35.06l171.86 240.14c22.61,31.87 33.17,58.44 58.8,59.5 19.6,0 25.63,-11.69 33.16,-23.38 9.05,-10.62 16.58,-21.25 24.12,-32.94 16.58,-24.44 33.16,-46.75 49.75,-69.07 36.18,-54.19 88.95,-122.2 122.11,-172.14 10.55,-17 1.51,-30.81 -13.57,-36.13 -10.55,-4.25 -102.51,-4.25 -113.06,0 -13.57,4.25 -19.6,18.07 -28.64,29.75 -7.54,11.69 -16.58,24.44 -24.12,35.06 -9.05,11.69 -15.08,21.25 -24.12,34 -7.54,10.63 -16.58,25.5 -25.63,35.07z"/>
      <path class="fil0" d="M6345.63 1840.24c7.54,5.31 19.6,25.5 25.63,32.94 13.57,20.19 63.32,94.57 75.38,99.88 10.55,4.25 99.5,4.25 113.06,1.06 15.07,-3.19 25.63,-17 16.58,-34 -4.52,-9.56 -18.09,-26.56 -24.12,-35.06 -16.58,-22.32 -31.66,-44.63 -48.24,-68.01l-122.11 -172.14c-7.54,-11.69 -15.08,-24.44 -36.18,-24.44 -21.11,0 -25.63,12.75 -33.17,24.44l-122.11 170.01c-16.58,22.31 -33.17,45.69 -48.24,69.07 -12.06,17 -49.75,54.19 -12.06,69.07 10.55,4.25 102.51,4.25 114.57,1.06 13.57,-4.25 42.21,-49.94 52.76,-64.82 16.58,-24.44 34.67,-45.69 48.24,-69.07z"/>
      <path class="fil0" d="M5662.84 2172.83c-21.1,-18.06 -81.4,-125.38 -101,-132.82 -10.55,-4.25 -102.51,-4.25 -114.57,-1.06 -12.06,4.25 -24.12,19.13 -15.07,35.06l195.98 275.21c7.54,11.69 15.07,23.38 34.67,23.38 19.6,0 24.12,-10.63 33.17,-22.32l195.98 -274.14c7.54,-14.88 1.51,-30.81 -13.57,-36.13 -9.05,-3.19 -102.51,-3.19 -113.06,0 -16.58,5.31 -63.32,78.63 -76.89,97.76 -9.05,11.69 -16.58,23.38 -25.63,35.06z"/>
      <path class="fil0" d="M5995.82 2247.21c22.61,22.31 79.9,125.38 101,132.82 10.55,3.19 102.51,4.25 113.06,0 13.57,-4.25 24.12,-18.06 15.08,-34 -6.03,-10.62 -16.58,-24.44 -24.12,-35.06l-170.35 -240.14c-21.11,-31.88 -46.73,-34 -69.35,-1.06l-72.36 103.07c-33.16,45.69 -64.82,91.38 -97.99,137.07 -7.54,11.69 -18.09,23.38 -24.12,34 -9.05,14.88 -1.51,30.82 13.57,36.13 9.05,3.19 101,3.19 111.56,0 15.07,-4.25 19.6,-17 28.64,-29.75 9.05,-12.75 16.58,-22.31 25.63,-34 7.54,-12.75 15.08,-23.38 24.12,-34 7.54,-11.69 16.58,-26.56 25.63,-35.06z"/>
      <path class="fil0" d="M6017.72 1766.92c-7.54,-9.56 -15.07,-22.31 -24.12,-32.94l-48.24 -68c-6.03,-10.63 -16.58,-27.63 -27.14,-31.88 -12.06,-4.25 -101,-4.25 -113.07,-1.06 -13.57,4.25 -25.63,18.07 -16.58,34l194.47 274.14c9.05,12.75 13.57,25.5 34.67,25.5 21.11,1.06 27.14,-11.69 34.67,-23.38l73.87 -103.07c16.58,-22.32 31.66,-44.63 48.24,-66.94l72.36 -103.07c12.06,-15.94 1.51,-30.82 -12.06,-36.13 -10.55,-4.25 -102.51,-4.25 -114.57,0 -13.57,4.25 -42.21,49.94 -52.76,64.82 -7.54,11.69 -15.08,22.31 -24.12,34 -4.52,6.38 -19.6,29.75 -25.63,34z"/>
      <path class="fil0" d="M5329.91 2247.21c22.61,22.31 79.9,125.38 101,132.82 10.55,3.19 102.51,4.25 113.06,0 13.57,-4.25 24.12,-18.06 15.08,-34 -6.03,-10.62 -16.58,-24.44 -24.12,-35.06l-170.35 -240.14c-21.11,-31.88 -46.73,-34 -69.35,-1.06l-72.36 103.07c-33.16,45.69 -64.82,91.38 -97.99,137.07 -7.54,11.69 -18.09,23.38 -24.12,34 -9.05,14.88 -1.51,30.82 13.57,36.13 9.05,3.19 101,3.19 111.56,0 15.07,-4.25 19.6,-17 28.64,-29.75 9.05,-12.75 16.58,-22.31 25.63,-34 7.54,-12.75 15.08,-23.38 24.12,-34 7.54,-11.69 16.58,-26.56 25.63,-35.06z"/>
      <path class="fil0" d="M5346.74 1766.92c-7.54,-9.56 -15.07,-22.31 -24.12,-32.94l-48.24 -68c-6.03,-10.63 -16.58,-27.63 -27.14,-31.88 -12.06,-4.25 -101,-4.25 -113.07,-1.06 -13.57,4.25 -25.63,18.07 -16.58,34l194.47 274.14c9.05,12.75 13.57,25.5 34.67,25.5 21.11,1.06 27.14,-11.69 34.67,-23.38l73.87 -103.07c16.58,-22.32 31.66,-44.63 48.24,-66.94l72.36 -103.07c12.06,-15.94 1.51,-30.82 -12.06,-36.13 -10.55,-4.25 -102.51,-4.25 -114.57,0 -13.57,4.25 -42.21,49.94 -52.76,64.82 -7.54,11.69 -15.08,22.31 -24.12,34 -4.52,6.38 -19.6,29.75 -25.63,34z"/>
     </g>
    </g>
    <g>
     <g>
      <path class="fil0" d="M9674.84 1016.36c25.63,39.31 57.29,80.75 84.42,119.01 4.52,6.38 7.54,10.63 15.07,13.81 12.06,4.25 101,4.25 113.06,1.06 15.08,-4.25 25.63,-21.25 15.08,-37.19 -18.09,-28.69 -99.5,-139.2 -122.11,-171.07l-72.36 -102.01c-7.54,-11.69 -13.57,-24.44 -36.18,-23.38 -22.61,0 -40.7,32.94 -57.29,58.44l-170.35 239.08c-10.55,17 1.51,31.88 15.07,36.13 12.06,3.19 102.51,3.19 113.07,-1.06 15.07,-6.38 63.31,-80.75 76.88,-98.82l25.63 -34z"/>
      <path class="fil0" d="M10319.94 1358.51l-70.85 -99.88c-7.54,-11.69 -16.58,-26.56 -28.64,-32.94 -10.55,-5.31 -97.99,-5.31 -111.56,-2.13 -16.58,3.19 -28.64,17 -19.6,35.06l171.86 240.14c22.61,31.87 33.17,58.44 58.8,59.5 13.21,0 20.25,-5.31 25.75,-12.35l0 -222.65 -0.12 0.17c-7.54,10.63 -16.58,25.5 -25.63,35.07z"/>
      <path class="fil0" d="M10338.03 1024.86c2.24,1.58 4.89,4.48 7.66,7.97l0 -207.1c-2.34,-0.41 -4.88,-0.63 -7.66,-0.63 -21.11,0 -25.63,12.75 -33.17,24.44l-122.11 170.01c-16.58,22.31 -33.17,45.69 -48.24,69.07 -12.06,17 -49.75,54.19 -12.06,69.07 10.55,4.25 102.51,4.25 114.57,1.06 13.57,-4.25 42.21,-49.94 52.76,-64.82 16.58,-24.44 34.67,-45.69 48.24,-69.07z"/>
      <path class="fil0" d="M9655.24 1357.44c-21.1,-18.06 -81.4,-125.38 -101,-132.82 -10.55,-4.25 -102.51,-4.25 -114.57,-1.06 -12.06,4.25 -24.12,19.13 -15.07,35.06l195.98 275.21c7.54,11.69 15.07,23.38 34.67,23.38 19.6,0 24.12,-10.63 33.17,-22.32l195.98 -274.14c7.54,-14.88 1.51,-30.81 -13.57,-36.13 -9.05,-3.19 -102.51,-3.19 -113.06,0 -16.58,5.31 -63.32,78.63 -76.89,97.76 -9.05,11.69 -16.58,23.38 -25.63,35.06z"/>
      <path class="fil0" d="M9988.22 1431.82c22.61,22.31 79.9,125.38 101,132.82 10.55,3.19 102.51,4.25 113.06,0 13.57,-4.25 24.12,-18.06 15.08,-34 -6.03,-10.62 -16.58,-24.44 -24.12,-35.06l-170.35 -240.14c-21.11,-31.88 -46.73,-34 -69.35,-1.06l-72.36 103.07c-33.16,45.69 -64.82,91.38 -97.99,137.07 -7.54,11.69 -18.09,23.38 -24.12,34 -9.05,14.88 -1.51,30.82 13.57,36.13 9.05,3.19 101,3.19 111.56,0 15.07,-4.25 19.6,-17 28.64,-29.75 9.05,-12.75 16.58,-22.31 25.63,-34 7.54,-12.75 15.08,-23.38 24.12,-34 7.54,-11.69 16.58,-26.56 25.63,-35.06z"/>
      <path class="fil0" d="M10010.11 951.54c-7.54,-9.56 -15.07,-22.31 -24.12,-32.94l-48.24 -68c-6.03,-10.63 -16.58,-27.63 -27.14,-31.88 -12.06,-4.25 -101,-4.25 -113.07,-1.06 -13.57,4.25 -25.63,18.07 -16.58,34l194.47 274.14c9.05,12.75 13.57,25.5 34.67,25.5 21.11,1.06 27.14,-11.69 34.67,-23.38l73.87 -103.07c16.58,-22.32 31.66,-44.63 48.24,-66.94l72.36 -103.07c12.06,-15.94 1.51,-30.82 -12.06,-36.13 -10.55,-4.25 -102.51,-4.25 -114.57,0 -13.57,4.25 -42.21,49.94 -52.76,64.82 -7.54,11.69 -15.08,22.31 -24.12,34 -4.52,6.38 -19.6,29.75 -25.63,34z"/>
      <path class="fil0" d="M9322.31 1431.82c22.61,22.31 79.9,125.38 101,132.82 10.55,3.19 102.51,4.25 113.06,0 13.57,-4.25 24.12,-18.06 15.08,-34 -6.03,-10.62 -16.58,-24.44 -24.12,-35.06l-170.35 -240.14c-21.11,-31.88 -46.73,-34 -69.35,-1.06l-72.36 103.07c-33.16,45.69 -64.82,91.38 -97.99,137.07 -7.54,11.69 -18.09,23.38 -24.12,34 -9.05,14.88 -1.51,30.82 13.57,36.13 9.05,3.19 101,3.19 111.56,0 15.07,-4.25 19.6,-17 28.64,-29.75 9.05,-12.75 16.58,-22.31 25.63,-34 7.54,-12.75 15.08,-23.38 24.12,-34 7.54,-11.69 16.58,-26.56 25.63,-35.06z"/>
      <path class="fil0" d="M9339.13 951.54c-7.54,-9.56 -15.07,-22.31 -24.12,-32.94l-48.24 -68c-6.03,-10.63 -16.58,-27.63 -27.14,-31.88 -12.06,-4.25 -101,-4.25 -113.07,-1.06 -13.57,4.25 -25.63,18.07 -16.58,34l194.47 274.14c9.05,12.75 13.57,25.5 34.67,25.5 21.11,1.06 27.14,-11.69 34.67,-23.38l73.87 -103.07c16.58,-22.32 31.66,-44.63 48.24,-66.94l72.36 -103.07c12.06,-15.94 1.51,-30.82 -12.06,-36.13 -10.55,-4.25 -102.51,-4.25 -114.57,0 -13.57,4.25 -42.21,49.94 -52.76,64.82 -7.54,11.69 -15.08,22.31 -24.12,34 -4.52,6.38 -19.6,29.75 -25.63,34z"/>
     </g>
     <g>
      <path class="fil0" d="M8344.04 1016.36c25.63,39.31 57.29,80.75 84.42,119.01 4.52,6.38 7.54,10.63 15.07,13.81 12.06,4.25 101,4.25 113.06,1.06 15.08,-4.25 25.63,-21.25 15.08,-37.19 -18.09,-28.69 -99.5,-139.2 -122.11,-171.07l-72.36 -102.01c-7.54,-11.69 -13.57,-24.44 -36.18,-23.38 -22.61,0 -40.7,32.94 -57.29,58.44l-170.35 239.08c-10.55,17 1.51,31.88 15.07,36.13 12.06,3.19 102.51,3.19 113.07,-1.06 15.07,-6.38 63.31,-80.75 76.88,-98.82l25.63 -34z"/>
      <path class="fil0" d="M8989.14 1358.51l-70.85 -99.88c-7.54,-11.69 -16.58,-26.56 -28.64,-32.94 -10.55,-5.31 -97.99,-5.31 -111.56,-2.13 -16.58,3.19 -28.64,17 -19.6,35.06l171.86 240.14c22.61,31.87 33.17,58.44 58.8,59.5 19.6,0 25.63,-11.69 33.16,-23.38 9.05,-10.62 16.58,-21.25 24.12,-32.94 16.58,-24.44 33.16,-46.75 49.75,-69.07 36.18,-54.19 88.95,-122.2 122.11,-172.14 10.55,-17 1.51,-30.81 -13.57,-36.13 -10.55,-4.25 -102.51,-4.25 -113.06,0 -13.57,4.25 -19.6,18.07 -28.64,29.75 -7.54,11.69 -16.58,24.44 -24.12,35.06 -9.05,11.69 -15.08,21.25 -24.12,34 -7.54,10.63 -16.58,25.5 -25.63,35.07z"/>
      <path class="fil0" d="M9007.23 1024.86c7.54,5.31 19.6,25.5 25.63,32.94 13.57,20.19 63.32,94.57 75.38,99.88 10.55,4.25 99.5,4.25 113.06,1.06 15.07,-3.19 25.63,-17 16.58,-34 -4.52,-9.56 -18.09,-26.56 -24.12,-35.06 -16.58,-22.32 -31.66,-44.63 -48.24,-68.01l-122.11 -172.14c-7.54,-11.69 -15.08,-24.44 -36.18,-24.44 -21.11,0 -25.63,12.75 -33.17,24.44l-122.11 170.01c-16.58,22.31 -33.17,45.69 -48.24,69.07 -12.06,17 -49.75,54.19 -12.06,69.07 10.55,4.25 102.51,4.25 114.57,1.06 13.57,-4.25 42.21,-49.94 52.76,-64.82 16.58,-24.44 34.67,-45.69 48.24,-69.07z"/>
      <path class="fil0" d="M8324.44 1357.44c-21.1,-18.06 -81.4,-125.38 -101,-132.82 -10.55,-4.25 -102.51,-4.25 -114.57,-1.06 -12.06,4.25 -24.12,19.13 -15.07,35.06l195.98 275.21c7.54,11.69 15.07,23.38 34.67,23.38 19.6,0 24.12,-10.63 33.17,-22.32l195.98 -274.14c7.54,-14.88 1.51,-30.81 -13.57,-36.13 -9.05,-3.19 -102.51,-3.19 -113.06,0 -16.58,5.31 -63.32,78.63 -76.89,97.76 -9.05,11.69 -16.58,23.38 -25.63,35.06z"/>
      <path class="fil0" d="M8657.42 1431.82c22.61,22.31 79.9,125.38 101,132.82 10.55,3.19 102.51,4.25 113.06,0 13.57,-4.25 24.12,-18.06 15.08,-34 -6.03,-10.62 -16.58,-24.44 -24.12,-35.06l-170.35 -240.14c-21.11,-31.88 -46.73,-34 -69.35,-1.06l-72.36 103.07c-33.16,45.69 -64.82,91.38 -97.99,137.07 -7.54,11.69 -18.09,23.38 -24.12,34 -9.05,14.88 -1.51,30.82 13.57,36.13 9.05,3.19 101,3.19 111.56,0 15.07,-4.25 19.6,-17 28.64,-29.75 9.05,-12.75 16.58,-22.31 25.63,-34 7.54,-12.75 15.08,-23.38 24.12,-34 7.54,-11.69 16.58,-26.56 25.63,-35.06z"/>
      <path class="fil0" d="M8679.31 951.54c-7.54,-9.56 -15.07,-22.31 -24.12,-32.94l-48.24 -68c-6.03,-10.63 -16.58,-27.63 -27.14,-31.88 -12.06,-4.25 -101,-4.25 -113.07,-1.06 -13.57,4.25 -25.63,18.07 -16.58,34l194.47 274.14c9.05,12.75 13.57,25.5 34.67,25.5 21.11,1.06 27.14,-11.69 34.67,-23.38l73.87 -103.07c16.58,-22.32 31.66,-44.63 48.24,-66.94l72.36 -103.07c12.06,-15.94 1.51,-30.82 -12.06,-36.13 -10.55,-4.25 -102.51,-4.25 -114.57,0 -13.57,4.25 -42.21,49.94 -52.76,64.82 -7.54,11.69 -15.08,22.31 -24.12,34 -4.52,6.38 -19.6,29.75 -25.63,34z"/>
      <path class="fil0" d="M7991.51 1431.82c22.61,22.31 79.9,125.38 101,132.82 10.55,3.19 102.51,4.25 113.06,0 13.57,-4.25 24.12,-18.06 15.08,-34 -6.03,-10.62 -16.58,-24.44 -24.12,-35.06l-170.35 -240.14c-21.11,-31.88 -46.73,-34 -69.35,-1.06l-72.36 103.07c-33.16,45.69 -64.82,91.38 -97.99,137.07 -7.54,11.69 -18.09,23.38 -24.12,34 -9.05,14.88 -1.51,30.82 13.57,36.13 9.05,3.19 101,3.19 111.56,0 15.07,-4.25 19.6,-17 28.64,-29.75 9.05,-12.75 16.58,-22.31 25.63,-34 7.54,-12.75 15.08,-23.38 24.12,-34 7.54,-11.69 16.58,-26.56 25.63,-35.06z"/>
      <path class="fil0" d="M8008.33 951.54c-7.54,-9.56 -15.07,-22.31 -24.12,-32.94l-48.24 -68c-6.03,-10.63 -16.58,-27.63 -27.14,-31.88 -12.06,-4.25 -101,-4.25 -113.07,-1.06 -13.57,4.25 -25.63,18.07 -16.58,34l194.47 274.14c9.05,12.75 13.57,25.5 34.67,25.5 21.11,1.06 27.14,-11.69 34.67,-23.38l73.87 -103.07c16.58,-22.32 31.66,-44.63 48.24,-66.94l72.36 -103.07c12.06,-15.94 1.51,-30.82 -12.06,-36.13 -10.55,-4.25 -102.51,-4.25 -114.57,0 -13.57,4.25 -42.21,49.94 -52.76,64.82 -7.54,11.69 -15.08,22.31 -24.12,34 -4.52,6.38 -19.6,29.75 -25.63,34z"/>
     </g>
     <g>
      <path class="fil0" d="M7013.24 1016.36c25.63,39.31 57.29,80.75 84.42,119.01 4.52,6.38 7.54,10.63 15.07,13.81 12.06,4.25 101,4.25 113.06,1.06 15.08,-4.25 25.63,-21.25 15.08,-37.19 -18.09,-28.69 -99.5,-139.2 -122.11,-171.07l-72.36 -102.01c-7.54,-11.69 -13.57,-24.44 -36.18,-23.38 -22.61,0 -40.7,32.94 -57.29,58.44l-170.35 239.08c-10.55,17 1.51,31.88 15.07,36.13 12.06,3.19 102.51,3.19 113.07,-1.06 15.07,-6.38 63.31,-80.75 76.88,-98.82l25.63 -34z"/>
      <path class="fil0" d="M7658.34 1358.51l-70.85 -99.88c-7.54,-11.69 -16.58,-26.56 -28.64,-32.94 -10.55,-5.31 -97.99,-5.31 -111.56,-2.13 -16.58,3.19 -28.64,17 -19.6,35.06l171.86 240.14c22.61,31.87 33.17,58.44 58.8,59.5 19.6,0 25.63,-11.69 33.16,-23.38 9.05,-10.62 16.58,-21.25 24.12,-32.94 16.58,-24.44 33.16,-46.75 49.75,-69.07 36.18,-54.19 88.95,-122.2 122.11,-172.14 10.55,-17 1.51,-30.81 -13.57,-36.13 -10.55,-4.25 -102.51,-4.25 -113.06,0 -13.57,4.25 -19.6,18.07 -28.64,29.75 -7.54,11.69 -16.58,24.44 -24.12,35.06 -9.05,11.69 -15.08,21.25 -24.12,34 -7.54,10.63 -16.58,25.5 -25.63,35.07z"/>
      <path class="fil0" d="M7676.43 1024.86c7.54,5.31 19.6,25.5 25.63,32.94 13.57,20.19 63.32,94.57 75.38,99.88 10.55,4.25 99.5,4.25 113.06,1.06 15.07,-3.19 25.63,-17 16.58,-34 -4.52,-9.56 -18.09,-26.56 -24.12,-35.06 -16.58,-22.32 -31.66,-44.63 -48.24,-68.01l-122.11 -172.14c-7.54,-11.69 -15.08,-24.44 -36.18,-24.44 -21.11,0 -25.63,12.75 -33.17,24.44l-122.11 170.01c-16.58,22.31 -33.17,45.69 -48.24,69.07 -12.06,17 -49.75,54.19 -12.06,69.07 10.55,4.25 102.51,4.25 114.57,1.06 13.57,-4.25 42.21,-49.94 52.76,-64.82 16.58,-24.44 34.67,-45.69 48.24,-69.07z"/>
      <path class="fil0" d="M6993.64 1357.44c-21.1,-18.06 -81.4,-125.38 -101,-132.82 -10.55,-4.25 -102.51,-4.25 -114.57,-1.06 -12.06,4.25 -24.12,19.13 -15.07,35.06l195.98 275.21c7.54,11.69 15.07,23.38 34.67,23.38 19.6,0 24.12,-10.63 33.17,-22.32l195.98 -274.14c7.54,-14.88 1.51,-30.81 -13.57,-36.13 -9.05,-3.19 -102.51,-3.19 -113.06,0 -16.58,5.31 -63.32,78.63 -76.89,97.76 -9.05,11.69 -16.58,23.38 -25.63,35.06z"/>
      <path class="fil0" d="M7326.62 1431.82c22.61,22.31 79.9,125.38 101,132.82 10.55,3.19 102.51,4.25 113.06,0 13.57,-4.25 24.12,-18.06 15.08,-34 -6.03,-10.62 -16.58,-24.44 -24.12,-35.06l-170.35 -240.14c-21.11,-31.88 -46.73,-34 -69.35,-1.06l-72.36 103.07c-33.16,45.69 -64.82,91.38 -97.99,137.07 -7.54,11.69 -18.09,23.38 -24.12,34 -9.05,14.88 -1.51,30.82 13.57,36.13 9.05,3.19 101,3.19 111.56,0 15.07,-4.25 19.6,-17 28.64,-29.75 9.05,-12.75 16.58,-22.31 25.63,-34 7.54,-12.75 15.08,-23.38 24.12,-34 7.54,-11.69 16.58,-26.56 25.63,-35.06z"/>
      <path class="fil0" d="M7348.52 951.54c-7.54,-9.56 -15.07,-22.31 -24.12,-32.94l-48.24 -68c-6.03,-10.63 -16.58,-27.63 -27.14,-31.88 -12.06,-4.25 -101,-4.25 -113.07,-1.06 -13.57,4.25 -25.63,18.07 -16.58,34l194.47 274.14c9.05,12.75 13.57,25.5 34.67,25.5 21.11,1.06 27.14,-11.69 34.67,-23.38l73.87 -103.07c16.58,-22.32 31.66,-44.63 48.24,-66.94l72.36 -103.07c12.06,-15.94 1.51,-30.82 -12.06,-36.13 -10.55,-4.25 -102.51,-4.25 -114.57,0 -13.57,4.25 -42.21,49.94 -52.76,64.82 -7.54,11.69 -15.08,22.31 -24.12,34 -4.52,6.38 -19.6,29.75 -25.63,34z"/>
      <path class="fil0" d="M6660.71 1431.82c22.61,22.31 79.9,125.38 101,132.82 10.55,3.19 102.51,4.25 113.06,0 13.57,-4.25 24.12,-18.06 15.08,-34 -6.03,-10.62 -16.58,-24.44 -24.12,-35.06l-170.35 -240.14c-21.11,-31.88 -46.73,-34 -69.35,-1.06l-72.36 103.07c-33.16,45.69 -64.82,91.38 -97.99,137.07 -7.54,11.69 -18.09,23.38 -24.12,34 -9.05,14.88 -1.51,30.82 13.57,36.13 9.05,3.19 101,3.19 111.56,0 15.07,-4.25 19.6,-17 28.64,-29.75 9.05,-12.75 16.58,-22.31 25.63,-34 7.54,-12.75 15.08,-23.38 24.12,-34 7.54,-11.69 16.58,-26.56 25.63,-35.06z"/>
      <path class="fil0" d="M6677.54 951.54c-7.54,-9.56 -15.07,-22.31 -24.12,-32.94l-48.24 -68c-6.03,-10.63 -16.58,-27.63 -27.14,-31.88 -12.06,-4.25 -101,-4.25 -113.07,-1.06 -13.57,4.25 -25.63,18.07 -16.58,34l194.47 274.14c9.05,12.75 13.57,25.5 34.67,25.5 21.11,1.06 27.14,-11.69 34.67,-23.38l73.87 -103.07c16.58,-22.32 31.66,-44.63 48.24,-66.94l72.36 -103.07c12.06,-15.94 1.51,-30.82 -12.06,-36.13 -10.55,-4.25 -102.51,-4.25 -114.57,0 -13.57,4.25 -42.21,49.94 -52.76,64.82 -7.54,11.69 -15.08,22.31 -24.12,34 -4.52,6.38 -19.6,29.75 -25.63,34z"/>
     </g>
     <g>
      <path class="fil0" d="M5682.44 1016.36c25.63,39.31 57.29,80.75 84.42,119.01 4.52,6.38 7.54,10.63 15.07,13.81 12.06,4.25 101,4.25 113.06,1.06 15.08,-4.25 25.63,-21.25 15.08,-37.19 -18.09,-28.69 -99.5,-139.2 -122.11,-171.07l-72.36 -102.01c-7.54,-11.69 -13.57,-24.44 -36.18,-23.38 -22.61,0 -40.7,32.94 -57.29,58.44l-170.35 239.08c-10.55,17 1.51,31.88 15.07,36.13 12.06,3.19 102.51,3.19 113.07,-1.06 15.07,-6.38 63.31,-80.75 76.88,-98.82l25.63 -34z"/>
      <path class="fil0" d="M6327.54 1358.51l-70.85 -99.88c-7.54,-11.69 -16.58,-26.56 -28.64,-32.94 -10.55,-5.31 -97.99,-5.31 -111.56,-2.13 -16.58,3.19 -28.64,17 -19.6,35.06l171.86 240.14c22.61,31.87 33.17,58.44 58.8,59.5 19.6,0 25.63,-11.69 33.16,-23.38 9.05,-10.62 16.58,-21.25 24.12,-32.94 16.58,-24.44 33.16,-46.75 49.75,-69.07 36.18,-54.19 88.95,-122.2 122.11,-172.14 10.55,-17 1.51,-30.81 -13.57,-36.13 -10.55,-4.25 -102.51,-4.25 -113.06,0 -13.57,4.25 -19.6,18.07 -28.64,29.75 -7.54,11.69 -16.58,24.44 -24.12,35.06 -9.05,11.69 -15.08,21.25 -24.12,34 -7.54,10.63 -16.58,25.5 -25.63,35.07z"/>
      <path class="fil0" d="M6345.63 1024.86c7.54,5.31 19.6,25.5 25.63,32.94 13.57,20.19 63.32,94.57 75.38,99.88 10.55,4.25 99.5,4.25 113.06,1.06 15.07,-3.19 25.63,-17 16.58,-34 -4.52,-9.56 -18.09,-26.56 -24.12,-35.06 -16.58,-22.32 -31.66,-44.63 -48.24,-68.01l-122.11 -172.14c-7.54,-11.69 -15.08,-24.44 -36.18,-24.44 -21.11,0 -25.63,12.75 -33.17,24.44l-122.11 170.01c-16.58,22.31 -33.17,45.69 -48.24,69.07 -12.06,17 -49.75,54.19 -12.06,69.07 10.55,4.25 102.51,4.25 114.57,1.06 13.57,-4.25 42.21,-49.94 52.76,-64.82 16.58,-24.44 34.67,-45.69 48.24,-69.07z"/>
      <path class="fil0" d="M5662.84 1357.44c-21.1,-18.06 -81.4,-125.38 -101,-132.82 -10.55,-4.25 -102.51,-4.25 -114.57,-1.06 -12.06,4.25 -24.12,19.13 -15.07,35.06l195.98 275.21c7.54,11.69 15.07,23.38 34.67,23.38 19.6,0 24.12,-10.63 33.17,-22.32l195.98 -274.14c7.54,-14.88 1.51,-30.81 -13.57,-36.13 -9.05,-3.19 -102.51,-3.19 -113.06,0 -16.58,5.31 -63.32,78.63 -76.89,97.76 -9.05,11.69 -16.58,23.38 -25.63,35.06z"/>
      <path class="fil0" d="M5995.82 1431.82c22.61,22.31 79.9,125.38 101,132.82 10.55,3.19 102.51,4.25 113.06,0 13.57,-4.25 24.12,-18.06 15.08,-34 -6.03,-10.62 -16.58,-24.44 -24.12,-35.06l-170.35 -240.14c-21.11,-31.88 -46.73,-34 -69.35,-1.06l-72.36 103.07c-33.16,45.69 -64.82,91.38 -97.99,137.07 -7.54,11.69 -18.09,23.38 -24.12,34 -9.05,14.88 -1.51,30.82 13.57,36.13 9.05,3.19 101,3.19 111.56,0 15.07,-4.25 19.6,-17 28.64,-29.75 9.05,-12.75 16.58,-22.31 25.63,-34 7.54,-12.75 15.08,-23.38 24.12,-34 7.54,-11.69 16.58,-26.56 25.63,-35.06z"/>
      <path class="fil0" d="M6017.72 951.54c-7.54,-9.56 -15.07,-22.31 -24.12,-32.94l-48.24 -68c-6.03,-10.63 -16.58,-27.63 -27.14,-31.88 -12.06,-4.25 -101,-4.25 -113.07,-1.06 -13.57,4.25 -25.63,18.07 -16.58,34l194.47 274.14c9.05,12.75 13.57,25.5 34.67,25.5 21.11,1.06 27.14,-11.69 34.67,-23.38l73.87 -103.07c16.58,-22.32 31.66,-44.63 48.24,-66.94l72.36 -103.07c12.06,-15.94 1.51,-30.82 -12.06,-36.13 -10.55,-4.25 -102.51,-4.25 -114.57,0 -13.57,4.25 -42.21,49.94 -52.76,64.82 -7.54,11.69 -15.08,22.31 -24.12,34 -4.52,6.38 -19.6,29.75 -25.63,34z"/>
      <path class="fil0" d="M5329.91 1431.82c22.61,22.31 79.9,125.38 101,132.82 10.55,3.19 102.51,4.25 113.06,0 13.57,-4.25 24.12,-18.06 15.08,-34 -6.03,-10.62 -16.58,-24.44 -24.12,-35.06l-170.35 -240.14c-21.11,-31.88 -46.73,-34 -69.35,-1.06l-72.36 103.07c-33.16,45.69 -64.82,91.38 -97.99,137.07 -7.54,11.69 -18.09,23.38 -24.12,34 -9.05,14.88 -1.51,30.82 13.57,36.13 9.05,3.19 101,3.19 111.56,0 15.07,-4.25 19.6,-17 28.64,-29.75 9.05,-12.75 16.58,-22.31 25.63,-34 7.54,-12.75 15.08,-23.38 24.12,-34 7.54,-11.69 16.58,-26.56 25.63,-35.06z"/>
      <path class="fil0" d="M5346.74 951.54c-7.54,-9.56 -15.07,-22.31 -24.12,-32.94l-48.24 -68c-6.03,-10.63 -16.58,-27.63 -27.14,-31.88 -12.06,-4.25 -101,-4.25 -113.07,-1.06 -13.57,4.25 -25.63,18.07 -16.58,34l194.47 274.14c9.05,12.75 13.57,25.5 34.67,25.5 21.11,1.06 27.14,-11.69 34.67,-23.38l73.87 -103.07c16.58,-22.32 31.66,-44.63 48.24,-66.94l72.36 -103.07c12.06,-15.94 1.51,-30.82 -12.06,-36.13 -10.55,-4.25 -102.51,-4.25 -114.57,0 -13.57,4.25 -42.21,49.94 -52.76,64.82 -7.54,11.69 -15.08,22.31 -24.12,34 -4.52,6.38 -19.6,29.75 -25.63,34z"/>
     </g>
    </g>
    <g>
     <g>
      <path class="fil0" d="M9674.84 200.97c25.63,39.31 57.29,80.75 84.42,119.01 4.52,6.38 7.54,10.63 15.07,13.81 12.06,4.25 101,4.25 113.06,1.06 15.08,-4.25 25.63,-21.25 15.08,-37.19 -18.09,-28.69 -99.5,-139.2 -122.11,-171.07l-72.36 -102.01c-7.54,-11.69 -13.57,-24.44 -36.18,-23.38 -22.61,0 -40.7,32.94 -57.29,58.44l-170.35 239.08c-10.55,17 1.51,31.88 15.07,36.13 12.06,3.19 102.51,3.19 113.07,-1.06 15.07,-6.38 63.31,-80.75 76.88,-98.82l25.63 -34z"/>
      <path class="fil0" d="M10319.94 543.12l-70.85 -99.88c-7.54,-11.69 -16.58,-26.56 -28.64,-32.94 -10.55,-5.31 -97.99,-5.31 -111.56,-2.13 -16.58,3.19 -28.64,17 -19.6,35.06l171.86 240.14c22.61,31.87 33.17,58.44 58.8,59.5 13.21,0 20.25,-5.31 25.75,-12.35l0 -222.65 -0.12 0.17c-7.54,10.63 -16.58,25.5 -25.63,35.07z"/>
      <path class="fil0" d="M10338.03 209.47c2.24,1.58 4.89,4.48 7.66,7.97l0 -207.1c-2.34,-0.41 -4.88,-0.63 -7.66,-0.63 -21.11,0 -25.63,12.75 -33.17,24.44l-122.11 170.01c-16.58,22.31 -33.17,45.69 -48.24,69.07 -12.06,17 -49.75,54.19 -12.06,69.07 10.55,4.25 102.51,4.25 114.57,1.06 13.57,-4.25 42.21,-49.94 52.76,-64.82 16.58,-24.44 34.67,-45.69 48.24,-69.07z"/>
      <path class="fil0" d="M9655.24 542.06c-21.1,-18.06 -81.4,-125.38 -101,-132.82 -10.55,-4.25 -102.51,-4.25 -114.57,-1.06 -12.06,4.25 -24.12,19.13 -15.07,35.06l195.98 275.21c7.54,11.69 15.07,23.38 34.67,23.38 19.6,0 24.12,-10.63 33.17,-22.32l195.98 -274.14c7.54,-14.88 1.51,-30.81 -13.57,-36.13 -9.05,-3.19 -102.51,-3.19 -113.06,0 -16.58,5.31 -63.32,78.63 -76.89,97.76 -9.05,11.69 -16.58,23.38 -25.63,35.06z"/>
      <path class="fil0" d="M9988.22 616.44c22.61,22.31 79.9,125.38 101,132.82 10.55,3.19 102.51,4.25 113.06,0 13.57,-4.25 24.12,-18.06 15.08,-34 -6.03,-10.62 -16.58,-24.44 -24.12,-35.06l-170.35 -240.14c-21.11,-31.88 -46.73,-34 -69.35,-1.06l-72.36 103.07c-33.16,45.69 -64.82,91.38 -97.99,137.07 -7.54,11.69 -18.09,23.38 -24.12,34 -9.05,14.88 -1.51,30.82 13.57,36.13 9.05,3.19 101,3.19 111.56,0 15.07,-4.25 19.6,-17 28.64,-29.75 9.05,-12.75 16.58,-22.31 25.63,-34 7.54,-12.75 15.08,-23.38 24.12,-34 7.54,-11.69 16.58,-26.56 25.63,-35.06z"/>
      <path class="fil0" d="M10010.11 136.16c-7.54,-9.56 -15.07,-22.31 -24.12,-32.94l-48.24 -68c-6.03,-10.63 -16.58,-27.63 -27.14,-31.88 -12.06,-4.25 -101,-4.25 -113.07,-1.06 -13.57,4.25 -25.63,18.07 -16.58,34l194.47 274.14c9.05,12.75 13.57,25.5 34.67,25.5 21.11,1.06 27.14,-11.69 34.67,-23.38l73.87 -103.07c16.58,-22.32 31.66,-44.63 48.24,-66.94l72.36 -103.07c12.06,-15.94 1.51,-30.82 -12.06,-36.13 -10.55,-4.25 -102.51,-4.25 -114.57,0 -13.57,4.25 -42.21,49.94 -52.76,64.82 -7.54,11.69 -15.08,22.31 -24.12,34 -4.52,6.38 -19.6,29.75 -25.63,34z"/>
      <path class="fil0" d="M9322.31 616.44c22.61,22.31 79.9,125.38 101,132.82 10.55,3.19 102.51,4.25 113.06,0 13.57,-4.25 24.12,-18.06 15.08,-34 -6.03,-10.62 -16.58,-24.44 -24.12,-35.06l-170.35 -240.14c-21.11,-31.88 -46.73,-34 -69.35,-1.06l-72.36 103.07c-33.16,45.69 -64.82,91.38 -97.99,137.07 -7.54,11.69 -18.09,23.38 -24.12,34 -9.05,14.88 -1.51,30.82 13.57,36.13 9.05,3.19 101,3.19 111.56,0 15.07,-4.25 19.6,-17 28.64,-29.75 9.05,-12.75 16.58,-22.31 25.63,-34 7.54,-12.75 15.08,-23.38 24.12,-34 7.54,-11.69 16.58,-26.56 25.63,-35.06z"/>
      <path class="fil0" d="M9339.13 136.16c-7.54,-9.56 -15.07,-22.31 -24.12,-32.94l-48.24 -68c-6.03,-10.63 -16.58,-27.63 -27.14,-31.88 -12.06,-4.25 -101,-4.25 -113.07,-1.06 -13.57,4.25 -25.63,18.07 -16.58,34l194.47 274.14c9.05,12.75 13.57,25.5 34.67,25.5 21.11,1.06 27.14,-11.69 34.67,-23.38l73.87 -103.07c16.58,-22.32 31.66,-44.63 48.24,-66.94l72.36 -103.07c12.06,-15.94 1.51,-30.82 -12.06,-36.13 -10.55,-4.25 -102.51,-4.25 -114.57,0 -13.57,4.25 -42.21,49.94 -52.76,64.82 -7.54,11.69 -15.08,22.31 -24.12,34 -4.52,6.38 -19.6,29.75 -25.63,34z"/>
     </g>
     <g>
      <path class="fil0" d="M8344.04 200.97c25.63,39.31 57.29,80.75 84.42,119.01 4.52,6.38 7.54,10.63 15.07,13.81 12.06,4.25 101,4.25 113.06,1.06 15.08,-4.25 25.63,-21.25 15.08,-37.19 -18.09,-28.69 -99.5,-139.2 -122.11,-171.07l-72.36 -102.01c-7.54,-11.69 -13.57,-24.44 -36.18,-23.38 -22.61,0 -40.7,32.94 -57.29,58.44l-170.35 239.08c-10.55,17 1.51,31.88 15.07,36.13 12.06,3.19 102.51,3.19 113.07,-1.06 15.07,-6.38 63.31,-80.75 76.88,-98.82l25.63 -34z"/>
      <path class="fil0" d="M8989.14 543.12l-70.85 -99.88c-7.54,-11.69 -16.58,-26.56 -28.64,-32.94 -10.55,-5.31 -97.99,-5.31 -111.56,-2.13 -16.58,3.19 -28.64,17 -19.6,35.06l171.86 240.14c22.61,31.87 33.17,58.44 58.8,59.5 19.6,0 25.63,-11.69 33.16,-23.38 9.05,-10.62 16.58,-21.25 24.12,-32.94 16.58,-24.44 33.16,-46.75 49.75,-69.07 36.18,-54.19 88.95,-122.2 122.11,-172.14 10.55,-17 1.51,-30.81 -13.57,-36.13 -10.55,-4.25 -102.51,-4.25 -113.06,0 -13.57,4.25 -19.6,18.07 -28.64,29.75 -7.54,11.69 -16.58,24.44 -24.12,35.06 -9.05,11.69 -15.08,21.25 -24.12,34 -7.54,10.63 -16.58,25.5 -25.63,35.07z"/>
      <path class="fil0" d="M9007.23 209.47c7.54,5.31 19.6,25.5 25.63,32.94 13.57,20.19 63.32,94.57 75.38,99.88 10.55,4.25 99.5,4.25 113.06,1.06 15.07,-3.19 25.63,-17 16.58,-34 -4.52,-9.56 -18.09,-26.56 -24.12,-35.06 -16.58,-22.32 -31.66,-44.63 -48.24,-68.01l-122.11 -172.14c-7.54,-11.69 -15.08,-24.44 -36.18,-24.44 -21.11,0 -25.63,12.75 -33.17,24.44l-122.11 170.01c-16.58,22.31 -33.17,45.69 -48.24,69.07 -12.06,17 -49.75,54.19 -12.06,69.07 10.55,4.25 102.51,4.25 114.57,1.06 13.57,-4.25 42.21,-49.94 52.76,-64.82 16.58,-24.44 34.67,-45.69 48.24,-69.07z"/>
      <path class="fil0" d="M8324.44 542.06c-21.1,-18.06 -81.4,-125.38 -101,-132.82 -10.55,-4.25 -102.51,-4.25 -114.57,-1.06 -12.06,4.25 -24.12,19.13 -15.07,35.06l195.98 275.21c7.54,11.69 15.07,23.38 34.67,23.38 19.6,0 24.12,-10.63 33.17,-22.32l195.98 -274.14c7.54,-14.88 1.51,-30.81 -13.57,-36.13 -9.05,-3.19 -102.51,-3.19 -113.06,0 -16.58,5.31 -63.32,78.63 -76.89,97.76 -9.05,11.69 -16.58,23.38 -25.63,35.06z"/>
      <path class="fil0" d="M8657.42 616.44c22.61,22.31 79.9,125.38 101,132.82 10.55,3.19 102.51,4.25 113.06,0 13.57,-4.25 24.12,-18.06 15.08,-34 -6.03,-10.62 -16.58,-24.44 -24.12,-35.06l-170.35 -240.14c-21.11,-31.88 -46.73,-34 -69.35,-1.06l-72.36 103.07c-33.16,45.69 -64.82,91.38 -97.99,137.07 -7.54,11.69 -18.09,23.38 -24.12,34 -9.05,14.88 -1.51,30.82 13.57,36.13 9.05,3.19 101,3.19 111.56,0 15.07,-4.25 19.6,-17 28.64,-29.75 9.05,-12.75 16.58,-22.31 25.63,-34 7.54,-12.75 15.08,-23.38 24.12,-34 7.54,-11.69 16.58,-26.56 25.63,-35.06z"/>
      <path class="fil0" d="M8679.31 136.16c-7.54,-9.56 -15.07,-22.31 -24.12,-32.94l-48.24 -68c-6.03,-10.63 -16.58,-27.63 -27.14,-31.88 -12.06,-4.25 -101,-4.25 -113.07,-1.06 -13.57,4.25 -25.63,18.07 -16.58,34l194.47 274.14c9.05,12.75 13.57,25.5 34.67,25.5 21.11,1.06 27.14,-11.69 34.67,-23.38l73.87 -103.07c16.58,-22.32 31.66,-44.63 48.24,-66.94l72.36 -103.07c12.06,-15.94 1.51,-30.82 -12.06,-36.13 -10.55,-4.25 -102.51,-4.25 -114.57,0 -13.57,4.25 -42.21,49.94 -52.76,64.82 -7.54,11.69 -15.08,22.31 -24.12,34 -4.52,6.38 -19.6,29.75 -25.63,34z"/>
      <path class="fil0" d="M7991.51 616.44c22.61,22.31 79.9,125.38 101,132.82 10.55,3.19 102.51,4.25 113.06,0 13.57,-4.25 24.12,-18.06 15.08,-34 -6.03,-10.62 -16.58,-24.44 -24.12,-35.06l-170.35 -240.14c-21.11,-31.88 -46.73,-34 -69.35,-1.06l-72.36 103.07c-33.16,45.69 -64.82,91.38 -97.99,137.07 -7.54,11.69 -18.09,23.38 -24.12,34 -9.05,14.88 -1.51,30.82 13.57,36.13 9.05,3.19 101,3.19 111.56,0 15.07,-4.25 19.6,-17 28.64,-29.75 9.05,-12.75 16.58,-22.31 25.63,-34 7.54,-12.75 15.08,-23.38 24.12,-34 7.54,-11.69 16.58,-26.56 25.63,-35.06z"/>
      <path class="fil0" d="M8008.33 136.16c-7.54,-9.56 -15.07,-22.31 -24.12,-32.94l-48.24 -68c-6.03,-10.63 -16.58,-27.63 -27.14,-31.88 -12.06,-4.25 -101,-4.25 -113.07,-1.06 -13.57,4.25 -25.63,18.07 -16.58,34l194.47 274.14c9.05,12.75 13.57,25.5 34.67,25.5 21.11,1.06 27.14,-11.69 34.67,-23.38l73.87 -103.07c16.58,-22.32 31.66,-44.63 48.24,-66.94l72.36 -103.07c12.06,-15.94 1.51,-30.82 -12.06,-36.13 -10.55,-4.25 -102.51,-4.25 -114.57,0 -13.57,4.25 -42.21,49.94 -52.76,64.82 -7.54,11.69 -15.08,22.31 -24.12,34 -4.52,6.38 -19.6,29.75 -25.63,34z"/>
     </g>
     <g>
      <path class="fil0" d="M7013.24 200.97c25.63,39.31 57.29,80.75 84.42,119.01 4.52,6.38 7.54,10.63 15.07,13.81 12.06,4.25 101,4.25 113.06,1.06 15.08,-4.25 25.63,-21.25 15.08,-37.19 -18.09,-28.69 -99.5,-139.2 -122.11,-171.07l-72.36 -102.01c-7.54,-11.69 -13.57,-24.44 -36.18,-23.38 -22.61,0 -40.7,32.94 -57.29,58.44l-170.35 239.08c-10.55,17 1.51,31.88 15.07,36.13 12.06,3.19 102.51,3.19 113.07,-1.06 15.07,-6.38 63.31,-80.75 76.88,-98.82l25.63 -34z"/>
      <path class="fil0" d="M7658.34 543.12l-70.85 -99.88c-7.54,-11.69 -16.58,-26.56 -28.64,-32.94 -10.55,-5.31 -97.99,-5.31 -111.56,-2.13 -16.58,3.19 -28.64,17 -19.6,35.06l171.86 240.14c22.61,31.87 33.17,58.44 58.8,59.5 19.6,0 25.63,-11.69 33.16,-23.38 9.05,-10.62 16.58,-21.25 24.12,-32.94 16.58,-24.44 33.16,-46.75 49.75,-69.07 36.18,-54.19 88.95,-122.2 122.11,-172.14 10.55,-17 1.51,-30.81 -13.57,-36.13 -10.55,-4.25 -102.51,-4.25 -113.06,0 -13.57,4.25 -19.6,18.07 -28.64,29.75 -7.54,11.69 -16.58,24.44 -24.12,35.06 -9.05,11.69 -15.08,21.25 -24.12,34 -7.54,10.63 -16.58,25.5 -25.63,35.07z"/>
      <path class="fil0" d="M7676.43 209.47c7.54,5.31 19.6,25.5 25.63,32.94 13.57,20.19 63.32,94.57 75.38,99.88 10.55,4.25 99.5,4.25 113.06,1.06 15.07,-3.19 25.63,-17 16.58,-34 -4.52,-9.56 -18.09,-26.56 -24.12,-35.06 -16.58,-22.32 -31.66,-44.63 -48.24,-68.01l-122.11 -172.14c-7.54,-11.69 -15.08,-24.44 -36.18,-24.44 -21.11,0 -25.63,12.75 -33.17,24.44l-122.11 170.01c-16.58,22.31 -33.17,45.69 -48.24,69.07 -12.06,17 -49.75,54.19 -12.06,69.07 10.55,4.25 102.51,4.25 114.57,1.06 13.57,-4.25 42.21,-49.94 52.76,-64.82 16.58,-24.44 34.67,-45.69 48.24,-69.07z"/>
      <path class="fil0" d="M6993.64 542.06c-21.1,-18.06 -81.4,-125.38 -101,-132.82 -10.55,-4.25 -102.51,-4.25 -114.57,-1.06 -12.06,4.25 -24.12,19.13 -15.07,35.06l195.98 275.21c7.54,11.69 15.07,23.38 34.67,23.38 19.6,0 24.12,-10.63 33.17,-22.32l195.98 -274.14c7.54,-14.88 1.51,-30.81 -13.57,-36.13 -9.05,-3.19 -102.51,-3.19 -113.06,0 -16.58,5.31 -63.32,78.63 -76.89,97.76 -9.05,11.69 -16.58,23.38 -25.63,35.06z"/>
      <path class="fil0" d="M7326.62 616.44c22.61,22.31 79.9,125.38 101,132.82 10.55,3.19 102.51,4.25 113.06,0 13.57,-4.25 24.12,-18.06 15.08,-34 -6.03,-10.62 -16.58,-24.44 -24.12,-35.06l-170.35 -240.14c-21.11,-31.88 -46.73,-34 -69.35,-1.06l-72.36 103.07c-33.16,45.69 -64.82,91.38 -97.99,137.07 -7.54,11.69 -18.09,23.38 -24.12,34 -9.05,14.88 -1.51,30.82 13.57,36.13 9.05,3.19 101,3.19 111.56,0 15.07,-4.25 19.6,-17 28.64,-29.75 9.05,-12.75 16.58,-22.31 25.63,-34 7.54,-12.75 15.08,-23.38 24.12,-34 7.54,-11.69 16.58,-26.56 25.63,-35.06z"/>
      <path class="fil0" d="M7348.52 136.16c-7.54,-9.56 -15.07,-22.31 -24.12,-32.94l-48.24 -68c-6.03,-10.63 -16.58,-27.63 -27.14,-31.88 -12.06,-4.25 -101,-4.25 -113.07,-1.06 -13.57,4.25 -25.63,18.07 -16.58,34l194.47 274.14c9.05,12.75 13.57,25.5 34.67,25.5 21.11,1.06 27.14,-11.69 34.67,-23.38l73.87 -103.07c16.58,-22.32 31.66,-44.63 48.24,-66.94l72.36 -103.07c12.06,-15.94 1.51,-30.82 -12.06,-36.13 -10.55,-4.25 -102.51,-4.25 -114.57,0 -13.57,4.25 -42.21,49.94 -52.76,64.82 -7.54,11.69 -15.08,22.31 -24.12,34 -4.52,6.38 -19.6,29.75 -25.63,34z"/>
      <path class="fil0" d="M6660.71 616.44c22.61,22.31 79.9,125.38 101,132.82 10.55,3.19 102.51,4.25 113.06,0 13.57,-4.25 24.12,-18.06 15.08,-34 -6.03,-10.62 -16.58,-24.44 -24.12,-35.06l-170.35 -240.14c-21.11,-31.88 -46.73,-34 -69.35,-1.06l-72.36 103.07c-33.16,45.69 -64.82,91.38 -97.99,137.07 -7.54,11.69 -18.09,23.38 -24.12,34 -9.05,14.88 -1.51,30.82 13.57,36.13 9.05,3.19 101,3.19 111.56,0 15.07,-4.25 19.6,-17 28.64,-29.75 9.05,-12.75 16.58,-22.31 25.63,-34 7.54,-12.75 15.08,-23.38 24.12,-34 7.54,-11.69 16.58,-26.56 25.63,-35.06z"/>
      <path class="fil0" d="M6677.54 136.16c-7.54,-9.56 -15.07,-22.31 -24.12,-32.94l-48.24 -68c-6.03,-10.63 -16.58,-27.63 -27.14,-31.88 -12.06,-4.25 -101,-4.25 -113.07,-1.06 -13.57,4.25 -25.63,18.07 -16.58,34l194.47 274.14c9.05,12.75 13.57,25.5 34.67,25.5 21.11,1.06 27.14,-11.69 34.67,-23.38l73.87 -103.07c16.58,-22.32 31.66,-44.63 48.24,-66.94l72.36 -103.07c12.06,-15.94 1.51,-30.82 -12.06,-36.13 -10.55,-4.25 -102.51,-4.25 -114.57,0 -13.57,4.25 -42.21,49.94 -52.76,64.82 -7.54,11.69 -15.08,22.31 -24.12,34 -4.52,6.38 -19.6,29.75 -25.63,34z"/>
     </g>
     <g>
      <path class="fil0" d="M5682.44 200.97c25.63,39.31 57.29,80.75 84.42,119.01 4.52,6.38 7.54,10.63 15.07,13.81 12.06,4.25 101,4.25 113.06,1.06 15.08,-4.25 25.63,-21.25 15.08,-37.19 -18.09,-28.69 -99.5,-139.2 -122.11,-171.07l-72.36 -102.01c-7.54,-11.69 -13.57,-24.44 -36.18,-23.38 -22.61,0 -40.7,32.94 -57.29,58.44l-170.35 239.08c-10.55,17 1.51,31.88 15.07,36.13 12.06,3.19 102.51,3.19 113.07,-1.06 15.07,-6.38 63.31,-80.75 76.88,-98.82l25.63 -34z"/>
      <path class="fil0" d="M6327.54 543.12l-70.85 -99.88c-7.54,-11.69 -16.58,-26.56 -28.64,-32.94 -10.55,-5.31 -97.99,-5.31 -111.56,-2.13 -16.58,3.19 -28.64,17 -19.6,35.06l171.86 240.14c22.61,31.87 33.17,58.44 58.8,59.5 19.6,0 25.63,-11.69 33.16,-23.38 9.05,-10.62 16.58,-21.25 24.12,-32.94 16.58,-24.44 33.16,-46.75 49.75,-69.07 36.18,-54.19 88.95,-122.2 122.11,-172.14 10.55,-17 1.51,-30.81 -13.57,-36.13 -10.55,-4.25 -102.51,-4.25 -113.06,0 -13.57,4.25 -19.6,18.07 -28.64,29.75 -7.54,11.69 -16.58,24.44 -24.12,35.06 -9.05,11.69 -15.08,21.25 -24.12,34 -7.54,10.63 -16.58,25.5 -25.63,35.07z"/>
      <path class="fil0" d="M6345.63 209.47c7.54,5.31 19.6,25.5 25.63,32.94 13.57,20.19 63.32,94.57 75.38,99.88 10.55,4.25 99.5,4.25 113.06,1.06 15.07,-3.19 25.63,-17 16.58,-34 -4.52,-9.56 -18.09,-26.56 -24.12,-35.06 -16.58,-22.32 -31.66,-44.63 -48.24,-68.01l-122.11 -172.14c-7.54,-11.69 -15.08,-24.44 -36.18,-24.44 -21.11,0 -25.63,12.75 -33.17,24.44l-122.11 170.01c-16.58,22.31 -33.17,45.69 -48.24,69.07 -12.06,17 -49.75,54.19 -12.06,69.07 10.55,4.25 102.51,4.25 114.57,1.06 13.57,-4.25 42.21,-49.94 52.76,-64.82 16.58,-24.44 34.67,-45.69 48.24,-69.07z"/>
      <path class="fil0" d="M5662.84 542.06c-21.1,-18.06 -81.4,-125.38 -101,-132.82 -10.55,-4.25 -102.51,-4.25 -114.57,-1.06 -12.06,4.25 -24.12,19.13 -15.07,35.06l195.98 275.21c7.54,11.69 15.07,23.38 34.67,23.38 19.6,0 24.12,-10.63 33.17,-22.32l195.98 -274.14c7.54,-14.88 1.51,-30.81 -13.57,-36.13 -9.05,-3.19 -102.51,-3.19 -113.06,0 -16.58,5.31 -63.32,78.63 -76.89,97.76 -9.05,11.69 -16.58,23.38 -25.63,35.06z"/>
      <path class="fil0" d="M5995.82 616.44c22.61,22.31 79.9,125.38 101,132.82 10.55,3.19 102.51,4.25 113.06,0 13.57,-4.25 24.12,-18.06 15.08,-34 -6.03,-10.62 -16.58,-24.44 -24.12,-35.06l-170.35 -240.14c-21.11,-31.88 -46.73,-34 -69.35,-1.06l-72.36 103.07c-33.16,45.69 -64.82,91.38 -97.99,137.07 -7.54,11.69 -18.09,23.38 -24.12,34 -9.05,14.88 -1.51,30.82 13.57,36.13 9.05,3.19 101,3.19 111.56,0 15.07,-4.25 19.6,-17 28.64,-29.75 9.05,-12.75 16.58,-22.31 25.63,-34 7.54,-12.75 15.08,-23.38 24.12,-34 7.54,-11.69 16.58,-26.56 25.63,-35.06z"/>
      <path class="fil0" d="M6017.72 136.16c-7.54,-9.56 -15.07,-22.31 -24.12,-32.94l-48.24 -68c-6.03,-10.63 -16.58,-27.63 -27.14,-31.88 -12.06,-4.25 -101,-4.25 -113.07,-1.06 -13.57,4.25 -25.63,18.07 -16.58,34l194.47 274.14c9.05,12.75 13.57,25.5 34.67,25.5 21.11,1.06 27.14,-11.69 34.67,-23.38l73.87 -103.07c16.58,-22.32 31.66,-44.63 48.24,-66.94l72.36 -103.07c12.06,-15.94 1.51,-30.82 -12.06,-36.13 -10.55,-4.25 -102.51,-4.25 -114.57,0 -13.57,4.25 -42.21,49.94 -52.76,64.82 -7.54,11.69 -15.08,22.31 -24.12,34 -4.52,6.38 -19.6,29.75 -25.63,34z"/>
      <path class="fil0" d="M5329.91 616.44c22.61,22.31 79.9,125.38 101,132.82 10.55,3.19 102.51,4.25 113.06,0 13.57,-4.25 24.12,-18.06 15.08,-34 -6.03,-10.62 -16.58,-24.44 -24.12,-35.06l-170.35 -240.14c-21.11,-31.88 -46.73,-34 -69.35,-1.06l-72.36 103.07c-33.16,45.69 -64.82,91.38 -97.99,137.07 -7.54,11.69 -18.09,23.38 -24.12,34 -9.05,14.88 -1.51,30.82 13.57,36.13 9.05,3.19 101,3.19 111.56,0 15.07,-4.25 19.6,-17 28.64,-29.75 9.05,-12.75 16.58,-22.31 25.63,-34 7.54,-12.75 15.08,-23.38 24.12,-34 7.54,-11.69 16.58,-26.56 25.63,-35.06z"/>
      <path class="fil0" d="M5346.74 136.16c-7.54,-9.56 -15.07,-22.31 -24.12,-32.94l-48.24 -68c-6.03,-10.63 -16.58,-27.63 -27.14,-31.88 -12.06,-4.25 -101,-4.25 -113.07,-1.06 -13.57,4.25 -25.63,18.07 -16.58,34l194.47 274.14c9.05,12.75 13.57,25.5 34.67,25.5 21.11,1.06 27.14,-11.69 34.67,-23.38l73.87 -103.07c16.58,-22.32 31.66,-44.63 48.24,-66.94l72.36 -103.07c12.06,-15.94 1.51,-30.82 -12.06,-36.13 -10.55,-4.25 -102.51,-4.25 -114.57,0 -13.57,4.25 -42.21,49.94 -52.76,64.82 -7.54,11.69 -15.08,22.31 -24.12,34 -4.52,6.38 -19.6,29.75 -25.63,34z"/>
     </g>
    </g>
   </g>
   <g>
    <g>
     <g>
      <path class="fil0" d="M4351.64 1831.74c25.63,39.31 57.29,80.75 84.42,119.01 4.52,6.38 7.54,10.63 15.07,13.81 12.06,4.25 101,4.25 113.06,1.06 15.08,-4.25 25.63,-21.25 15.08,-37.19 -18.09,-28.69 -99.5,-139.2 -122.11,-171.07l-72.36 -102.01c-7.54,-11.69 -13.57,-24.44 -36.18,-23.38 -22.61,0 -40.7,32.94 -57.29,58.44l-170.35 239.08c-10.55,17 1.51,31.88 15.07,36.13 12.06,3.19 102.51,3.19 113.07,-1.06 15.07,-6.38 63.31,-80.75 76.88,-98.82l25.63 -34z"/>
      <path class="fil0" d="M4996.74 2173.89l-70.85 -99.88c-7.54,-11.69 -16.58,-26.56 -28.64,-32.94 -10.55,-5.31 -97.99,-5.31 -111.56,-2.13 -16.58,3.19 -28.64,17 -19.6,35.06l171.86 240.14c22.61,31.87 33.17,58.44 58.8,59.5 19.6,0 25.63,-11.69 33.16,-23.38 9.05,-10.62 16.58,-21.25 24.12,-32.94 16.58,-24.44 33.16,-46.75 49.75,-69.07 36.18,-54.19 88.95,-122.2 122.11,-172.14 10.55,-17 1.51,-30.81 -13.57,-36.13 -10.55,-4.25 -102.51,-4.25 -113.06,0 -13.57,4.25 -19.6,18.07 -28.64,29.75 -7.54,11.69 -16.58,24.44 -24.12,35.06 -9.05,11.69 -15.08,21.25 -24.12,34 -7.54,10.63 -16.58,25.5 -25.63,35.07z"/>
      <path class="fil0" d="M5014.83 1840.24c7.54,5.31 19.6,25.5 25.63,32.94 13.57,20.19 63.32,94.57 75.38,99.88 10.55,4.25 99.5,4.25 113.06,1.06 15.07,-3.19 25.63,-17 16.58,-34 -4.52,-9.56 -18.09,-26.56 -24.12,-35.06 -16.58,-22.32 -31.66,-44.63 -48.24,-68.01l-122.11 -172.14c-7.54,-11.69 -15.08,-24.44 -36.18,-24.44 -21.11,0 -25.63,12.75 -33.17,24.44l-122.11 170.01c-16.58,22.31 -33.17,45.69 -48.24,69.07 -12.06,17 -49.75,54.19 -12.06,69.07 10.55,4.25 102.51,4.25 114.57,1.06 13.57,-4.25 42.21,-49.94 52.76,-64.82 16.58,-24.44 34.67,-45.69 48.24,-69.07z"/>
      <path class="fil0" d="M4332.04 2172.83c-21.1,-18.06 -81.4,-125.38 -101,-132.82 -10.55,-4.25 -102.51,-4.25 -114.57,-1.06 -12.06,4.25 -24.12,19.13 -15.07,35.06l195.98 275.21c7.54,11.69 15.07,23.38 34.67,23.38 19.6,0 24.12,-10.63 33.17,-22.32l195.98 -274.14c7.54,-14.88 1.51,-30.81 -13.57,-36.13 -9.05,-3.19 -102.51,-3.19 -113.06,0 -16.58,5.31 -63.32,78.63 -76.89,97.76 -9.05,11.69 -16.58,23.38 -25.63,35.06z"/>
      <path class="fil0" d="M4665.02 2247.21c22.61,22.31 79.9,125.38 101,132.82 10.55,3.19 102.51,4.25 113.06,0 13.57,-4.25 24.12,-18.06 15.08,-34 -6.03,-10.62 -16.58,-24.44 -24.12,-35.06l-170.35 -240.14c-21.11,-31.88 -46.73,-34 -69.35,-1.06l-72.36 103.07c-33.16,45.69 -64.82,91.38 -97.99,137.07 -7.54,11.69 -18.09,23.38 -24.12,34 -9.05,14.88 -1.51,30.82 13.57,36.13 9.05,3.19 101,3.19 111.56,0 15.07,-4.25 19.6,-17 28.64,-29.75 9.05,-12.75 16.58,-22.31 25.63,-34 7.54,-12.75 15.08,-23.38 24.12,-34 7.54,-11.69 16.58,-26.56 25.63,-35.06z"/>
      <path class="fil0" d="M4686.92 1766.92c-7.54,-9.56 -15.07,-22.31 -24.12,-32.94l-48.24 -68c-6.03,-10.63 -16.58,-27.63 -27.14,-31.88 -12.06,-4.25 -101,-4.25 -113.07,-1.06 -13.57,4.25 -25.63,18.07 -16.58,34l194.47 274.14c9.05,12.75 13.57,25.5 34.67,25.5 21.11,1.06 27.14,-11.69 34.67,-23.38l73.87 -103.07c16.58,-22.32 31.66,-44.63 48.24,-66.94l72.36 -103.07c12.06,-15.94 1.51,-30.82 -12.06,-36.13 -10.55,-4.25 -102.51,-4.25 -114.57,0 -13.57,4.25 -42.21,49.94 -52.76,64.82 -7.54,11.69 -15.08,22.31 -24.12,34 -4.52,6.38 -19.6,29.75 -25.63,34z"/>
      <path class="fil0" d="M3999.11 2247.21c22.61,22.31 79.9,125.38 101,132.82 10.55,3.19 102.51,4.25 113.06,0 13.57,-4.25 24.12,-18.06 15.08,-34 -6.03,-10.62 -16.58,-24.44 -24.12,-35.06l-170.35 -240.14c-21.11,-31.88 -46.73,-34 -69.35,-1.06l-72.36 103.07c-33.16,45.69 -64.82,91.38 -97.99,137.07 -7.54,11.69 -18.09,23.38 -24.12,34 -9.05,14.88 -1.51,30.82 13.57,36.13 9.05,3.19 101,3.19 111.56,0 15.07,-4.25 19.6,-17 28.64,-29.75 9.05,-12.75 16.58,-22.31 25.63,-34 7.54,-12.75 15.08,-23.38 24.12,-34 7.54,-11.69 16.58,-26.56 25.63,-35.06z"/>
      <path class="fil0" d="M4015.94 1766.92c-7.54,-9.56 -15.07,-22.31 -24.12,-32.94l-48.24 -68c-6.03,-10.63 -16.58,-27.63 -27.14,-31.88 -12.06,-4.25 -101,-4.25 -113.07,-1.06 -13.57,4.25 -25.63,18.07 -16.58,34l194.47 274.14c9.05,12.75 13.57,25.5 34.67,25.5 21.11,1.06 27.14,-11.69 34.67,-23.38l73.87 -103.07c16.58,-22.32 31.66,-44.63 48.24,-66.94l72.36 -103.07c12.06,-15.94 1.51,-30.82 -12.06,-36.13 -10.55,-4.25 -102.51,-4.25 -114.57,0 -13.57,4.25 -42.21,49.94 -52.76,64.82 -7.54,11.69 -15.08,22.31 -24.12,34 -4.52,6.38 -19.6,29.75 -25.63,34z"/>
     </g>
     <g>
      <path class="fil0" d="M3020.84 1831.74c25.63,39.31 57.29,80.75 84.42,119.01 4.52,6.38 7.54,10.63 15.07,13.81 12.06,4.25 101,4.25 113.06,1.06 15.08,-4.25 25.63,-21.25 15.08,-37.19 -18.09,-28.69 -99.5,-139.2 -122.11,-171.07l-72.36 -102.01c-7.54,-11.69 -13.57,-24.44 -36.18,-23.38 -22.61,0 -40.7,32.94 -57.29,58.44l-170.35 239.08c-10.55,17 1.51,31.88 15.07,36.13 12.06,3.19 102.51,3.19 113.07,-1.06 15.07,-6.38 63.31,-80.75 76.88,-98.82l25.63 -34z"/>
      <path class="fil0" d="M3665.94 2173.89l-70.85 -99.88c-7.54,-11.69 -16.58,-26.56 -28.64,-32.94 -10.55,-5.31 -97.99,-5.31 -111.56,-2.13 -16.58,3.19 -28.64,17 -19.6,35.06l171.86 240.14c22.61,31.87 33.17,58.44 58.8,59.5 19.6,0 25.63,-11.69 33.16,-23.38 9.05,-10.62 16.58,-21.25 24.12,-32.94 16.58,-24.44 33.16,-46.75 49.75,-69.07 36.18,-54.19 88.95,-122.2 122.11,-172.14 10.55,-17 1.51,-30.81 -13.57,-36.13 -10.55,-4.25 -102.51,-4.25 -113.06,0 -13.57,4.25 -19.6,18.07 -28.64,29.75 -7.54,11.69 -16.58,24.44 -24.12,35.06 -9.05,11.69 -15.08,21.25 -24.12,34 -7.54,10.63 -16.58,25.5 -25.63,35.07z"/>
      <path class="fil0" d="M3684.03 1840.24c7.54,5.31 19.6,25.5 25.63,32.94 13.57,20.19 63.32,94.57 75.38,99.88 10.55,4.25 99.5,4.25 113.06,1.06 15.07,-3.19 25.63,-17 16.58,-34 -4.52,-9.56 -18.09,-26.56 -24.12,-35.06 -16.58,-22.32 -31.66,-44.63 -48.24,-68.01l-122.11 -172.14c-7.54,-11.69 -15.08,-24.44 -36.18,-24.44 -21.11,0 -25.63,12.75 -33.17,24.44l-122.11 170.01c-16.58,22.31 -33.17,45.69 -48.24,69.07 -12.06,17 -49.75,54.19 -12.06,69.07 10.55,4.25 102.51,4.25 114.57,1.06 13.57,-4.25 42.21,-49.94 52.76,-64.82 16.58,-24.44 34.67,-45.69 48.24,-69.07z"/>
      <path class="fil0" d="M3001.24 2172.83c-21.1,-18.06 -81.4,-125.38 -101,-132.82 -10.55,-4.25 -102.51,-4.25 -114.57,-1.06 -12.06,4.25 -24.12,19.13 -15.07,35.06l195.98 275.21c7.54,11.69 15.07,23.38 34.67,23.38 19.6,0 24.12,-10.63 33.17,-22.32l195.98 -274.14c7.54,-14.88 1.51,-30.81 -13.57,-36.13 -9.05,-3.19 -102.51,-3.19 -113.06,0 -16.58,5.31 -63.32,78.63 -76.89,97.76 -9.05,11.69 -16.58,23.38 -25.63,35.06z"/>
      <path class="fil0" d="M3334.22 2247.21c22.61,22.31 79.9,125.38 101,132.82 10.55,3.19 102.51,4.25 113.06,0 13.57,-4.25 24.12,-18.06 15.08,-34 -6.03,-10.62 -16.58,-24.44 -24.12,-35.06l-170.35 -240.14c-21.11,-31.88 -46.73,-34 -69.35,-1.06l-72.36 103.07c-33.16,45.69 -64.82,91.38 -97.99,137.07 -7.54,11.69 -18.09,23.38 -24.12,34 -9.05,14.88 -1.51,30.82 13.57,36.13 9.05,3.19 101,3.19 111.56,0 15.07,-4.25 19.6,-17 28.64,-29.75 9.05,-12.75 16.58,-22.31 25.63,-34 7.54,-12.75 15.08,-23.38 24.12,-34 7.54,-11.69 16.58,-26.56 25.63,-35.06z"/>
      <path class="fil0" d="M3356.12 1766.92c-7.54,-9.56 -15.07,-22.31 -24.12,-32.94l-48.24 -68c-6.03,-10.63 -16.58,-27.63 -27.14,-31.88 -12.06,-4.25 -101,-4.25 -113.07,-1.06 -13.57,4.25 -25.63,18.07 -16.58,34l194.47 274.14c9.05,12.75 13.57,25.5 34.67,25.5 21.11,1.06 27.14,-11.69 34.67,-23.38l73.87 -103.07c16.58,-22.32 31.66,-44.63 48.24,-66.94l72.36 -103.07c12.06,-15.94 1.51,-30.82 -12.06,-36.13 -10.55,-4.25 -102.51,-4.25 -114.57,0 -13.57,4.25 -42.21,49.94 -52.76,64.82 -7.54,11.69 -15.08,22.31 -24.12,34 -4.52,6.38 -19.6,29.75 -25.63,34z"/>
      <path class="fil0" d="M2668.31 2247.21c22.61,22.31 79.9,125.38 101,132.82 10.55,3.19 102.51,4.25 113.06,0 13.57,-4.25 24.12,-18.06 15.08,-34 -6.03,-10.62 -16.58,-24.44 -24.12,-35.06l-170.35 -240.14c-21.11,-31.88 -46.73,-34 -69.35,-1.06l-72.36 103.07c-33.16,45.69 -64.82,91.38 -97.99,137.07 -7.54,11.69 -18.09,23.38 -24.12,34 -9.05,14.88 -1.51,30.82 13.57,36.13 9.05,3.19 101,3.19 111.56,0 15.07,-4.25 19.6,-17 28.64,-29.75 9.05,-12.75 16.58,-22.31 25.63,-34 7.54,-12.75 15.08,-23.38 24.12,-34 7.54,-11.69 16.58,-26.56 25.63,-35.06z"/>
      <path class="fil0" d="M2685.14 1766.92c-7.54,-9.56 -15.07,-22.31 -24.12,-32.94l-48.24 -68c-6.03,-10.63 -16.58,-27.63 -27.14,-31.88 -12.06,-4.25 -101,-4.25 -113.07,-1.06 -13.57,4.25 -25.63,18.07 -16.58,34l194.47 274.14c9.05,12.75 13.57,25.5 34.67,25.5 21.11,1.06 27.14,-11.69 34.67,-23.38l73.87 -103.07c16.58,-22.32 31.66,-44.63 48.24,-66.94l72.36 -103.07c12.06,-15.94 1.51,-30.82 -12.06,-36.13 -10.55,-4.25 -102.51,-4.25 -114.57,0 -13.57,4.25 -42.21,49.94 -52.76,64.82 -7.54,11.69 -15.08,22.31 -24.12,34 -4.52,6.38 -19.6,29.75 -25.63,34z"/>
     </g>
     <g>
      <path class="fil0" d="M1690.04 1831.74c25.63,39.31 57.29,80.75 84.42,119.01 4.52,6.38 7.54,10.63 15.07,13.81 12.06,4.25 101,4.25 113.06,1.06 15.08,-4.25 25.63,-21.25 15.08,-37.19 -18.09,-28.69 -99.5,-139.2 -122.11,-171.07l-72.36 -102.01c-7.54,-11.69 -13.57,-24.44 -36.18,-23.38 -22.61,0 -40.7,32.94 -57.29,58.44l-170.35 239.08c-10.55,17 1.51,31.88 15.07,36.13 12.06,3.19 102.51,3.19 113.07,-1.06 15.07,-6.38 63.31,-80.75 76.88,-98.82l25.63 -34z"/>
      <path class="fil0" d="M2335.14 2173.89l-70.85 -99.88c-7.54,-11.69 -16.58,-26.56 -28.64,-32.94 -10.55,-5.31 -97.99,-5.31 -111.56,-2.13 -16.58,3.19 -28.64,17 -19.6,35.06l171.86 240.14c22.61,31.87 33.17,58.44 58.8,59.5 19.6,0 25.63,-11.69 33.16,-23.38 9.05,-10.62 16.58,-21.25 24.12,-32.94 16.58,-24.44 33.16,-46.75 49.75,-69.07 36.18,-54.19 88.95,-122.2 122.11,-172.14 10.55,-17 1.51,-30.81 -13.57,-36.13 -10.55,-4.25 -102.51,-4.25 -113.06,0 -13.57,4.25 -19.6,18.07 -28.64,29.75 -7.54,11.69 -16.58,24.44 -24.12,35.06 -9.05,11.69 -15.08,21.25 -24.12,34 -7.54,10.63 -16.58,25.5 -25.63,35.07z"/>
      <path class="fil0" d="M2353.23 1840.24c7.54,5.31 19.6,25.5 25.63,32.94 13.57,20.19 63.32,94.57 75.38,99.88 10.55,4.25 99.5,4.25 113.06,1.06 15.07,-3.19 25.63,-17 16.58,-34 -4.52,-9.56 -18.09,-26.56 -24.12,-35.06 -16.58,-22.32 -31.66,-44.63 -48.24,-68.01l-122.11 -172.14c-7.54,-11.69 -15.08,-24.44 -36.18,-24.44 -21.11,0 -25.63,12.75 -33.17,24.44l-122.11 170.01c-16.58,22.31 -33.17,45.69 -48.24,69.07 -12.06,17 -49.75,54.19 -12.06,69.07 10.55,4.25 102.51,4.25 114.57,1.06 13.57,-4.25 42.21,-49.94 52.76,-64.82 16.58,-24.44 34.67,-45.69 48.24,-69.07z"/>
      <path class="fil0" d="M1670.44 2172.83c-21.1,-18.06 -81.4,-125.38 -101,-132.82 -10.55,-4.25 -102.51,-4.25 -114.57,-1.06 -12.06,4.25 -24.12,19.13 -15.07,35.06l195.98 275.21c7.54,11.69 15.07,23.38 34.67,23.38 19.6,0 24.12,-10.63 33.17,-22.32l195.98 -274.14c7.54,-14.88 1.51,-30.81 -13.57,-36.13 -9.05,-3.19 -102.51,-3.19 -113.06,0 -16.58,5.31 -63.32,78.63 -76.89,97.76 -9.05,11.69 -16.58,23.38 -25.63,35.06z"/>
      <path class="fil0" d="M2003.42 2247.21c22.61,22.31 79.9,125.38 101,132.82 10.55,3.19 102.51,4.25 113.06,0 13.57,-4.25 24.12,-18.06 15.08,-34 -6.03,-10.62 -16.58,-24.44 -24.12,-35.06l-170.35 -240.14c-21.11,-31.88 -46.73,-34 -69.35,-1.06l-72.36 103.07c-33.16,45.69 -64.82,91.38 -97.99,137.07 -7.54,11.69 -18.09,23.38 -24.12,34 -9.05,14.88 -1.51,30.82 13.57,36.13 9.05,3.19 101,3.19 111.56,0 15.07,-4.25 19.6,-17 28.64,-29.75 9.05,-12.75 16.58,-22.31 25.63,-34 7.54,-12.75 15.08,-23.38 24.12,-34 7.54,-11.69 16.58,-26.56 25.63,-35.06z"/>
      <path class="fil0" d="M2025.32 1766.92c-7.54,-9.56 -15.07,-22.31 -24.12,-32.94l-48.24 -68c-6.03,-10.63 -16.58,-27.63 -27.14,-31.88 -12.06,-4.25 -101,-4.25 -113.07,-1.06 -13.57,4.25 -25.63,18.07 -16.58,34l194.47 274.14c9.05,12.75 13.57,25.5 34.67,25.5 21.11,1.06 27.14,-11.69 34.67,-23.38l73.87 -103.07c16.58,-22.32 31.66,-44.63 48.24,-66.94l72.36 -103.07c12.06,-15.94 1.51,-30.82 -12.06,-36.13 -10.55,-4.25 -102.51,-4.25 -114.57,0 -13.57,4.25 -42.21,49.94 -52.76,64.82 -7.54,11.69 -15.08,22.31 -24.12,34 -4.52,6.38 -19.6,29.75 -25.63,34z"/>
      <path class="fil0" d="M1337.51 2247.21c22.61,22.31 79.9,125.38 101,132.82 10.55,3.19 102.51,4.25 113.06,0 13.57,-4.25 24.12,-18.06 15.08,-34 -6.03,-10.62 -16.58,-24.44 -24.12,-35.06l-170.35 -240.14c-21.11,-31.88 -46.73,-34 -69.35,-1.06l-72.36 103.07c-33.16,45.69 -64.82,91.38 -97.99,137.07 -7.54,11.69 -18.09,23.38 -24.12,34 -9.05,14.88 -1.51,30.82 13.57,36.13 9.05,3.19 101,3.19 111.56,0 15.07,-4.25 19.6,-17 28.64,-29.75 9.05,-12.75 16.58,-22.31 25.63,-34 7.54,-12.75 15.08,-23.38 24.12,-34 7.54,-11.69 16.58,-26.56 25.63,-35.06z"/>
      <path class="fil0" d="M1354.34 1766.92c-7.54,-9.56 -15.07,-22.31 -24.12,-32.94l-48.24 -68c-6.03,-10.63 -16.58,-27.63 -27.14,-31.88 -12.06,-4.25 -101,-4.25 -113.07,-1.06 -13.57,4.25 -25.63,18.07 -16.58,34l194.47 274.14c9.05,12.75 13.57,25.5 34.67,25.5 21.11,1.06 27.14,-11.69 34.67,-23.38l73.87 -103.07c16.58,-22.32 31.66,-44.63 48.24,-66.94l72.36 -103.07c12.06,-15.94 1.51,-30.82 -12.06,-36.13 -10.55,-4.25 -102.51,-4.25 -114.57,0 -13.57,4.25 -42.21,49.94 -52.76,64.82 -7.54,11.69 -15.08,22.31 -24.12,34 -4.52,6.38 -19.6,29.75 -25.63,34z"/>
     </g>
     <g>
      <path class="fil0" d="M359.24 1831.74c25.63,39.31 57.29,80.75 84.42,119.01 4.52,6.38 7.54,10.63 15.07,13.81 12.06,4.25 101,4.25 113.06,1.06 15.08,-4.25 25.63,-21.25 15.08,-37.19 -18.09,-28.69 -99.5,-139.2 -122.11,-171.07l-72.36 -102.01c-7.54,-11.69 -13.57,-24.44 -36.18,-23.38 -22.61,0 -40.7,32.94 -57.29,58.44l-170.35 239.08c-10.55,17 1.51,31.88 15.07,36.13 12.06,3.19 102.51,3.19 113.07,-1.06 15.07,-6.38 63.31,-80.75 76.88,-98.82l25.63 -34z"/>
      <path class="fil0" d="M1004.34 2173.89l-70.85 -99.88c-7.54,-11.69 -16.58,-26.56 -28.64,-32.94 -10.55,-5.31 -97.99,-5.31 -111.56,-2.13 -16.58,3.19 -28.64,17 -19.6,35.06l171.86 240.14c22.61,31.87 33.17,58.44 58.8,59.5 19.6,0 25.63,-11.69 33.16,-23.38 9.05,-10.62 16.58,-21.25 24.12,-32.94 16.58,-24.44 33.16,-46.75 49.75,-69.07 36.18,-54.19 88.95,-122.2 122.11,-172.14 10.55,-17 1.51,-30.81 -13.57,-36.13 -10.55,-4.25 -102.51,-4.25 -113.06,0 -13.57,4.25 -19.6,18.07 -28.64,29.75 -7.54,11.69 -16.58,24.44 -24.12,35.06 -9.05,11.69 -15.08,21.25 -24.12,34 -7.54,10.63 -16.58,25.5 -25.63,35.07z"/>
      <path class="fil0" d="M1022.43 1840.24c7.54,5.31 19.6,25.5 25.63,32.94 13.57,20.19 63.32,94.57 75.38,99.88 10.55,4.25 99.5,4.25 113.06,1.06 15.07,-3.19 25.63,-17 16.58,-34 -4.52,-9.56 -18.09,-26.56 -24.12,-35.06 -16.58,-22.32 -31.66,-44.63 -48.24,-68.01l-122.11 -172.14c-7.54,-11.69 -15.08,-24.44 -36.18,-24.44 -21.11,0 -25.63,12.75 -33.17,24.44l-122.11 170.01c-16.58,22.31 -33.17,45.69 -48.24,69.07 -12.06,17 -49.75,54.19 -12.06,69.07 10.55,4.25 102.51,4.25 114.57,1.06 13.57,-4.25 42.21,-49.94 52.76,-64.82 16.58,-24.44 34.67,-45.69 48.24,-69.07z"/>
      <path class="fil0" d="M339.64 2172.83c-21.1,-18.06 -81.4,-125.38 -101,-132.82 -10.55,-4.25 -102.51,-4.25 -114.57,-1.06 -12.06,4.25 -24.12,19.13 -15.07,35.06l195.98 275.21c7.54,11.69 15.07,23.38 34.67,23.38 19.6,0 24.12,-10.63 33.17,-22.32l195.98 -274.14c7.54,-14.88 1.51,-30.81 -13.57,-36.13 -9.05,-3.19 -102.51,-3.19 -113.06,0 -16.58,5.31 -63.32,78.63 -76.89,97.76 -9.05,11.69 -16.58,23.38 -25.63,35.06z"/>
      <path class="fil0" d="M672.62 2247.21c22.61,22.31 79.9,125.38 101,132.82 10.55,3.19 102.51,4.25 113.06,0 13.57,-4.25 24.12,-18.06 15.08,-34 -6.03,-10.62 -16.58,-24.44 -24.12,-35.06l-170.35 -240.14c-21.11,-31.88 -46.73,-34 -69.35,-1.06l-72.36 103.07c-33.16,45.69 -64.82,91.38 -97.99,137.07 -7.54,11.69 -18.09,23.38 -24.12,34 -9.05,14.88 -1.51,30.82 13.57,36.13 9.05,3.19 101,3.19 111.56,0 15.07,-4.25 19.6,-17 28.64,-29.75 9.05,-12.75 16.58,-22.31 25.63,-34 7.54,-12.75 15.08,-23.38 24.12,-34 7.54,-11.69 16.58,-26.56 25.63,-35.06z"/>
      <path class="fil0" d="M694.52 1766.92c-7.54,-9.56 -15.07,-22.31 -24.12,-32.94l-48.24 -68c-6.03,-10.63 -16.58,-27.63 -27.14,-31.88 -12.06,-4.25 -101,-4.25 -113.07,-1.06 -13.57,4.25 -25.63,18.07 -16.58,34l194.47 274.14c9.05,12.75 13.57,25.5 34.67,25.5 21.11,1.06 27.14,-11.69 34.67,-23.38l73.87 -103.07c16.58,-22.32 31.66,-44.63 48.24,-66.94l72.36 -103.07c12.06,-15.94 1.51,-30.82 -12.06,-36.13 -10.55,-4.25 -102.51,-4.25 -114.57,0 -13.57,4.25 -42.21,49.94 -52.76,64.82 -7.54,11.69 -15.08,22.31 -24.12,34 -4.52,6.38 -19.6,29.75 -25.63,34z"/>
      <path class="fil0" d="M6.71 2247.21c22.61,22.31 79.9,125.38 101,132.82 10.55,3.19 102.51,4.25 113.06,0 13.57,-4.25 24.12,-18.06 15.08,-34 -6.03,-10.62 -16.58,-24.44 -24.12,-35.06l-170.35 -240.14c-12.71,-19.19 -27.05,-27.59 -41.38,-24.06l0 207.81c2.22,-2.75 4.47,-5.25 6.71,-7.36z"/>
      <path class="fil0" d="M23.54 1766.92c-7.37,-9.36 -14.75,-21.76 -23.54,-32.25l0 222.28c5.12,5.74 11.74,9.73 23.54,9.73 21.11,1.06 27.14,-11.69 34.67,-23.38l73.87 -103.07c16.58,-22.32 31.66,-44.63 48.24,-66.94l72.36 -103.07c12.06,-15.94 1.51,-30.82 -12.06,-36.13 -10.55,-4.25 -102.51,-4.25 -114.57,0 -13.57,4.25 -42.21,49.94 -52.76,64.82 -7.54,11.69 -15.08,22.31 -24.12,34 -4.52,6.38 -19.6,29.75 -25.63,34z"/>
     </g>
    </g>
    <g>
     <g>
      <path class="fil0" d="M4351.64 1016.36c25.63,39.31 57.29,80.75 84.42,119.01 4.52,6.38 7.54,10.63 15.07,13.81 12.06,4.25 101,4.25 113.06,1.06 15.08,-4.25 25.63,-21.25 15.08,-37.19 -18.09,-28.69 -99.5,-139.2 -122.11,-171.07l-72.36 -102.01c-7.54,-11.69 -13.57,-24.44 -36.18,-23.38 -22.61,0 -40.7,32.94 -57.29,58.44l-170.35 239.08c-10.55,17 1.51,31.88 15.07,36.13 12.06,3.19 102.51,3.19 113.07,-1.06 15.07,-6.38 63.31,-80.75 76.88,-98.82l25.63 -34z"/>
      <path class="fil0" d="M4996.74 1358.51l-70.85 -99.88c-7.54,-11.69 -16.58,-26.56 -28.64,-32.94 -10.55,-5.31 -97.99,-5.31 -111.56,-2.13 -16.58,3.19 -28.64,17 -19.6,35.06l171.86 240.14c22.61,31.87 33.17,58.44 58.8,59.5 19.6,0 25.63,-11.69 33.16,-23.38 9.05,-10.62 16.58,-21.25 24.12,-32.94 16.58,-24.44 33.16,-46.75 49.75,-69.07 36.18,-54.19 88.95,-122.2 122.11,-172.14 10.55,-17 1.51,-30.81 -13.57,-36.13 -10.55,-4.25 -102.51,-4.25 -113.06,0 -13.57,4.25 -19.6,18.07 -28.64,29.75 -7.54,11.69 -16.58,24.44 -24.12,35.06 -9.05,11.69 -15.08,21.25 -24.12,34 -7.54,10.63 -16.58,25.5 -25.63,35.07z"/>
      <path class="fil0" d="M5014.83 1024.86c7.54,5.31 19.6,25.5 25.63,32.94 13.57,20.19 63.32,94.57 75.38,99.88 10.55,4.25 99.5,4.25 113.06,1.06 15.07,-3.19 25.63,-17 16.58,-34 -4.52,-9.56 -18.09,-26.56 -24.12,-35.06 -16.58,-22.32 -31.66,-44.63 -48.24,-68.01l-122.11 -172.14c-7.54,-11.69 -15.08,-24.44 -36.18,-24.44 -21.11,0 -25.63,12.75 -33.17,24.44l-122.11 170.01c-16.58,22.31 -33.17,45.69 -48.24,69.07 -12.06,17 -49.75,54.19 -12.06,69.07 10.55,4.25 102.51,4.25 114.57,1.06 13.57,-4.25 42.21,-49.94 52.76,-64.82 16.58,-24.44 34.67,-45.69 48.24,-69.07z"/>
      <path class="fil0" d="M4332.04 1357.44c-21.1,-18.06 -81.4,-125.38 -101,-132.82 -10.55,-4.25 -102.51,-4.25 -114.57,-1.06 -12.06,4.25 -24.12,19.13 -15.07,35.06l195.98 275.21c7.54,11.69 15.07,23.38 34.67,23.38 19.6,0 24.12,-10.63 33.17,-22.32l195.98 -274.14c7.54,-14.88 1.51,-30.81 -13.57,-36.13 -9.05,-3.19 -102.51,-3.19 -113.06,0 -16.58,5.31 -63.32,78.63 -76.89,97.76 -9.05,11.69 -16.58,23.38 -25.63,35.06z"/>
      <path class="fil0" d="M4665.02 1431.82c22.61,22.31 79.9,125.38 101,132.82 10.55,3.19 102.51,4.25 113.06,0 13.57,-4.25 24.12,-18.06 15.08,-34 -6.03,-10.62 -16.58,-24.44 -24.12,-35.06l-170.35 -240.14c-21.11,-31.88 -46.73,-34 -69.35,-1.06l-72.36 103.07c-33.16,45.69 -64.82,91.38 -97.99,137.07 -7.54,11.69 -18.09,23.38 -24.12,34 -9.05,14.88 -1.51,30.82 13.57,36.13 9.05,3.19 101,3.19 111.56,0 15.07,-4.25 19.6,-17 28.64,-29.75 9.05,-12.75 16.58,-22.31 25.63,-34 7.54,-12.75 15.08,-23.38 24.12,-34 7.54,-11.69 16.58,-26.56 25.63,-35.06z"/>
      <path class="fil0" d="M4686.92 951.54c-7.54,-9.56 -15.07,-22.31 -24.12,-32.94l-48.24 -68c-6.03,-10.63 -16.58,-27.63 -27.14,-31.88 -12.06,-4.25 -101,-4.25 -113.07,-1.06 -13.57,4.25 -25.63,18.07 -16.58,34l194.47 274.14c9.05,12.75 13.57,25.5 34.67,25.5 21.11,1.06 27.14,-11.69 34.67,-23.38l73.87 -103.07c16.58,-22.32 31.66,-44.63 48.24,-66.94l72.36 -103.07c12.06,-15.94 1.51,-30.82 -12.06,-36.13 -10.55,-4.25 -102.51,-4.25 -114.57,0 -13.57,4.25 -42.21,49.94 -52.76,64.82 -7.54,11.69 -15.08,22.31 -24.12,34 -4.52,6.38 -19.6,29.75 -25.63,34z"/>
      <path class="fil0" d="M3999.11 1431.82c22.61,22.31 79.9,125.38 101,132.82 10.55,3.19 102.51,4.25 113.06,0 13.57,-4.25 24.12,-18.06 15.08,-34 -6.03,-10.62 -16.58,-24.44 -24.12,-35.06l-170.35 -240.14c-21.11,-31.88 -46.73,-34 -69.35,-1.06l-72.36 103.07c-33.16,45.69 -64.82,91.38 -97.99,137.07 -7.54,11.69 -18.09,23.38 -24.12,34 -9.05,14.88 -1.51,30.82 13.57,36.13 9.05,3.19 101,3.19 111.56,0 15.07,-4.25 19.6,-17 28.64,-29.75 9.05,-12.75 16.58,-22.31 25.63,-34 7.54,-12.75 15.08,-23.38 24.12,-34 7.54,-11.69 16.58,-26.56 25.63,-35.06z"/>
      <path class="fil0" d="M4015.94 951.54c-7.54,-9.56 -15.07,-22.31 -24.12,-32.94l-48.24 -68c-6.03,-10.63 -16.58,-27.63 -27.14,-31.88 -12.06,-4.25 -101,-4.25 -113.07,-1.06 -13.57,4.25 -25.63,18.07 -16.58,34l194.47 274.14c9.05,12.75 13.57,25.5 34.67,25.5 21.11,1.06 27.14,-11.69 34.67,-23.38l73.87 -103.07c16.58,-22.32 31.66,-44.63 48.24,-66.94l72.36 -103.07c12.06,-15.94 1.51,-30.82 -12.06,-36.13 -10.55,-4.25 -102.51,-4.25 -114.57,0 -13.57,4.25 -42.21,49.94 -52.76,64.82 -7.54,11.69 -15.08,22.31 -24.12,34 -4.52,6.38 -19.6,29.75 -25.63,34z"/>
     </g>
     <g>
      <path class="fil0" d="M3020.84 1016.36c25.63,39.31 57.29,80.75 84.42,119.01 4.52,6.38 7.54,10.63 15.07,13.81 12.06,4.25 101,4.25 113.06,1.06 15.08,-4.25 25.63,-21.25 15.08,-37.19 -18.09,-28.69 -99.5,-139.2 -122.11,-171.07l-72.36 -102.01c-7.54,-11.69 -13.57,-24.44 -36.18,-23.38 -22.61,0 -40.7,32.94 -57.29,58.44l-170.35 239.08c-10.55,17 1.51,31.88 15.07,36.13 12.06,3.19 102.51,3.19 113.07,-1.06 15.07,-6.38 63.31,-80.75 76.88,-98.82l25.63 -34z"/>
      <path class="fil0" d="M3665.94 1358.51l-70.85 -99.88c-7.54,-11.69 -16.58,-26.56 -28.64,-32.94 -10.55,-5.31 -97.99,-5.31 -111.56,-2.13 -16.58,3.19 -28.64,17 -19.6,35.06l171.86 240.14c22.61,31.87 33.17,58.44 58.8,59.5 19.6,0 25.63,-11.69 33.16,-23.38 9.05,-10.62 16.58,-21.25 24.12,-32.94 16.58,-24.44 33.16,-46.75 49.75,-69.07 36.18,-54.19 88.95,-122.2 122.11,-172.14 10.55,-17 1.51,-30.81 -13.57,-36.13 -10.55,-4.25 -102.51,-4.25 -113.06,0 -13.57,4.25 -19.6,18.07 -28.64,29.75 -7.54,11.69 -16.58,24.44 -24.12,35.06 -9.05,11.69 -15.08,21.25 -24.12,34 -7.54,10.63 -16.58,25.5 -25.63,35.07z"/>
      <path class="fil0" d="M3684.03 1024.86c7.54,5.31 19.6,25.5 25.63,32.94 13.57,20.19 63.32,94.57 75.38,99.88 10.55,4.25 99.5,4.25 113.06,1.06 15.07,-3.19 25.63,-17 16.58,-34 -4.52,-9.56 -18.09,-26.56 -24.12,-35.06 -16.58,-22.32 -31.66,-44.63 -48.24,-68.01l-122.11 -172.14c-7.54,-11.69 -15.08,-24.44 -36.18,-24.44 -21.11,0 -25.63,12.75 -33.17,24.44l-122.11 170.01c-16.58,22.31 -33.17,45.69 -48.24,69.07 -12.06,17 -49.75,54.19 -12.06,69.07 10.55,4.25 102.51,4.25 114.57,1.06 13.57,-4.25 42.21,-49.94 52.76,-64.82 16.58,-24.44 34.67,-45.69 48.24,-69.07z"/>
      <path class="fil0" d="M3001.24 1357.44c-21.1,-18.06 -81.4,-125.38 -101,-132.82 -10.55,-4.25 -102.51,-4.25 -114.57,-1.06 -12.06,4.25 -24.12,19.13 -15.07,35.06l195.98 275.21c7.54,11.69 15.07,23.38 34.67,23.38 19.6,0 24.12,-10.63 33.17,-22.32l195.98 -274.14c7.54,-14.88 1.51,-30.81 -13.57,-36.13 -9.05,-3.19 -102.51,-3.19 -113.06,0 -16.58,5.31 -63.32,78.63 -76.89,97.76 -9.05,11.69 -16.58,23.38 -25.63,35.06z"/>
      <path class="fil0" d="M3334.22 1431.82c22.61,22.31 79.9,125.38 101,132.82 10.55,3.19 102.51,4.25 113.06,0 13.57,-4.25 24.12,-18.06 15.08,-34 -6.03,-10.62 -16.58,-24.44 -24.12,-35.06l-170.35 -240.14c-21.11,-31.88 -46.73,-34 -69.35,-1.06l-72.36 103.07c-33.16,45.69 -64.82,91.38 -97.99,137.07 -7.54,11.69 -18.09,23.38 -24.12,34 -9.05,14.88 -1.51,30.82 13.57,36.13 9.05,3.19 101,3.19 111.56,0 15.07,-4.25 19.6,-17 28.64,-29.75 9.05,-12.75 16.58,-22.31 25.63,-34 7.54,-12.75 15.08,-23.38 24.12,-34 7.54,-11.69 16.58,-26.56 25.63,-35.06z"/>
      <path class="fil0" d="M3356.12 951.54c-7.54,-9.56 -15.07,-22.31 -24.12,-32.94l-48.24 -68c-6.03,-10.63 -16.58,-27.63 -27.14,-31.88 -12.06,-4.25 -101,-4.25 -113.07,-1.06 -13.57,4.25 -25.63,18.07 -16.58,34l194.47 274.14c9.05,12.75 13.57,25.5 34.67,25.5 21.11,1.06 27.14,-11.69 34.67,-23.38l73.87 -103.07c16.58,-22.32 31.66,-44.63 48.24,-66.94l72.36 -103.07c12.06,-15.94 1.51,-30.82 -12.06,-36.13 -10.55,-4.25 -102.51,-4.25 -114.57,0 -13.57,4.25 -42.21,49.94 -52.76,64.82 -7.54,11.69 -15.08,22.31 -24.12,34 -4.52,6.38 -19.6,29.75 -25.63,34z"/>
      <path class="fil0" d="M2668.31 1431.82c22.61,22.31 79.9,125.38 101,132.82 10.55,3.19 102.51,4.25 113.06,0 13.57,-4.25 24.12,-18.06 15.08,-34 -6.03,-10.62 -16.58,-24.44 -24.12,-35.06l-170.35 -240.14c-21.11,-31.88 -46.73,-34 -69.35,-1.06l-72.36 103.07c-33.16,45.69 -64.82,91.38 -97.99,137.07 -7.54,11.69 -18.09,23.38 -24.12,34 -9.05,14.88 -1.51,30.82 13.57,36.13 9.05,3.19 101,3.19 111.56,0 15.07,-4.25 19.6,-17 28.64,-29.75 9.05,-12.75 16.58,-22.31 25.63,-34 7.54,-12.75 15.08,-23.38 24.12,-34 7.54,-11.69 16.58,-26.56 25.63,-35.06z"/>
      <path class="fil0" d="M2685.14 951.54c-7.54,-9.56 -15.07,-22.31 -24.12,-32.94l-48.24 -68c-6.03,-10.63 -16.58,-27.63 -27.14,-31.88 -12.06,-4.25 -101,-4.25 -113.07,-1.06 -13.57,4.25 -25.63,18.07 -16.58,34l194.47 274.14c9.05,12.75 13.57,25.5 34.67,25.5 21.11,1.06 27.14,-11.69 34.67,-23.38l73.87 -103.07c16.58,-22.32 31.66,-44.63 48.24,-66.94l72.36 -103.07c12.06,-15.94 1.51,-30.82 -12.06,-36.13 -10.55,-4.25 -102.51,-4.25 -114.57,0 -13.57,4.25 -42.21,49.94 -52.76,64.82 -7.54,11.69 -15.08,22.31 -24.12,34 -4.52,6.38 -19.6,29.75 -25.63,34z"/>
     </g>
     <g>
      <path class="fil0" d="M1690.04 1016.36c25.63,39.31 57.29,80.75 84.42,119.01 4.52,6.38 7.54,10.63 15.07,13.81 12.06,4.25 101,4.25 113.06,1.06 15.08,-4.25 25.63,-21.25 15.08,-37.19 -18.09,-28.69 -99.5,-139.2 -122.11,-171.07l-72.36 -102.01c-7.54,-11.69 -13.57,-24.44 -36.18,-23.38 -22.61,0 -40.7,32.94 -57.29,58.44l-170.35 239.08c-10.55,17 1.51,31.88 15.07,36.13 12.06,3.19 102.51,3.19 113.07,-1.06 15.07,-6.38 63.31,-80.75 76.88,-98.82l25.63 -34z"/>
      <path class="fil0" d="M2335.14 1358.51l-70.85 -99.88c-7.54,-11.69 -16.58,-26.56 -28.64,-32.94 -10.55,-5.31 -97.99,-5.31 -111.56,-2.13 -16.58,3.19 -28.64,17 -19.6,35.06l171.86 240.14c22.61,31.87 33.17,58.44 58.8,59.5 19.6,0 25.63,-11.69 33.16,-23.38 9.05,-10.62 16.58,-21.25 24.12,-32.94 16.58,-24.44 33.16,-46.75 49.75,-69.07 36.18,-54.19 88.95,-122.2 122.11,-172.14 10.55,-17 1.51,-30.81 -13.57,-36.13 -10.55,-4.25 -102.51,-4.25 -113.06,0 -13.57,4.25 -19.6,18.07 -28.64,29.75 -7.54,11.69 -16.58,24.44 -24.12,35.06 -9.05,11.69 -15.08,21.25 -24.12,34 -7.54,10.63 -16.58,25.5 -25.63,35.07z"/>
      <path class="fil0" d="M2353.23 1024.86c7.54,5.31 19.6,25.5 25.63,32.94 13.57,20.19 63.32,94.57 75.38,99.88 10.55,4.25 99.5,4.25 113.06,1.06 15.07,-3.19 25.63,-17 16.58,-34 -4.52,-9.56 -18.09,-26.56 -24.12,-35.06 -16.58,-22.32 -31.66,-44.63 -48.24,-68.01l-122.11 -172.14c-7.54,-11.69 -15.08,-24.44 -36.18,-24.44 -21.11,0 -25.63,12.75 -33.17,24.44l-122.11 170.01c-16.58,22.31 -33.17,45.69 -48.24,69.07 -12.06,17 -49.75,54.19 -12.06,69.07 10.55,4.25 102.51,4.25 114.57,1.06 13.57,-4.25 42.21,-49.94 52.76,-64.82 16.58,-24.44 34.67,-45.69 48.24,-69.07z"/>
      <path class="fil0" d="M1670.44 1357.44c-21.1,-18.06 -81.4,-125.38 -101,-132.82 -10.55,-4.25 -102.51,-4.25 -114.57,-1.06 -12.06,4.25 -24.12,19.13 -15.07,35.06l195.98 275.21c7.54,11.69 15.07,23.38 34.67,23.38 19.6,0 24.12,-10.63 33.17,-22.32l195.98 -274.14c7.54,-14.88 1.51,-30.81 -13.57,-36.13 -9.05,-3.19 -102.51,-3.19 -113.06,0 -16.58,5.31 -63.32,78.63 -76.89,97.76 -9.05,11.69 -16.58,23.38 -25.63,35.06z"/>
      <path class="fil0" d="M2003.42 1431.82c22.61,22.31 79.9,125.38 101,132.82 10.55,3.19 102.51,4.25 113.06,0 13.57,-4.25 24.12,-18.06 15.08,-34 -6.03,-10.62 -16.58,-24.44 -24.12,-35.06l-170.35 -240.14c-21.11,-31.88 -46.73,-34 -69.35,-1.06l-72.36 103.07c-33.16,45.69 -64.82,91.38 -97.99,137.07 -7.54,11.69 -18.09,23.38 -24.12,34 -9.05,14.88 -1.51,30.82 13.57,36.13 9.05,3.19 101,3.19 111.56,0 15.07,-4.25 19.6,-17 28.64,-29.75 9.05,-12.75 16.58,-22.31 25.63,-34 7.54,-12.75 15.08,-23.38 24.12,-34 7.54,-11.69 16.58,-26.56 25.63,-35.06z"/>
      <path class="fil0" d="M2025.32 951.54c-7.54,-9.56 -15.07,-22.31 -24.12,-32.94l-48.24 -68c-6.03,-10.63 -16.58,-27.63 -27.14,-31.88 -12.06,-4.25 -101,-4.25 -113.07,-1.06 -13.57,4.25 -25.63,18.07 -16.58,34l194.47 274.14c9.05,12.75 13.57,25.5 34.67,25.5 21.11,1.06 27.14,-11.69 34.67,-23.38l73.87 -103.07c16.58,-22.32 31.66,-44.63 48.24,-66.94l72.36 -103.07c12.06,-15.94 1.51,-30.82 -12.06,-36.13 -10.55,-4.25 -102.51,-4.25 -114.57,0 -13.57,4.25 -42.21,49.94 -52.76,64.82 -7.54,11.69 -15.08,22.31 -24.12,34 -4.52,6.38 -19.6,29.75 -25.63,34z"/>
      <path class="fil0" d="M1337.51 1431.82c22.61,22.31 79.9,125.38 101,132.82 10.55,3.19 102.51,4.25 113.06,0 13.57,-4.25 24.12,-18.06 15.08,-34 -6.03,-10.62 -16.58,-24.44 -24.12,-35.06l-170.35 -240.14c-21.11,-31.88 -46.73,-34 -69.35,-1.06l-72.36 103.07c-33.16,45.69 -64.82,91.38 -97.99,137.07 -7.54,11.69 -18.09,23.38 -24.12,34 -9.05,14.88 -1.51,30.82 13.57,36.13 9.05,3.19 101,3.19 111.56,0 15.07,-4.25 19.6,-17 28.64,-29.75 9.05,-12.75 16.58,-22.31 25.63,-34 7.54,-12.75 15.08,-23.38 24.12,-34 7.54,-11.69 16.58,-26.56 25.63,-35.06z"/>
      <path class="fil0" d="M1354.34 951.54c-7.54,-9.56 -15.07,-22.31 -24.12,-32.94l-48.24 -68c-6.03,-10.63 -16.58,-27.63 -27.14,-31.88 -12.06,-4.25 -101,-4.25 -113.07,-1.06 -13.57,4.25 -25.63,18.07 -16.58,34l194.47 274.14c9.05,12.75 13.57,25.5 34.67,25.5 21.11,1.06 27.14,-11.69 34.67,-23.38l73.87 -103.07c16.58,-22.32 31.66,-44.63 48.24,-66.94l72.36 -103.07c12.06,-15.94 1.51,-30.82 -12.06,-36.13 -10.55,-4.25 -102.51,-4.25 -114.57,0 -13.57,4.25 -42.21,49.94 -52.76,64.82 -7.54,11.69 -15.08,22.31 -24.12,34 -4.52,6.38 -19.6,29.75 -25.63,34z"/>
     </g>
     <g>
      <path class="fil0" d="M359.24 1016.36c25.63,39.31 57.29,80.75 84.42,119.01 4.52,6.38 7.54,10.63 15.07,13.81 12.06,4.25 101,4.25 113.06,1.06 15.08,-4.25 25.63,-21.25 15.08,-37.19 -18.09,-28.69 -99.5,-139.2 -122.11,-171.07l-72.36 -102.01c-7.54,-11.69 -13.57,-24.44 -36.18,-23.38 -22.61,0 -40.7,32.94 -57.29,58.44l-170.35 239.08c-10.55,17 1.51,31.88 15.07,36.13 12.06,3.19 102.51,3.19 113.07,-1.06 15.07,-6.38 63.31,-80.75 76.88,-98.82l25.63 -34z"/>
      <path class="fil0" d="M1004.34 1358.51l-70.85 -99.88c-7.54,-11.69 -16.58,-26.56 -28.64,-32.94 -10.55,-5.31 -97.99,-5.31 -111.56,-2.13 -16.58,3.19 -28.64,17 -19.6,35.06l171.86 240.14c22.61,31.87 33.17,58.44 58.8,59.5 19.6,0 25.63,-11.69 33.16,-23.38 9.05,-10.62 16.58,-21.25 24.12,-32.94 16.58,-24.44 33.16,-46.75 49.75,-69.07 36.18,-54.19 88.95,-122.2 122.11,-172.14 10.55,-17 1.51,-30.81 -13.57,-36.13 -10.55,-4.25 -102.51,-4.25 -113.06,0 -13.57,4.25 -19.6,18.07 -28.64,29.75 -7.54,11.69 -16.58,24.44 -24.12,35.06 -9.05,11.69 -15.08,21.25 -24.12,34 -7.54,10.63 -16.58,25.5 -25.63,35.07z"/>
      <path class="fil0" d="M1022.43 1024.86c7.54,5.31 19.6,25.5 25.63,32.94 13.57,20.19 63.32,94.57 75.38,99.88 10.55,4.25 99.5,4.25 113.06,1.06 15.07,-3.19 25.63,-17 16.58,-34 -4.52,-9.56 -18.09,-26.56 -24.12,-35.06 -16.58,-22.32 -31.66,-44.63 -48.24,-68.01l-122.11 -172.14c-7.54,-11.69 -15.08,-24.44 -36.18,-24.44 -21.11,0 -25.63,12.75 -33.17,24.44l-122.11 170.01c-16.58,22.31 -33.17,45.69 -48.24,69.07 -12.06,17 -49.75,54.19 -12.06,69.07 10.55,4.25 102.51,4.25 114.57,1.06 13.57,-4.25 42.21,-49.94 52.76,-64.82 16.58,-24.44 34.67,-45.69 48.24,-69.07z"/>
      <path class="fil0" d="M339.64 1357.44c-21.1,-18.06 -81.4,-125.38 -101,-132.82 -10.55,-4.25 -102.51,-4.25 -114.57,-1.06 -12.06,4.25 -24.12,19.13 -15.07,35.06l195.98 275.21c7.54,11.69 15.07,23.38 34.67,23.38 19.6,0 24.12,-10.63 33.17,-22.32l195.98 -274.14c7.54,-14.88 1.51,-30.81 -13.57,-36.13 -9.05,-3.19 -102.51,-3.19 -113.06,0 -16.58,5.31 -63.32,78.63 -76.89,97.76 -9.05,11.69 -16.58,23.38 -25.63,35.06z"/>
      <path class="fil0" d="M672.62 1431.82c22.61,22.31 79.9,125.38 101,132.82 10.55,3.19 102.51,4.25 113.06,0 13.57,-4.25 24.12,-18.06 15.08,-34 -6.03,-10.62 -16.58,-24.44 -24.12,-35.06l-170.35 -240.14c-21.11,-31.88 -46.73,-34 -69.35,-1.06l-72.36 103.07c-33.16,45.69 -64.82,91.38 -97.99,137.07 -7.54,11.69 -18.09,23.38 -24.12,34 -9.05,14.88 -1.51,30.82 13.57,36.13 9.05,3.19 101,3.19 111.56,0 15.07,-4.25 19.6,-17 28.64,-29.75 9.05,-12.75 16.58,-22.31 25.63,-34 7.54,-12.75 15.08,-23.38 24.12,-34 7.54,-11.69 16.58,-26.56 25.63,-35.06z"/>
      <path class="fil0" d="M694.52 951.54c-7.54,-9.56 -15.07,-22.31 -24.12,-32.94l-48.24 -68c-6.03,-10.63 -16.58,-27.63 -27.14,-31.88 -12.06,-4.25 -101,-4.25 -113.07,-1.06 -13.57,4.25 -25.63,18.07 -16.58,34l194.47 274.14c9.05,12.75 13.57,25.5 34.67,25.5 21.11,1.06 27.14,-11.69 34.67,-23.38l73.87 -103.07c16.58,-22.32 31.66,-44.63 48.24,-66.94l72.36 -103.07c12.06,-15.94 1.51,-30.82 -12.06,-36.13 -10.55,-4.25 -102.51,-4.25 -114.57,0 -13.57,4.25 -42.21,49.94 -52.76,64.82 -7.54,11.69 -15.08,22.31 -24.12,34 -4.52,6.38 -19.6,29.75 -25.63,34z"/>
      <path class="fil0" d="M6.71 1431.82c22.61,22.31 79.9,125.38 101,132.82 10.55,3.19 102.51,4.25 113.06,0 13.57,-4.25 24.12,-18.06 15.08,-34 -6.03,-10.62 -16.58,-24.44 -24.12,-35.06l-170.35 -240.14c-12.71,-19.19 -27.05,-27.59 -41.38,-24.06l0 207.81c2.22,-2.75 4.47,-5.25 6.71,-7.36z"/>
      <path class="fil0" d="M23.54 951.54c-7.37,-9.36 -14.75,-21.76 -23.54,-32.25l0 222.28c5.12,5.74 11.74,9.73 23.54,9.73 21.11,1.06 27.14,-11.69 34.67,-23.38l73.87 -103.07c16.58,-22.32 31.66,-44.63 48.24,-66.94l72.36 -103.07c12.06,-15.94 1.51,-30.82 -12.06,-36.13 -10.55,-4.25 -102.51,-4.25 -114.57,0 -13.57,4.25 -42.21,49.94 -52.76,64.82 -7.54,11.69 -15.08,22.31 -24.12,34 -4.52,6.38 -19.6,29.75 -25.63,34z"/>
     </g>
    </g>
    <g>
     <g>
      <path class="fil0" d="M4351.64 200.97c25.63,39.31 57.29,80.75 84.42,119.01 4.52,6.38 7.54,10.63 15.07,13.81 12.06,4.25 101,4.25 113.06,1.06 15.08,-4.25 25.63,-21.25 15.08,-37.19 -18.09,-28.69 -99.5,-139.2 -122.11,-171.07l-72.36 -102.01c-7.54,-11.69 -13.57,-24.44 -36.18,-23.38 -22.61,0 -40.7,32.94 -57.29,58.44l-170.35 239.08c-10.55,17 1.51,31.88 15.07,36.13 12.06,3.19 102.51,3.19 113.07,-1.06 15.07,-6.38 63.31,-80.75 76.88,-98.82l25.63 -34z"/>
      <path class="fil0" d="M4996.74 543.12l-70.85 -99.88c-7.54,-11.69 -16.58,-26.56 -28.64,-32.94 -10.55,-5.31 -97.99,-5.31 -111.56,-2.13 -16.58,3.19 -28.64,17 -19.6,35.06l171.86 240.14c22.61,31.87 33.17,58.44 58.8,59.5 19.6,0 25.63,-11.69 33.16,-23.38 9.05,-10.62 16.58,-21.25 24.12,-32.94 16.58,-24.44 33.16,-46.75 49.75,-69.07 36.18,-54.19 88.95,-122.2 122.11,-172.14 10.55,-17 1.51,-30.81 -13.57,-36.13 -10.55,-4.25 -102.51,-4.25 -113.06,0 -13.57,4.25 -19.6,18.07 -28.64,29.75 -7.54,11.69 -16.58,24.44 -24.12,35.06 -9.05,11.69 -15.08,21.25 -24.12,34 -7.54,10.63 -16.58,25.5 -25.63,35.07z"/>
      <path class="fil0" d="M5014.83 209.47c7.54,5.31 19.6,25.5 25.63,32.94 13.57,20.19 63.32,94.57 75.38,99.88 10.55,4.25 99.5,4.25 113.06,1.06 15.07,-3.19 25.63,-17 16.58,-34 -4.52,-9.56 -18.09,-26.56 -24.12,-35.06 -16.58,-22.32 -31.66,-44.63 -48.24,-68.01l-122.11 -172.14c-7.54,-11.69 -15.08,-24.44 -36.18,-24.44 -21.11,0 -25.63,12.75 -33.17,24.44l-122.11 170.01c-16.58,22.31 -33.17,45.69 -48.24,69.07 -12.06,17 -49.75,54.19 -12.06,69.07 10.55,4.25 102.51,4.25 114.57,1.06 13.57,-4.25 42.21,-49.94 52.76,-64.82 16.58,-24.44 34.67,-45.69 48.24,-69.07z"/>
      <path class="fil0" d="M4332.04 542.06c-21.1,-18.06 -81.4,-125.38 -101,-132.82 -10.55,-4.25 -102.51,-4.25 -114.57,-1.06 -12.06,4.25 -24.12,19.13 -15.07,35.06l195.98 275.21c7.54,11.69 15.07,23.38 34.67,23.38 19.6,0 24.12,-10.63 33.17,-22.32l195.98 -274.14c7.54,-14.88 1.51,-30.81 -13.57,-36.13 -9.05,-3.19 -102.51,-3.19 -113.06,0 -16.58,5.31 -63.32,78.63 -76.89,97.76 -9.05,11.69 -16.58,23.38 -25.63,35.06z"/>
      <path class="fil0" d="M4665.02 616.44c22.61,22.31 79.9,125.38 101,132.82 10.55,3.19 102.51,4.25 113.06,0 13.57,-4.25 24.12,-18.06 15.08,-34 -6.03,-10.62 -16.58,-24.44 -24.12,-35.06l-170.35 -240.14c-21.11,-31.88 -46.73,-34 -69.35,-1.06l-72.36 103.07c-33.16,45.69 -64.82,91.38 -97.99,137.07 -7.54,11.69 -18.09,23.38 -24.12,34 -9.05,14.88 -1.51,30.82 13.57,36.13 9.05,3.19 101,3.19 111.56,0 15.07,-4.25 19.6,-17 28.64,-29.75 9.05,-12.75 16.58,-22.31 25.63,-34 7.54,-12.75 15.08,-23.38 24.12,-34 7.54,-11.69 16.58,-26.56 25.63,-35.06z"/>
      <path class="fil0" d="M4686.92 136.16c-7.54,-9.56 -15.07,-22.31 -24.12,-32.94l-48.24 -68c-6.03,-10.63 -16.58,-27.63 -27.14,-31.88 -12.06,-4.25 -101,-4.25 -113.07,-1.06 -13.57,4.25 -25.63,18.07 -16.58,34l194.47 274.14c9.05,12.75 13.57,25.5 34.67,25.5 21.11,1.06 27.14,-11.69 34.67,-23.38l73.87 -103.07c16.58,-22.32 31.66,-44.63 48.24,-66.94l72.36 -103.07c12.06,-15.94 1.51,-30.82 -12.06,-36.13 -10.55,-4.25 -102.51,-4.25 -114.57,0 -13.57,4.25 -42.21,49.94 -52.76,64.82 -7.54,11.69 -15.08,22.31 -24.12,34 -4.52,6.38 -19.6,29.75 -25.63,34z"/>
      <path class="fil0" d="M3999.11 616.44c22.61,22.31 79.9,125.38 101,132.82 10.55,3.19 102.51,4.25 113.06,0 13.57,-4.25 24.12,-18.06 15.08,-34 -6.03,-10.62 -16.58,-24.44 -24.12,-35.06l-170.35 -240.14c-21.11,-31.88 -46.73,-34 -69.35,-1.06l-72.36 103.07c-33.16,45.69 -64.82,91.38 -97.99,137.07 -7.54,11.69 -18.09,23.38 -24.12,34 -9.05,14.88 -1.51,30.82 13.57,36.13 9.05,3.19 101,3.19 111.56,0 15.07,-4.25 19.6,-17 28.64,-29.75 9.05,-12.75 16.58,-22.31 25.63,-34 7.54,-12.75 15.08,-23.38 24.12,-34 7.54,-11.69 16.58,-26.56 25.63,-35.06z"/>
      <path class="fil0" d="M4015.94 136.16c-7.54,-9.56 -15.07,-22.31 -24.12,-32.94l-48.24 -68c-6.03,-10.63 -16.58,-27.63 -27.14,-31.88 -12.06,-4.25 -101,-4.25 -113.07,-1.06 -13.57,4.25 -25.63,18.07 -16.58,34l194.47 274.14c9.05,12.75 13.57,25.5 34.67,25.5 21.11,1.06 27.14,-11.69 34.67,-23.38l73.87 -103.07c16.58,-22.32 31.66,-44.63 48.24,-66.94l72.36 -103.07c12.06,-15.94 1.51,-30.82 -12.06,-36.13 -10.55,-4.25 -102.51,-4.25 -114.57,0 -13.57,4.25 -42.21,49.94 -52.76,64.82 -7.54,11.69 -15.08,22.31 -24.12,34 -4.52,6.38 -19.6,29.75 -25.63,34z"/>
     </g>
     <g>
      <path class="fil0" d="M3020.84 200.97c25.63,39.31 57.29,80.75 84.42,119.01 4.52,6.38 7.54,10.63 15.07,13.81 12.06,4.25 101,4.25 113.06,1.06 15.08,-4.25 25.63,-21.25 15.08,-37.19 -18.09,-28.69 -99.5,-139.2 -122.11,-171.07l-72.36 -102.01c-7.54,-11.69 -13.57,-24.44 -36.18,-23.38 -22.61,0 -40.7,32.94 -57.29,58.44l-170.35 239.08c-10.55,17 1.51,31.88 15.07,36.13 12.06,3.19 102.51,3.19 113.07,-1.06 15.07,-6.38 63.31,-80.75 76.88,-98.82l25.63 -34z"/>
      <path class="fil0" d="M3665.94 543.12l-70.85 -99.88c-7.54,-11.69 -16.58,-26.56 -28.64,-32.94 -10.55,-5.31 -97.99,-5.31 -111.56,-2.13 -16.58,3.19 -28.64,17 -19.6,35.06l171.86 240.14c22.61,31.87 33.17,58.44 58.8,59.5 19.6,0 25.63,-11.69 33.16,-23.38 9.05,-10.62 16.58,-21.25 24.12,-32.94 16.58,-24.44 33.16,-46.75 49.75,-69.07 36.18,-54.19 88.95,-122.2 122.11,-172.14 10.55,-17 1.51,-30.81 -13.57,-36.13 -10.55,-4.25 -102.51,-4.25 -113.06,0 -13.57,4.25 -19.6,18.07 -28.64,29.75 -7.54,11.69 -16.58,24.44 -24.12,35.06 -9.05,11.69 -15.08,21.25 -24.12,34 -7.54,10.63 -16.58,25.5 -25.63,35.07z"/>
      <path class="fil0" d="M3684.03 209.47c7.54,5.31 19.6,25.5 25.63,32.94 13.57,20.19 63.32,94.57 75.38,99.88 10.55,4.25 99.5,4.25 113.06,1.06 15.07,-3.19 25.63,-17 16.58,-34 -4.52,-9.56 -18.09,-26.56 -24.12,-35.06 -16.58,-22.32 -31.66,-44.63 -48.24,-68.01l-122.11 -172.14c-7.54,-11.69 -15.08,-24.44 -36.18,-24.44 -21.11,0 -25.63,12.75 -33.17,24.44l-122.11 170.01c-16.58,22.31 -33.17,45.69 -48.24,69.07 -12.06,17 -49.75,54.19 -12.06,69.07 10.55,4.25 102.51,4.25 114.57,1.06 13.57,-4.25 42.21,-49.94 52.76,-64.82 16.58,-24.44 34.67,-45.69 48.24,-69.07z"/>
      <path class="fil0" d="M3001.24 542.06c-21.1,-18.06 -81.4,-125.38 -101,-132.82 -10.55,-4.25 -102.51,-4.25 -114.57,-1.06 -12.06,4.25 -24.12,19.13 -15.07,35.06l195.98 275.21c7.54,11.69 15.07,23.38 34.67,23.38 19.6,0 24.12,-10.63 33.17,-22.32l195.98 -274.14c7.54,-14.88 1.51,-30.81 -13.57,-36.13 -9.05,-3.19 -102.51,-3.19 -113.06,0 -16.58,5.31 -63.32,78.63 -76.89,97.76 -9.05,11.69 -16.58,23.38 -25.63,35.06z"/>
      <path class="fil0" d="M3334.22 616.44c22.61,22.31 79.9,125.38 101,132.82 10.55,3.19 102.51,4.25 113.06,0 13.57,-4.25 24.12,-18.06 15.08,-34 -6.03,-10.62 -16.58,-24.44 -24.12,-35.06l-170.35 -240.14c-21.11,-31.88 -46.73,-34 -69.35,-1.06l-72.36 103.07c-33.16,45.69 -64.82,91.38 -97.99,137.07 -7.54,11.69 -18.09,23.38 -24.12,34 -9.05,14.88 -1.51,30.82 13.57,36.13 9.05,3.19 101,3.19 111.56,0 15.07,-4.25 19.6,-17 28.64,-29.75 9.05,-12.75 16.58,-22.31 25.63,-34 7.54,-12.75 15.08,-23.38 24.12,-34 7.54,-11.69 16.58,-26.56 25.63,-35.06z"/>
      <path class="fil0" d="M3356.12 136.16c-7.54,-9.56 -15.07,-22.31 -24.12,-32.94l-48.24 -68c-6.03,-10.63 -16.58,-27.63 -27.14,-31.88 -12.06,-4.25 -101,-4.25 -113.07,-1.06 -13.57,4.25 -25.63,18.07 -16.58,34l194.47 274.14c9.05,12.75 13.57,25.5 34.67,25.5 21.11,1.06 27.14,-11.69 34.67,-23.38l73.87 -103.07c16.58,-22.32 31.66,-44.63 48.24,-66.94l72.36 -103.07c12.06,-15.94 1.51,-30.82 -12.06,-36.13 -10.55,-4.25 -102.51,-4.25 -114.57,0 -13.57,4.25 -42.21,49.94 -52.76,64.82 -7.54,11.69 -15.08,22.31 -24.12,34 -4.52,6.38 -19.6,29.75 -25.63,34z"/>
      <path class="fil0" d="M2668.31 616.44c22.61,22.31 79.9,125.38 101,132.82 10.55,3.19 102.51,4.25 113.06,0 13.57,-4.25 24.12,-18.06 15.08,-34 -6.03,-10.62 -16.58,-24.44 -24.12,-35.06l-170.35 -240.14c-21.11,-31.88 -46.73,-34 -69.35,-1.06l-72.36 103.07c-33.16,45.69 -64.82,91.38 -97.99,137.07 -7.54,11.69 -18.09,23.38 -24.12,34 -9.05,14.88 -1.51,30.82 13.57,36.13 9.05,3.19 101,3.19 111.56,0 15.07,-4.25 19.6,-17 28.64,-29.75 9.05,-12.75 16.58,-22.31 25.63,-34 7.54,-12.75 15.08,-23.38 24.12,-34 7.54,-11.69 16.58,-26.56 25.63,-35.06z"/>
      <path class="fil0" d="M2685.14 136.16c-7.54,-9.56 -15.07,-22.31 -24.12,-32.94l-48.24 -68c-6.03,-10.63 -16.58,-27.63 -27.14,-31.88 -12.06,-4.25 -101,-4.25 -113.07,-1.06 -13.57,4.25 -25.63,18.07 -16.58,34l194.47 274.14c9.05,12.75 13.57,25.5 34.67,25.5 21.11,1.06 27.14,-11.69 34.67,-23.38l73.87 -103.07c16.58,-22.32 31.66,-44.63 48.24,-66.94l72.36 -103.07c12.06,-15.94 1.51,-30.82 -12.06,-36.13 -10.55,-4.25 -102.51,-4.25 -114.57,0 -13.57,4.25 -42.21,49.94 -52.76,64.82 -7.54,11.69 -15.08,22.31 -24.12,34 -4.52,6.38 -19.6,29.75 -25.63,34z"/>
     </g>
     <g>
      <path class="fil0" d="M1690.04 200.97c25.63,39.31 57.29,80.75 84.42,119.01 4.52,6.38 7.54,10.63 15.07,13.81 12.06,4.25 101,4.25 113.06,1.06 15.08,-4.25 25.63,-21.25 15.08,-37.19 -18.09,-28.69 -99.5,-139.2 -122.11,-171.07l-72.36 -102.01c-7.54,-11.69 -13.57,-24.44 -36.18,-23.38 -22.61,0 -40.7,32.94 -57.29,58.44l-170.35 239.08c-10.55,17 1.51,31.88 15.07,36.13 12.06,3.19 102.51,3.19 113.07,-1.06 15.07,-6.38 63.31,-80.75 76.88,-98.82l25.63 -34z"/>
      <path class="fil0" d="M2335.14 543.12l-70.85 -99.88c-7.54,-11.69 -16.58,-26.56 -28.64,-32.94 -10.55,-5.31 -97.99,-5.31 -111.56,-2.13 -16.58,3.19 -28.64,17 -19.6,35.06l171.86 240.14c22.61,31.87 33.17,58.44 58.8,59.5 19.6,0 25.63,-11.69 33.16,-23.38 9.05,-10.62 16.58,-21.25 24.12,-32.94 16.58,-24.44 33.16,-46.75 49.75,-69.07 36.18,-54.19 88.95,-122.2 122.11,-172.14 10.55,-17 1.51,-30.81 -13.57,-36.13 -10.55,-4.25 -102.51,-4.25 -113.06,0 -13.57,4.25 -19.6,18.07 -28.64,29.75 -7.54,11.69 -16.58,24.44 -24.12,35.06 -9.05,11.69 -15.08,21.25 -24.12,34 -7.54,10.63 -16.58,25.5 -25.63,35.07z"/>
      <path class="fil0" d="M2353.23 209.47c7.54,5.31 19.6,25.5 25.63,32.94 13.57,20.19 63.32,94.57 75.38,99.88 10.55,4.25 99.5,4.25 113.06,1.06 15.07,-3.19 25.63,-17 16.58,-34 -4.52,-9.56 -18.09,-26.56 -24.12,-35.06 -16.58,-22.32 -31.66,-44.63 -48.24,-68.01l-122.11 -172.14c-7.54,-11.69 -15.08,-24.44 -36.18,-24.44 -21.11,0 -25.63,12.75 -33.17,24.44l-122.11 170.01c-16.58,22.31 -33.17,45.69 -48.24,69.07 -12.06,17 -49.75,54.19 -12.06,69.07 10.55,4.25 102.51,4.25 114.57,1.06 13.57,-4.25 42.21,-49.94 52.76,-64.82 16.58,-24.44 34.67,-45.69 48.24,-69.07z"/>
      <path class="fil0" d="M1670.44 542.06c-21.1,-18.06 -81.4,-125.38 -101,-132.82 -10.55,-4.25 -102.51,-4.25 -114.57,-1.06 -12.06,4.25 -24.12,19.13 -15.07,35.06l195.98 275.21c7.54,11.69 15.07,23.38 34.67,23.38 19.6,0 24.12,-10.63 33.17,-22.32l195.98 -274.14c7.54,-14.88 1.51,-30.81 -13.57,-36.13 -9.05,-3.19 -102.51,-3.19 -113.06,0 -16.58,5.31 -63.32,78.63 -76.89,97.76 -9.05,11.69 -16.58,23.38 -25.63,35.06z"/>
      <path class="fil0" d="M2003.42 616.44c22.61,22.31 79.9,125.38 101,132.82 10.55,3.19 102.51,4.25 113.06,0 13.57,-4.25 24.12,-18.06 15.08,-34 -6.03,-10.62 -16.58,-24.44 -24.12,-35.06l-170.35 -240.14c-21.11,-31.88 -46.73,-34 -69.35,-1.06l-72.36 103.07c-33.16,45.69 -64.82,91.38 -97.99,137.07 -7.54,11.69 -18.09,23.38 -24.12,34 -9.05,14.88 -1.51,30.82 13.57,36.13 9.05,3.19 101,3.19 111.56,0 15.07,-4.25 19.6,-17 28.64,-29.75 9.05,-12.75 16.58,-22.31 25.63,-34 7.54,-12.75 15.08,-23.38 24.12,-34 7.54,-11.69 16.58,-26.56 25.63,-35.06z"/>
      <path class="fil0" d="M2025.32 136.16c-7.54,-9.56 -15.07,-22.31 -24.12,-32.94l-48.24 -68c-6.03,-10.63 -16.58,-27.63 -27.14,-31.88 -12.06,-4.25 -101,-4.25 -113.07,-1.06 -13.57,4.25 -25.63,18.07 -16.58,34l194.47 274.14c9.05,12.75 13.57,25.5 34.67,25.5 21.11,1.06 27.14,-11.69 34.67,-23.38l73.87 -103.07c16.58,-22.32 31.66,-44.63 48.24,-66.94l72.36 -103.07c12.06,-15.94 1.51,-30.82 -12.06,-36.13 -10.55,-4.25 -102.51,-4.25 -114.57,0 -13.57,4.25 -42.21,49.94 -52.76,64.82 -7.54,11.69 -15.08,22.31 -24.12,34 -4.52,6.38 -19.6,29.75 -25.63,34z"/>
      <path class="fil0" d="M1337.51 616.44c22.61,22.31 79.9,125.38 101,132.82 10.55,3.19 102.51,4.25 113.06,0 13.57,-4.25 24.12,-18.06 15.08,-34 -6.03,-10.62 -16.58,-24.44 -24.12,-35.06l-170.35 -240.14c-21.11,-31.88 -46.73,-34 -69.35,-1.06l-72.36 103.07c-33.16,45.69 -64.82,91.38 -97.99,137.07 -7.54,11.69 -18.09,23.38 -24.12,34 -9.05,14.88 -1.51,30.82 13.57,36.13 9.05,3.19 101,3.19 111.56,0 15.07,-4.25 19.6,-17 28.64,-29.75 9.05,-12.75 16.58,-22.31 25.63,-34 7.54,-12.75 15.08,-23.38 24.12,-34 7.54,-11.69 16.58,-26.56 25.63,-35.06z"/>
      <path class="fil0" d="M1354.34 136.16c-7.54,-9.56 -15.07,-22.31 -24.12,-32.94l-48.24 -68c-6.03,-10.63 -16.58,-27.63 -27.14,-31.88 -12.06,-4.25 -101,-4.25 -113.07,-1.06 -13.57,4.25 -25.63,18.07 -16.58,34l194.47 274.14c9.05,12.75 13.57,25.5 34.67,25.5 21.11,1.06 27.14,-11.69 34.67,-23.38l73.87 -103.07c16.58,-22.32 31.66,-44.63 48.24,-66.94l72.36 -103.07c12.06,-15.94 1.51,-30.82 -12.06,-36.13 -10.55,-4.25 -102.51,-4.25 -114.57,0 -13.57,4.25 -42.21,49.94 -52.76,64.82 -7.54,11.69 -15.08,22.31 -24.12,34 -4.52,6.38 -19.6,29.75 -25.63,34z"/>
     </g>
     <g>
      <path class="fil0" d="M359.24 200.97c25.63,39.31 57.29,80.75 84.42,119.01 4.52,6.38 7.54,10.63 15.07,13.81 12.06,4.25 101,4.25 113.06,1.06 15.08,-4.25 25.63,-21.25 15.08,-37.19 -18.09,-28.69 -99.5,-139.2 -122.11,-171.07l-72.36 -102.01c-7.54,-11.69 -13.57,-24.44 -36.18,-23.38 -22.61,0 -40.7,32.94 -57.29,58.44l-170.35 239.08c-10.55,17 1.51,31.88 15.07,36.13 12.06,3.19 102.51,3.19 113.07,-1.06 15.07,-6.38 63.31,-80.75 76.88,-98.82l25.63 -34z"/>
      <path class="fil0" d="M1004.34 543.12l-70.85 -99.88c-7.54,-11.69 -16.58,-26.56 -28.64,-32.94 -10.55,-5.31 -97.99,-5.31 -111.56,-2.13 -16.58,3.19 -28.64,17 -19.6,35.06l171.86 240.14c22.61,31.87 33.17,58.44 58.8,59.5 19.6,0 25.63,-11.69 33.16,-23.38 9.05,-10.62 16.58,-21.25 24.12,-32.94 16.58,-24.44 33.16,-46.75 49.75,-69.07 36.18,-54.19 88.95,-122.2 122.11,-172.14 10.55,-17 1.51,-30.81 -13.57,-36.13 -10.55,-4.25 -102.51,-4.25 -113.06,0 -13.57,4.25 -19.6,18.07 -28.64,29.75 -7.54,11.69 -16.58,24.44 -24.12,35.06 -9.05,11.69 -15.08,21.25 -24.12,34 -7.54,10.63 -16.58,25.5 -25.63,35.07z"/>
      <path class="fil0" d="M1022.43 209.47c7.54,5.31 19.6,25.5 25.63,32.94 13.57,20.19 63.32,94.57 75.38,99.88 10.55,4.25 99.5,4.25 113.06,1.06 15.07,-3.19 25.63,-17 16.58,-34 -4.52,-9.56 -18.09,-26.56 -24.12,-35.06 -16.58,-22.32 -31.66,-44.63 -48.24,-68.01l-122.11 -172.14c-7.54,-11.69 -15.08,-24.44 -36.18,-24.44 -21.11,0 -25.63,12.75 -33.17,24.44l-122.11 170.01c-16.58,22.31 -33.17,45.69 -48.24,69.07 -12.06,17 -49.75,54.19 -12.06,69.07 10.55,4.25 102.51,4.25 114.57,1.06 13.57,-4.25 42.21,-49.94 52.76,-64.82 16.58,-24.44 34.67,-45.69 48.24,-69.07z"/>
      <path class="fil0" d="M339.64 542.06c-21.1,-18.06 -81.4,-125.38 -101,-132.82 -10.55,-4.25 -102.51,-4.25 -114.57,-1.06 -12.06,4.25 -24.12,19.13 -15.07,35.06l195.98 275.21c7.54,11.69 15.07,23.38 34.67,23.38 19.6,0 24.12,-10.63 33.17,-22.32l195.98 -274.14c7.54,-14.88 1.51,-30.81 -13.57,-36.13 -9.05,-3.19 -102.51,-3.19 -113.06,0 -16.58,5.31 -63.32,78.63 -76.89,97.76 -9.05,11.69 -16.58,23.38 -25.63,35.06z"/>
      <path class="fil0" d="M672.62 616.44c22.61,22.31 79.9,125.38 101,132.82 10.55,3.19 102.51,4.25 113.06,0 13.57,-4.25 24.12,-18.06 15.08,-34 -6.03,-10.62 -16.58,-24.44 -24.12,-35.06l-170.35 -240.14c-21.11,-31.88 -46.73,-34 -69.35,-1.06l-72.36 103.07c-33.16,45.69 -64.82,91.38 -97.99,137.07 -7.54,11.69 -18.09,23.38 -24.12,34 -9.05,14.88 -1.51,30.82 13.57,36.13 9.05,3.19 101,3.19 111.56,0 15.07,-4.25 19.6,-17 28.64,-29.75 9.05,-12.75 16.58,-22.31 25.63,-34 7.54,-12.75 15.08,-23.38 24.12,-34 7.54,-11.69 16.58,-26.56 25.63,-35.06z"/>
      <path class="fil0" d="M694.52 136.16c-7.54,-9.56 -15.07,-22.31 -24.12,-32.94l-48.24 -68c-6.03,-10.63 -16.58,-27.63 -27.14,-31.88 -12.06,-4.25 -101,-4.25 -113.07,-1.06 -13.57,4.25 -25.63,18.07 -16.58,34l194.47 274.14c9.05,12.75 13.57,25.5 34.67,25.5 21.11,1.06 27.14,-11.69 34.67,-23.38l73.87 -103.07c16.58,-22.32 31.66,-44.63 48.24,-66.94l72.36 -103.07c12.06,-15.94 1.51,-30.82 -12.06,-36.13 -10.55,-4.25 -102.51,-4.25 -114.57,0 -13.57,4.25 -42.21,49.94 -52.76,64.82 -7.54,11.69 -15.08,22.31 -24.12,34 -4.52,6.38 -19.6,29.75 -25.63,34z"/>
      <path class="fil0" d="M6.71 616.44c22.61,22.31 79.9,125.38 101,132.82 10.55,3.19 102.51,4.25 113.06,0 13.57,-4.25 24.12,-18.06 15.08,-34 -6.03,-10.62 -16.58,-24.44 -24.12,-35.06l-170.35 -240.14c-12.71,-19.19 -27.05,-27.59 -41.38,-24.06l0 207.81c2.22,-2.75 4.47,-5.25 6.71,-7.36z"/>
      <path class="fil0" d="M23.54 136.16c-7.37,-9.36 -14.75,-21.76 -23.54,-32.25l0 222.28c5.12,5.74 11.74,9.73 23.54,9.73 21.11,1.06 27.14,-11.69 34.67,-23.38l73.87 -103.07c16.58,-22.32 31.66,-44.63 48.24,-66.94l72.36 -103.07c12.06,-15.94 1.51,-30.82 -12.06,-36.13 -10.55,-4.25 -102.51,-4.25 -114.57,0 -13.57,4.25 -42.21,49.94 -52.76,64.82 -7.54,11.69 -15.08,22.31 -24.12,34 -4.52,6.38 -19.6,29.75 -25.63,34z"/>
     </g>
    </g>
   </g>
  </g>
 </g>
</svg>
